<?xml version="1.0" encoding="utf-8"?>
<!-- Generator: Adobe Illustrator 16.0.0, SVG Export Plug-In . SVG Version: 6.00 Build 0)  -->
<!DOCTYPE svg PUBLIC "-//W3C//DTD SVG 1.1//EN" "http://www.w3.org/Graphics/SVG/1.1/DTD/svg11.dtd">
<svg version="1.1" xmlns="http://www.w3.org/2000/svg" xmlns:xlink="http://www.w3.org/1999/xlink" x="0px" y="0px"
	 width="2631.487px" height="114.614px" viewBox="-109.974 19.399 2631.487 114.614"
	 enable-background="new -109.974 19.399 2631.487 114.614" xml:space="preserve">
<g id="logo">
</g>
<g id="tagline">
	<g>
		<path fill="#346378" d="M-97.925,88.105V55.853h-9.887v-8.218c5.644-0.947,9.813-3.264,12.512-6.951
			c2.698-3.686,4.295-9.401,4.789-17.146h8.094V47.08h16.497v8.773h-16.744v34.044c0,2.926,0.329,4.892,0.988,5.9
			c0.659,1.01,1.854,1.515,3.584,1.515c2.142,0,3.624-1.01,4.448-3.028c0.824-2.018,1.236-6.137,1.236-12.357V78.59h8.218
			c0.04,0.659,0.071,1.381,0.093,2.162c0.02,0.783,0.03,1.875,0.03,3.275c0,8.773-1.432,15.128-4.294,19.061
			c-2.863,3.934-7.487,5.9-13.871,5.9c-5.479,0-9.464-1.668-11.956-5.004C-96.68,100.648-97.925,95.356-97.925,88.105z"/>
		<path fill="#346378" d="M-45.222,37.997c0-3.213-0.494-5.283-1.482-6.21c-0.989-0.927-2.946-1.39-5.87-1.39h-3.274v-8.465h25.826
			v35.65c3.254-4.077,6.643-7.156,10.164-9.236s7.095-3.121,10.72-3.121c6.837,0,11.749,1.689,14.736,5.067
			c2.986,3.378,4.479,9.021,4.479,16.929v23.541c0,3.213,0.494,5.282,1.483,6.21c0.988,0.927,2.944,1.39,5.869,1.39h3.521v8.465
			h-35.897v-8.465h2.533c2.924,0,4.87-0.463,5.839-1.39c0.968-0.928,1.452-2.997,1.452-6.21V67.221c0-4.407-0.732-7.558-2.193-9.453
			c-1.463-1.894-3.842-2.842-7.137-2.842c-4.86,0-8.671,1.844-11.431,5.529c-2.76,3.688-4.14,8.805-4.14,15.354v14.952
			c0,3.213,0.494,5.282,1.483,6.21c0.988,0.927,2.944,1.39,5.869,1.39h2.533v8.465h-35.712v-8.465h3.274
			c2.924,0,4.881-0.463,5.87-1.39c0.988-0.928,1.482-2.997,1.482-6.21V37.997z"/>
		<path fill="#346378" d="M75.633,85.449h10.628c-0.907,7.332-3.842,13.109-8.805,17.331c-4.964,4.222-11.317,6.333-19.062,6.333
			c-9.639,0-17.321-2.914-23.046-8.743c-5.726-5.828-8.589-13.624-8.589-23.386c0-9.639,2.894-17.413,8.682-23.324
			c5.786-5.91,13.438-8.866,22.953-8.866c9.186,0,16.188,2.853,21.008,8.557c4.819,5.706,7.229,13.995,7.229,24.869H43.999
			c0.247,6.756,1.678,11.905,4.294,15.447c2.615,3.543,6.291,5.313,11.028,5.313c4.86,0,8.536-1.04,11.029-3.12
			C72.842,93.78,74.604,90.309,75.633,85.449z M69.887,69.26c-0.37-5.52-1.493-9.556-3.367-12.11
			c-1.875-2.553-4.624-3.83-8.248-3.83c-3.707,0-6.726,1.35-9.052,4.047c-2.328,2.698-3.862,6.663-4.604,11.894H69.887z"/>
		<path fill="#346378" d="M159.786,90.762c0,3.254,0.483,5.335,1.452,6.24c0.967,0.906,2.894,1.359,5.777,1.359h6.302v8.465h-40.223
			v-8.465h4.201c2.883,0,4.798-0.453,5.746-1.359c0.947-0.905,1.421-2.986,1.421-6.24V63.144c0-3.254-0.474-5.323-1.421-6.21
			c-0.948-0.886-2.863-1.328-5.746-1.328h-4.201V47.08h26.691V56.1c1.978-3.542,4.283-6.199,6.92-7.971
			c2.636-1.771,5.602-2.656,8.897-2.656c4.53,0,8.218,1.267,11.06,3.8c2.843,2.533,4.264,5.818,4.264,9.854
			c0,3.173-0.948,5.757-2.843,7.754c-1.895,1.999-4.366,2.997-7.414,2.997c-2.595,0-4.695-0.73-6.302-2.193
			c-1.606-1.462-2.41-3.347-2.41-5.653c0-2.101,0.658-3.882,1.978-5.345c1.317-1.462,3.232-2.543,5.746-3.244
			c-0.948-0.411-1.864-0.73-2.75-0.957s-1.699-0.34-2.44-0.34c-4.201,0-7.703,2.111-10.504,6.333
			c-2.802,4.223-4.201,9.629-4.201,16.219V90.762z"/>
		<path fill="#346378" d="M245.483,85.449h10.628c-0.907,7.332-3.842,13.109-8.805,17.331c-4.964,4.222-11.317,6.333-19.062,6.333
			c-9.639,0-17.321-2.914-23.046-8.743c-5.726-5.828-8.589-13.624-8.589-23.386c0-9.639,2.894-17.413,8.682-23.324
			c5.786-5.91,13.438-8.866,22.953-8.866c9.186,0,16.188,2.853,21.008,8.557c4.819,5.706,7.229,13.995,7.229,24.869H213.85
			c0.247,6.756,1.678,11.905,4.294,15.447c2.615,3.543,6.291,5.313,11.028,5.313c4.86,0,8.536-1.04,11.029-3.12
			C242.692,93.78,244.454,90.309,245.483,85.449z M239.737,69.26c-0.37-5.52-1.493-9.556-3.367-12.11
			c-1.875-2.553-4.624-3.83-8.248-3.83c-3.707,0-6.726,1.35-9.052,4.047c-2.328,2.698-3.862,6.663-4.604,11.894H239.737z"/>
		<path fill="#346378" d="M287.375,106.827l-15.446-44.795c-0.825-2.307-1.771-3.955-2.843-4.943s-2.39-1.482-3.954-1.482h-3.707
			V47.08h32.932v8.526h-2.039c-1.647,0-2.883,0.258-3.707,0.772s-1.235,1.308-1.235,2.378c0,0.578,0.093,1.319,0.278,2.225
			c0.185,0.906,0.483,1.978,0.896,3.213l9.33,27.557l10.133-28.73c0.287-0.741,0.504-1.452,0.648-2.132
			c0.144-0.68,0.217-1.307,0.217-1.884c0-1.194-0.454-2.06-1.359-2.596c-0.907-0.534-2.349-0.803-4.325-0.803h-3.027V47.08h29.472
			v8.526h-3.151c-1.729,0-3.223,0.617-4.479,1.854c-1.257,1.235-2.338,3.172-3.243,5.808l-15.323,43.56H287.375z"/>
		<path fill="#346378" d="M382.958,85.449h10.628c-0.907,7.332-3.842,13.109-8.805,17.331c-4.964,4.222-11.317,6.333-19.062,6.333
			c-9.639,0-17.321-2.914-23.046-8.743c-5.726-5.828-8.589-13.624-8.589-23.386c0-9.639,2.894-17.413,8.682-23.324
			c5.786-5.91,13.438-8.866,22.953-8.866c9.186,0,16.188,2.853,21.008,8.557c4.819,5.706,7.229,13.995,7.229,24.869h-42.632
			c0.247,6.756,1.678,11.905,4.294,15.447c2.615,3.543,6.291,5.313,11.028,5.313c4.86,0,8.536-1.04,11.029-3.12
			C380.167,93.78,381.929,90.309,382.958,85.449z M377.212,69.26c-0.37-5.52-1.493-9.556-3.367-12.11
			c-1.875-2.553-4.624-3.83-8.248-3.83c-3.707,0-6.726,1.35-9.052,4.047c-2.328,2.698-3.862,6.663-4.604,11.894H377.212z"/>
		<path fill="#346378" d="M440.05,99.597c-2.513,3.255-5.438,5.654-8.773,7.198c-3.337,1.545-7.25,2.317-11.739,2.317
			c-5.313,0-9.66-1.524-13.037-4.572c-3.378-3.048-5.066-6.961-5.066-11.739c0-4.572,1.441-8.279,4.325-11.122
			c2.883-2.842,7.825-5.334,14.828-7.476c1.647-0.535,4.325-1.256,8.032-2.163c3.707-0.905,6.158-1.75,7.353-2.533
			c1.523-0.988,2.605-2.11,3.244-3.367c0.638-1.256,0.958-2.831,0.958-4.727c0-3.089-1.123-5.468-3.367-7.137
			c-2.246-1.668-5.469-2.502-9.67-2.502c-2.719,0-5.036,0.299-6.951,0.896c-1.915,0.598-3.614,1.535-5.098,2.812h0.433
			c2.472,0,4.418,0.608,5.839,1.823s2.132,2.914,2.132,5.097c0,2.432-0.813,4.387-2.44,5.87c-1.628,1.482-3.779,2.225-6.457,2.225
			c-2.966,0-5.396-0.917-7.291-2.75c-1.895-1.832-2.842-4.211-2.842-7.136c0-4.696,2.234-8.506,6.704-11.431
			c4.469-2.925,10.431-4.387,17.887-4.387c4.242,0,8.002,0.37,11.276,1.111c3.274,0.742,5.962,1.813,8.063,3.213
			c2.43,1.606,4.14,3.646,5.128,6.117s1.482,6.591,1.482,12.357v26.568c0,1.482,0.237,2.574,0.711,3.274
			c0.473,0.701,1.205,1.051,2.193,1.051c1.523,0,2.554-0.804,3.089-2.41s0.804-5.438,0.804-11.492h7.724v2.657
			c0,7.744-1.227,13.325-3.677,16.744c-2.451,3.418-6.457,5.128-12.018,5.128c-3.748,0-6.745-0.772-8.989-2.317
			C442.593,105.251,440.997,102.852,440.05,99.597z M439.803,75.563c-1.729,0.824-4.119,1.875-7.167,3.15
			c-9.392,4.078-14.088,8.26-14.088,12.543c0,2.308,0.68,4.089,2.039,5.345c1.359,1.257,3.295,1.885,5.809,1.885
			c4.118,0,7.383-1.391,9.793-4.171c2.409-2.78,3.614-6.621,3.614-11.523V75.563z"/>
		<path fill="#346378" d="M483.794,37.997c0-3.213-0.484-5.283-1.452-6.21s-2.935-1.39-5.9-1.39h-3.769v-8.465h26.567v68.83
			c0,3.213,0.495,5.282,1.483,6.21c0.988,0.927,2.944,1.39,5.869,1.39h3.77v8.465h-37.689v-8.465h3.769
			c2.966,0,4.933-0.463,5.9-1.39c0.968-0.928,1.452-2.997,1.452-6.21V37.997z"/>
		<path fill="#346378" d="M565.414,85.449h10.628c-0.907,7.332-3.842,13.109-8.805,17.331c-4.964,4.222-11.317,6.333-19.062,6.333
			c-9.639,0-17.321-2.914-23.046-8.743c-5.726-5.828-8.589-13.624-8.589-23.386c0-9.639,2.894-17.413,8.682-23.324
			c5.786-5.91,13.438-8.866,22.953-8.866c9.186,0,16.188,2.853,21.008,8.557c4.819,5.706,7.229,13.995,7.229,24.869H533.78
			c0.247,6.756,1.678,11.905,4.294,15.447c2.615,3.543,6.291,5.313,11.028,5.313c4.86,0,8.536-1.04,11.029-3.12
			C562.623,93.78,564.385,90.309,565.414,85.449z M559.668,69.26c-0.37-5.52-1.493-9.556-3.367-12.11
			c-1.875-2.553-4.624-3.83-8.248-3.83c-3.707,0-6.726,1.35-9.052,4.047c-2.328,2.698-3.862,6.663-4.604,11.894H559.668z"/>
		<path fill="#346378" d="M610.086,90.762c0,3.254,0.483,5.335,1.452,6.24c0.967,0.906,2.894,1.359,5.777,1.359h6.302v8.465h-40.223
			v-8.465h4.201c2.883,0,4.798-0.453,5.746-1.359c0.947-0.905,1.421-2.986,1.421-6.24V63.144c0-3.254-0.474-5.323-1.421-6.21
			c-0.948-0.886-2.863-1.328-5.746-1.328h-4.201V47.08h26.691V56.1c1.978-3.542,4.283-6.199,6.92-7.971
			c2.636-1.771,5.602-2.656,8.897-2.656c4.53,0,8.218,1.267,11.06,3.8c2.843,2.533,4.264,5.818,4.264,9.854
			c0,3.173-0.948,5.757-2.843,7.754c-1.895,1.999-4.366,2.997-7.414,2.997c-2.595,0-4.695-0.73-6.302-2.193
			c-1.606-1.462-2.41-3.347-2.41-5.653c0-2.101,0.658-3.882,1.978-5.345c1.317-1.462,3.232-2.543,5.746-3.244
			c-0.948-0.411-1.864-0.73-2.75-0.957s-1.699-0.34-2.44-0.34c-4.201,0-7.703,2.111-10.504,6.333
			c-2.802,4.223-4.201,9.629-4.201,16.219V90.762z"/>
		<path fill="#8F9DA2" d="M764.366,99.597c-2.513,3.255-5.438,5.654-8.773,7.198c-3.337,1.545-7.25,2.317-11.739,2.317
			c-5.313,0-9.66-1.524-13.037-4.572c-3.378-3.048-5.066-6.961-5.066-11.739c0-4.572,1.441-8.279,4.325-11.122
			c2.883-2.842,7.825-5.334,14.828-7.476c1.647-0.535,4.325-1.256,8.032-2.163c3.707-0.905,6.158-1.75,7.353-2.533
			c1.523-0.988,2.605-2.11,3.244-3.367c0.638-1.256,0.958-2.831,0.958-4.727c0-3.089-1.123-5.468-3.367-7.137
			c-2.246-1.668-5.469-2.502-9.67-2.502c-2.719,0-5.036,0.299-6.951,0.896c-1.915,0.598-3.614,1.535-5.098,2.812h0.433
			c2.472,0,4.418,0.608,5.839,1.823s2.132,2.914,2.132,5.097c0,2.432-0.813,4.387-2.44,5.87c-1.628,1.482-3.779,2.225-6.457,2.225
			c-2.966,0-5.396-0.917-7.291-2.75c-1.895-1.832-2.842-4.211-2.842-7.136c0-4.696,2.234-8.506,6.704-11.431
			c4.469-2.925,10.431-4.387,17.887-4.387c4.242,0,8.002,0.37,11.276,1.111c3.274,0.742,5.962,1.813,8.063,3.213
			c2.43,1.606,4.14,3.646,5.128,6.117s1.482,6.591,1.482,12.357v26.568c0,1.482,0.237,2.574,0.711,3.274
			c0.473,0.701,1.205,1.051,2.193,1.051c1.523,0,2.554-0.804,3.089-2.41s0.804-5.438,0.804-11.492h7.724v2.657
			c0,7.744-1.227,13.325-3.677,16.744c-2.451,3.418-6.457,5.128-12.018,5.128c-3.748,0-6.745-0.772-8.989-2.317
			C766.909,105.251,765.313,102.852,764.366,99.597z M764.119,75.563c-1.729,0.824-4.119,1.875-7.167,3.15
			c-9.392,4.078-14.088,8.26-14.088,12.543c0,2.308,0.68,4.089,2.039,5.345c1.359,1.257,3.295,1.885,5.809,1.885
			c4.118,0,7.383-1.391,9.793-4.171c2.409-2.78,3.614-6.621,3.614-11.523V75.563z"/>
		<path fill="#8F9DA2" d="M863.41,90.762c0,3.254,0.483,5.335,1.452,6.24c0.967,0.906,2.894,1.359,5.777,1.359h6.302v8.465h-40.223
			v-8.465h4.201c2.883,0,4.798-0.453,5.746-1.359c0.947-0.905,1.421-2.986,1.421-6.24V63.144c0-3.254-0.474-5.323-1.421-6.21
			c-0.948-0.886-2.863-1.328-5.746-1.328h-4.201V47.08h26.691V56.1c1.978-3.542,4.283-6.199,6.92-7.971
			c2.636-1.771,5.602-2.656,8.897-2.656c4.53,0,8.218,1.267,11.06,3.8c2.843,2.533,4.264,5.818,4.264,9.854
			c0,3.173-0.948,5.757-2.843,7.754c-1.895,1.999-4.366,2.997-7.414,2.997c-2.595,0-4.695-0.73-6.302-2.193
			c-1.606-1.462-2.41-3.347-2.41-5.653c0-2.101,0.658-3.882,1.978-5.345c1.317-1.462,3.232-2.543,5.746-3.244
			c-0.948-0.411-1.864-0.73-2.75-0.957s-1.699-0.34-2.44-0.34c-4.201,0-7.703,2.111-10.504,6.333
			c-2.802,4.223-4.201,9.629-4.201,16.219V90.762z"/>
		<path fill="#8F9DA2" d="M949.108,85.449h10.628c-0.907,7.332-3.842,13.109-8.805,17.331c-4.964,4.222-11.317,6.333-19.062,6.333
			c-9.639,0-17.321-2.914-23.046-8.743c-5.726-5.828-8.589-13.624-8.589-23.386c0-9.639,2.894-17.413,8.682-23.324
			c5.786-5.91,13.438-8.866,22.953-8.866c9.186,0,16.188,2.853,21.008,8.557c4.819,5.706,7.229,13.995,7.229,24.869h-42.632
			c0.247,6.756,1.678,11.905,4.294,15.447c2.615,3.543,6.291,5.313,11.028,5.313c4.86,0,8.536-1.04,11.029-3.12
			C946.317,93.78,948.079,90.309,949.108,85.449z M943.362,69.26c-0.37-5.52-1.493-9.556-3.367-12.11
			c-1.875-2.553-4.624-3.83-8.248-3.83c-3.707,0-6.726,1.35-9.052,4.047c-2.328,2.698-3.862,6.663-4.604,11.894H943.362z"/>
		<path fill="#8F9DA2" d="M991,106.827l-15.446-44.795c-0.825-2.307-1.771-3.955-2.843-4.943s-2.39-1.482-3.954-1.482h-3.707V47.08
			h32.932v8.526h-2.039c-1.647,0-2.883,0.258-3.707,0.772S991,57.686,991,58.756c0,0.578,0.093,1.319,0.278,2.225
			c0.185,0.906,0.483,1.978,0.896,3.213l9.33,27.557l10.133-28.73c0.287-0.741,0.504-1.452,0.648-2.132
			c0.144-0.68,0.217-1.307,0.217-1.884c0-1.194-0.454-2.06-1.359-2.596c-0.907-0.534-2.349-0.803-4.325-0.803h-3.027V47.08h29.472
			v8.526h-3.151c-1.729,0-3.223,0.617-4.479,1.854c-1.257,1.235-2.338,3.172-3.243,5.808l-15.323,43.56H991z"/>
		<path fill="#8F9DA2" d="M1037.34,106.827v-8.465h4.695c2.883,0,4.809-0.453,5.777-1.359c0.967-0.905,1.452-2.986,1.452-6.24
			V63.144c0-3.254-0.485-5.323-1.452-6.21c-0.969-0.886-2.895-1.328-5.777-1.328h-4.695V47.08h27.371v43.683
			c0,3.213,0.483,5.282,1.452,6.21c0.967,0.927,2.913,1.39,5.839,1.39h3.831v8.465H1037.34z M1046.484,30.273
			c0-2.636,0.896-4.859,2.688-6.673c1.792-1.812,4.005-2.719,6.642-2.719c2.678,0,4.933,0.907,6.766,2.719
			c1.833,1.813,2.75,4.037,2.75,6.673c0,2.637-0.917,4.882-2.75,6.735s-4.088,2.78-6.766,2.78c-2.595,0-4.799-0.927-6.611-2.78
			S1046.484,32.91,1046.484,30.273z"/>
		<path fill="#8F9DA2" d="M1131.131,85.449h10.628c-0.907,7.332-3.842,13.109-8.805,17.331c-4.964,4.222-11.317,6.333-19.062,6.333
			c-9.639,0-17.321-2.914-23.046-8.743c-5.726-5.828-8.589-13.624-8.589-23.386c0-9.639,2.894-17.413,8.682-23.324
			c5.786-5.91,13.438-8.866,22.953-8.866c9.186,0,16.188,2.853,21.008,8.557c4.819,5.706,7.229,13.995,7.229,24.869h-42.632
			c0.247,6.756,1.678,11.905,4.294,15.447c2.615,3.543,6.291,5.313,11.028,5.313c4.86,0,8.536-1.04,11.029-3.12
			C1128.34,93.78,1130.102,90.309,1131.131,85.449z M1125.385,69.26c-0.37-5.52-1.493-9.556-3.367-12.11
			c-1.875-2.553-4.624-3.83-8.248-3.83c-3.707,0-6.726,1.35-9.052,4.047c-2.328,2.698-3.862,6.663-4.604,11.894H1125.385z"/>
		<path fill="#8F9DA2" d="M1172.157,106.827l-14.334-43.931c-0.989-3.047-1.999-5.024-3.028-5.931s-2.492-1.359-4.387-1.359h-2.656
			V47.08h31.325v8.526h-3.027c-1.482,0-2.544,0.237-3.182,0.71c-0.64,0.475-0.958,1.247-0.958,2.317
			c0,0.454,0.093,1.092,0.278,1.915c0.186,0.825,0.463,1.854,0.834,3.09l8.588,29.41l10.628-29.72
			c0.287-0.741,0.515-1.472,0.68-2.193c0.164-0.72,0.247-1.349,0.247-1.884c0-1.359-0.412-2.307-1.236-2.843
			c-0.824-0.534-2.307-0.803-4.448-0.803h-2.41V47.08h30.585v8.526h-3.77c-1.359,0-2.358,0.227-2.996,0.68
			c-0.64,0.453-0.958,1.195-0.958,2.224c0,0.578,0.071,1.195,0.217,1.854c0.144,0.66,0.34,1.34,0.587,2.039l10.133,31.265
			l9.329-28.731c0.412-1.194,0.731-2.337,0.958-3.429c0.226-1.091,0.34-2.008,0.34-2.75c0-0.946-0.381-1.708-1.143-2.286
			c-0.763-0.576-1.741-0.864-2.936-0.864h-3.15V47.08h26.32v8.526h-2.78c-1.606,0-2.935,0.598-3.985,1.792
			c-1.05,1.194-2.091,3.336-3.12,6.426l-14.272,43.003h-14.952L1198.726,73.4l-11.369,33.427H1172.157z"/>
		<path fill="#8F9DA2" d="M1293.877,76.984c0-9.721,3.068-17.517,9.206-23.387c6.138-5.869,14.293-8.804,24.468-8.804
			c10.215,0,18.402,2.945,24.561,8.835c6.157,5.891,9.236,13.676,9.236,23.355c0,9.639-3.079,17.383-9.236,23.231
			c-6.158,5.85-14.346,8.773-24.561,8.773c-10.175,0-18.33-2.924-24.468-8.773C1296.945,94.367,1293.877,86.623,1293.877,76.984z
			 M1311.116,76.984c0,7.703,1.358,13.46,4.077,17.27c2.719,3.811,6.837,5.715,12.357,5.715c5.52,0,9.659-1.915,12.419-5.746
			s4.14-9.577,4.14-17.238c0-7.744-1.38-13.541-4.14-17.393s-6.899-5.777-12.419-5.777c-5.479,0-9.587,1.926-12.326,5.777
			C1312.484,63.443,1311.116,69.24,1311.116,76.984z"/>
		<path fill="#8F9DA2" d="M1379.143,56.1h-11.368v-8.897h11.368v-1.854c0-8.567,1.812-14.993,5.438-19.277
			c3.624-4.283,9.041-6.426,16.25-6.426c5.519,0,9.979,1.226,13.377,3.676c3.397,2.451,5.097,5.654,5.097,9.608
			c0,2.884-0.782,5.17-2.348,6.858c-1.565,1.689-3.667,2.533-6.302,2.533c-2.308,0-4.213-0.689-5.716-2.07
			c-1.504-1.379-2.255-3.141-2.255-5.282c0-1.771,0.483-3.265,1.452-4.479c0.967-1.215,2.296-2.049,3.985-2.503
			c-0.701-0.576-1.494-1.02-2.379-1.328c-0.887-0.309-1.864-0.464-2.936-0.464c-3.049,0-5.2,0.928-6.456,2.781
			c-1.257,1.854-1.885,5.107-1.885,9.762v8.465h12.913V56.1h-12.913v34.662c0,3.254,0.483,5.335,1.452,6.24
			c0.967,0.906,2.894,1.359,5.777,1.359h5.684v8.465h-39.604v-8.465h3.646c3.171,0,5.251-0.453,6.24-1.359
			c0.988-0.905,1.482-2.986,1.482-6.24V56.1z"/>
		<path fill="#8F9DA2" d="M1481.275,90.762c0,3.254,0.483,5.335,1.452,6.24c0.967,0.906,2.894,1.359,5.777,1.359h6.302v8.465
			h-40.223v-8.465h4.201c2.883,0,4.798-0.453,5.746-1.359c0.947-0.905,1.421-2.986,1.421-6.24V63.144
			c0-3.254-0.474-5.323-1.421-6.21c-0.948-0.886-2.863-1.328-5.746-1.328h-4.201V47.08h26.691V56.1
			c1.978-3.542,4.283-6.199,6.92-7.971c2.636-1.771,5.602-2.656,8.897-2.656c4.53,0,8.218,1.267,11.06,3.8
			c2.843,2.533,4.264,5.818,4.264,9.854c0,3.173-0.948,5.757-2.843,7.754c-1.895,1.999-4.366,2.997-7.414,2.997
			c-2.595,0-4.695-0.73-6.302-2.193c-1.606-1.462-2.41-3.347-2.41-5.653c0-2.101,0.658-3.882,1.978-5.345
			c1.317-1.462,3.232-2.543,5.746-3.244c-0.948-0.411-1.864-0.73-2.75-0.957s-1.699-0.34-2.44-0.34
			c-4.201,0-7.703,2.111-10.504,6.333c-2.802,4.223-4.201,9.629-4.201,16.219V90.762z"/>
		<path fill="#8F9DA2" d="M1566.973,85.449h10.628c-0.907,7.332-3.842,13.109-8.805,17.331c-4.964,4.222-11.317,6.333-19.062,6.333
			c-9.639,0-17.321-2.914-23.046-8.743c-5.726-5.828-8.589-13.624-8.589-23.386c0-9.639,2.894-17.413,8.682-23.324
			c5.786-5.91,13.438-8.866,22.953-8.866c9.186,0,16.188,2.853,21.008,8.557c4.819,5.706,7.229,13.995,7.229,24.869h-42.632
			c0.247,6.756,1.678,11.905,4.294,15.447c2.615,3.543,6.291,5.313,11.028,5.313c4.86,0,8.536-1.04,11.029-3.12
			C1564.182,93.78,1565.943,90.309,1566.973,85.449z M1561.227,69.26c-0.37-5.52-1.493-9.556-3.367-12.11
			c-1.875-2.553-4.624-3.83-8.248-3.83c-3.707,0-6.726,1.35-9.052,4.047c-2.328,2.698-3.862,6.663-4.604,11.894H1561.227z"/>
		<path fill="#8F9DA2" d="M1595.828,37.997c0-3.213-0.484-5.283-1.452-6.21s-2.935-1.39-5.9-1.39h-3.769v-8.465h26.567v68.83
			c0,3.213,0.495,5.282,1.483,6.21c0.988,0.927,2.944,1.39,5.869,1.39h3.77v8.465h-37.689v-8.465h3.769
			c2.966,0,4.933-0.463,5.9-1.39c0.968-0.928,1.452-2.997,1.452-6.21V37.997z"/>
		<path fill="#8F9DA2" d="M1628.204,106.827v-8.465h4.695c2.883,0,4.809-0.453,5.777-1.359c0.967-0.905,1.452-2.986,1.452-6.24
			V63.144c0-3.254-0.485-5.323-1.452-6.21c-0.969-0.886-2.895-1.328-5.777-1.328h-4.695V47.08h27.371v43.683
			c0,3.213,0.483,5.282,1.452,6.21c0.967,0.927,2.913,1.39,5.839,1.39h3.831v8.465H1628.204z M1637.349,30.273
			c0-2.636,0.896-4.859,2.688-6.673c1.792-1.812,4.005-2.719,6.642-2.719c2.678,0,4.933,0.907,6.766,2.719
			c1.833,1.813,2.75,4.037,2.75,6.673c0,2.637-0.917,4.882-2.75,6.735s-4.088,2.78-6.766,2.78c-2.595,0-4.799-0.927-6.611-2.78
			S1637.349,32.91,1637.349,30.273z"/>
		<path fill="#8F9DA2" d="M1686.963,84.583c-2.966-2.554-5.149-5.23-6.55-8.032c-1.4-2.801-2.101-5.828-2.101-9.083
			c0-6.878,2.595-12.377,7.785-16.497c5.19-4.118,12.172-6.178,20.945-6.178c3.871,0,7.517,0.494,10.937,1.482
			c3.418,0.988,6.569,2.451,9.453,4.387c1.854-1.977,3.778-3.449,5.777-4.418c1.997-0.967,4.17-1.451,6.519-1.451
			c4.365,0,7.795,1.133,10.287,3.397c2.492,2.267,3.738,5.355,3.738,9.269c0,2.637-0.783,4.799-2.348,6.487
			c-1.566,1.689-3.563,2.533-5.993,2.533c-2.39,0-4.356-0.72-5.901-2.162c-1.544-1.441-2.316-3.254-2.316-5.438
			c0-1.771,0.515-3.244,1.544-4.418s2.533-2.028,4.511-2.563c-0.741-0.577-1.463-1.02-2.162-1.329
			c-0.701-0.309-1.422-0.463-2.163-0.463c-1.442,0-2.853,0.453-4.232,1.359s-2.709,2.245-3.985,4.016
			c1.153,2.061,2.009,4.119,2.564,6.179c0.556,2.061,0.834,4.201,0.834,6.426c0,6.673-2.502,11.997-7.507,15.972
			c-5.005,3.976-11.771,5.963-20.297,5.963c-2.225,0-4.501-0.195-6.827-0.587c-2.328-0.392-4.687-0.958-7.075-1.699
			c-1.029,0.7-1.822,1.421-2.378,2.162c-0.557,0.741-0.835,1.442-0.835,2.101c0,1.606,0.618,2.75,1.854,3.43
			c1.236,0.68,3.378,1.02,6.426,1.02h17.301c9.639,0,16.672,1.39,21.1,4.17c4.428,2.781,6.643,7.178,6.643,13.191
			c0,6.55-3.08,11.555-9.237,15.015c-6.158,3.46-15.024,5.19-26.599,5.19c-10.504,0-18.547-1.277-24.128-3.831
			c-5.582-2.555-8.372-6.2-8.372-10.937c0-2.595,0.958-4.768,2.873-6.519s4.87-3.161,8.866-4.232
			c-3.296-0.824-5.829-2.224-7.6-4.201c-1.771-1.978-2.657-4.387-2.657-7.229c0-2.842,0.947-5.303,2.843-7.383
			C1680.392,87.601,1683.214,85.902,1686.963,84.583z M1705.684,109.978c-7.826,0-13.202,0.617-16.126,1.854
			c-2.925,1.235-4.387,3.356-4.387,6.364c0,2.924,1.616,5.097,4.851,6.518c3.232,1.422,8.145,2.132,14.735,2.132
			c7.084,0,12.357-0.782,15.817-2.348s5.19-3.914,5.19-7.044c0-2.802-1.339-4.748-4.017-5.839
			C1719.07,110.523,1713.716,109.978,1705.684,109.978z M1695.057,66.974c0,5.231,0.875,9.031,2.626,11.399
			c1.75,2.369,4.582,3.553,8.495,3.553c3.872,0,6.714-1.163,8.527-3.49c1.812-2.327,2.718-5.983,2.718-10.968
			c0-5.23-0.906-9.071-2.718-11.522c-1.813-2.45-4.655-3.677-8.527-3.677c-3.83,0-6.642,1.195-8.434,3.584
			C1695.952,58.243,1695.057,61.95,1695.057,66.974z"/>
		<path fill="#8F9DA2" d="M1756.658,106.827v-8.465h4.695c2.883,0,4.809-0.453,5.777-1.359c0.967-0.905,1.452-2.986,1.452-6.24
			V63.144c0-3.254-0.485-5.323-1.452-6.21c-0.969-0.886-2.895-1.328-5.777-1.328h-4.695V47.08h27.371v43.683
			c0,3.213,0.483,5.282,1.452,6.21c0.967,0.927,2.913,1.39,5.839,1.39h3.831v8.465H1756.658z M1765.803,30.273
			c0-2.636,0.896-4.859,2.688-6.673c1.792-1.812,4.005-2.719,6.642-2.719c2.678,0,4.933,0.907,6.766,2.719
			c1.833,1.813,2.75,4.037,2.75,6.673c0,2.637-0.917,4.882-2.75,6.735s-4.088,2.78-6.766,2.78c-2.595,0-4.799-0.927-6.611-2.78
			S1765.803,32.91,1765.803,30.273z"/>
		<path fill="#8F9DA2" d="M1801.576,76.984c0-9.721,3.068-17.517,9.206-23.387c6.138-5.869,14.293-8.804,24.468-8.804
			c10.215,0,18.402,2.945,24.561,8.835c6.157,5.891,9.236,13.676,9.236,23.355c0,9.639-3.079,17.383-9.236,23.231
			c-6.158,5.85-14.346,8.773-24.561,8.773c-10.175,0-18.33-2.924-24.468-8.773C1804.645,94.367,1801.576,86.623,1801.576,76.984z
			 M1818.815,76.984c0,7.703,1.358,13.46,4.077,17.27c2.719,3.811,6.837,5.715,12.357,5.715c5.52,0,9.659-1.915,12.419-5.746
			s4.14-9.577,4.14-17.238c0-7.744-1.38-13.541-4.14-17.393s-6.899-5.777-12.419-5.777c-5.479,0-9.587,1.926-12.326,5.777
			C1820.184,63.443,1818.815,69.24,1818.815,76.984z"/>
		<path fill="#8F9DA2" d="M1875.474,106.827v-8.465h4.201c2.883,0,4.798-0.453,5.746-1.359c0.947-0.905,1.421-2.986,1.421-6.24
			V63.144c0-3.254-0.474-5.323-1.421-6.21c-0.948-0.886-2.863-1.328-5.746-1.328h-4.201V47.08h26.691v10.503
			c3.295-4.118,6.683-7.207,10.164-9.268c3.48-2.06,7.013-3.09,10.597-3.09c6.878,0,11.821,1.689,14.828,5.067
			s4.511,9.021,4.511,16.929v23.541c0,3.254,0.483,5.335,1.452,6.24c0.967,0.906,2.893,1.359,5.776,1.359h3.708v8.465h-35.96v-8.465
			h2.533c2.883,0,4.809-0.453,5.776-1.359c0.968-0.905,1.452-2.986,1.452-6.24V67.221c0-4.407-0.731-7.558-2.193-9.453
			c-1.462-1.894-3.861-2.842-7.198-2.842c-4.778,0-8.548,1.812-11.307,5.437c-2.76,3.626-4.14,8.61-4.14,14.953v15.446
			c0,3.254,0.483,5.335,1.452,6.24c0.967,0.906,2.894,1.359,5.777,1.359h2.533v8.465H1875.474z"/>
		<path fill="#8F9DA2" d="M2086.907,77.602h9.763v2.409c0,9.475-2.081,16.734-6.241,21.78c-4.16,5.045-10.112,7.568-17.855,7.568
			c-3.173,0-6.386-0.598-9.639-1.792c-3.255-1.194-6.653-3.006-10.195-5.437c-4.119,2.431-8.166,4.242-12.141,5.437
			c-3.976,1.194-7.981,1.792-12.018,1.792c-8.321,0-15.252-2.482-20.791-7.445c-5.541-4.963-8.311-11.091-8.311-18.382
			c0-5.931,1.75-11.1,5.252-15.508c3.5-4.407,9.041-8.424,16.62-12.049c-1.153-2.595-2.008-5.106-2.563-7.538
			c-0.557-2.43-0.835-4.859-0.835-7.29c0-6.261,2.039-11.451,6.117-15.57s9.247-6.179,15.509-6.179
			c5.808,0,10.38,1.452,13.717,4.355c3.336,2.904,5.004,6.89,5.004,11.956c0,4.572-1.339,8.784-4.016,12.636
			c-2.678,3.852-6.776,7.445-12.296,10.781c2.472,4.243,5.056,8.332,7.755,12.265c2.697,3.935,5.508,7.734,8.434,11.399
			c3.006-2.966,5.364-5.9,7.074-8.805c1.709-2.903,2.564-5.406,2.564-7.507c0-1.07-0.566-1.822-1.699-2.255
			c-1.134-0.433-3.142-0.649-6.024-0.649h-3.831v-9.639h40.409v9.639h-4.449c-3.172,0-5.644,0.454-7.414,1.359
			c-1.771,0.907-3.398,2.596-4.881,5.066c-0.207,0.331-0.598,1.051-1.174,2.163c-3.831,7.044-8.28,13.49-13.347,19.339
			c1.483,1.524,3.007,2.647,4.572,3.367c1.565,0.722,3.192,1.082,4.882,1.082c3.871,0,6.766-1.462,8.681-4.388
			C2085.455,88.641,2086.577,83.987,2086.907,77.602z M2026.542,66.604c-3.09,1.729-5.376,3.666-6.858,5.808
			c-1.482,2.143-2.225,4.552-2.225,7.229c0,5.067,1.523,9.217,4.572,12.45c3.048,3.234,7.002,4.851,11.863,4.851
			c1.606,0,3.274-0.247,5.005-0.741c1.729-0.494,3.604-1.256,5.622-2.286c-3.296-3.872-6.395-8.021-9.299-12.45
			C2032.319,77.036,2029.425,72.083,2026.542,66.604z M2036.181,49.242c3.584-1.771,6.292-3.728,8.125-5.87
			c1.832-2.141,2.749-4.448,2.749-6.92c0-2.141-0.7-3.893-2.101-5.252s-3.234-2.039-5.499-2.039c-2.39,0-4.315,0.753-5.776,2.256
			c-1.463,1.504-2.194,3.49-2.194,5.962c0,1.771,0.402,3.677,1.205,5.716C2033.493,45.133,2034.656,47.182,2036.181,49.242z"/>
		<path fill="#8F9DA2" d="M2207.762,57.335c3.789-4.283,7.331-7.373,10.627-9.268c3.295-1.895,6.755-2.843,10.38-2.843
			c2.719,0,5.23,0.423,7.538,1.267c2.307,0.845,4.181,2.009,5.623,3.491c1.522,1.648,2.604,3.595,3.243,5.839
			c0.639,2.246,0.958,6.046,0.958,11.399v23.541c0,3.254,0.473,5.335,1.421,6.24c0.947,0.906,2.862,1.359,5.746,1.359h3.584v8.465
			h-34.539v-8.465h1.359c2.924,0,4.881-0.463,5.87-1.39c0.988-0.928,1.482-2.997,1.482-6.21V67.221c0-4.859-0.628-8.125-1.885-9.793
			s-3.49-2.502-6.703-2.502c-3.873,0-7.188,1.586-9.948,4.757c-2.76,3.173-4.14,7.127-4.14,11.863v19.216
			c0,3.254,0.484,5.335,1.452,6.24c0.968,0.906,2.894,1.359,5.777,1.359h1.545v8.465h-32.562v-8.465h1.421
			c2.924,0,4.881-0.463,5.869-1.39c0.989-0.928,1.483-2.997,1.483-6.21V67.221c0-4.859-0.64-8.125-1.916-9.793
			s-3.521-2.502-6.734-2.502c-3.872,0-7.178,1.586-9.917,4.757c-2.739,3.173-4.108,7.127-4.108,11.863v19.216
			c0,3.254,0.483,5.335,1.452,6.24c0.967,0.906,2.894,1.359,5.776,1.359h1.483v8.465h-35.156v-8.465h4.201
			c2.883,0,4.798-0.453,5.746-1.359c0.947-0.905,1.421-2.986,1.421-6.24V63.144c0-3.254-0.474-5.323-1.421-6.21
			c-0.948-0.886-2.863-1.328-5.746-1.328h-4.201V47.08h26.444v10.133c3.253-4.202,6.519-7.25,9.793-9.145s6.89-2.843,10.844-2.843
			c4.078,0,7.485,1.011,10.226,3.028C2204.291,50.272,2206.36,53.299,2207.762,57.335z"/>
		<path fill="#8F9DA2" d="M2311.562,85.449h10.628c-0.907,7.332-3.842,13.109-8.805,17.331c-4.964,4.222-11.317,6.333-19.062,6.333
			c-9.639,0-17.321-2.914-23.046-8.743c-5.726-5.828-8.589-13.624-8.589-23.386c0-9.639,2.894-17.413,8.682-23.324
			c5.786-5.91,13.438-8.866,22.953-8.866c9.186,0,16.188,2.853,21.008,8.557c4.819,5.706,7.229,13.995,7.229,24.869h-42.632
			c0.247,6.756,1.678,11.905,4.294,15.447c2.615,3.543,6.291,5.313,11.028,5.313c4.86,0,8.536-1.04,11.029-3.12
			C2308.771,93.78,2310.533,90.309,2311.562,85.449z M2305.816,69.26c-0.37-5.52-1.493-9.556-3.367-12.11
			c-1.875-2.553-4.624-3.83-8.248-3.83c-3.707,0-6.726,1.35-9.052,4.047c-2.328,2.698-3.862,6.663-4.604,11.894H2305.816z"/>
		<path fill="#8F9DA2" d="M2376.995,37.997c0-3.254-0.485-5.334-1.452-6.24c-0.969-0.906-2.895-1.359-5.777-1.359h-5.313v-8.465
			h27.865v68.83c0,3.254,0.484,5.335,1.452,6.24c0.968,0.906,2.894,1.359,5.777,1.359h3.646v8.465h-26.197v-10.38
			c-2.061,4.161-4.748,7.229-8.063,9.206c-3.316,1.978-7.425,2.966-12.326,2.966c-8.074,0-14.365-2.79-18.876-8.372
			c-4.511-5.581-6.766-13.418-6.766-23.51s2.255-17.938,6.766-23.541c4.511-5.602,10.802-8.402,18.876-8.402
			c4.859,0,8.948,0.999,12.265,2.996c3.314,1.998,6.023,5.098,8.125,9.299V37.997z M2348.141,77.107
			c0,7.168,1.194,12.522,3.583,16.064c2.389,3.544,6.014,5.314,10.875,5.314c4.448,0,7.96-1.895,10.534-5.685
			c2.574-3.789,3.862-9.021,3.862-15.694c0-6.673-1.288-11.883-3.862-15.632c-2.574-3.747-6.086-5.622-10.534-5.622
			c-4.902,0-8.537,1.751-10.905,5.252C2349.324,64.606,2348.141,69.94,2348.141,77.107z"/>
		<path fill="#8F9DA2" d="M2408.63,106.827v-8.465h4.695c2.883,0,4.809-0.453,5.777-1.359c0.967-0.905,1.452-2.986,1.452-6.24
			V63.144c0-3.254-0.485-5.323-1.452-6.21c-0.969-0.886-2.895-1.328-5.777-1.328h-4.695V47.08h27.371v43.683
			c0,3.213,0.483,5.282,1.452,6.21c0.967,0.927,2.913,1.39,5.839,1.39h3.831v8.465H2408.63z M2417.774,30.273
			c0-2.636,0.896-4.859,2.688-6.673c1.792-1.812,4.005-2.719,6.642-2.719c2.678,0,4.933,0.907,6.766,2.719
			c1.833,1.813,2.75,4.037,2.75,6.673c0,2.637-0.917,4.882-2.75,6.735s-4.088,2.78-6.766,2.78c-2.595,0-4.799-0.927-6.611-2.78
			S2417.774,32.91,2417.774,30.273z"/>
		<path fill="#8F9DA2" d="M2492.041,99.597c-2.513,3.255-5.438,5.654-8.773,7.198c-3.337,1.545-7.25,2.317-11.739,2.317
			c-5.313,0-9.66-1.524-13.037-4.572c-3.378-3.048-5.066-6.961-5.066-11.739c0-4.572,1.441-8.279,4.325-11.122
			c2.883-2.842,7.825-5.334,14.828-7.476c1.647-0.535,4.325-1.256,8.032-2.163c3.707-0.905,6.158-1.75,7.353-2.533
			c1.523-0.988,2.605-2.11,3.244-3.367c0.638-1.256,0.958-2.831,0.958-4.727c0-3.089-1.123-5.468-3.367-7.137
			c-2.246-1.668-5.469-2.502-9.67-2.502c-2.719,0-5.036,0.299-6.951,0.896c-1.915,0.598-3.614,1.535-5.098,2.812h0.433
			c2.472,0,4.418,0.608,5.839,1.823s2.132,2.914,2.132,5.097c0,2.432-0.813,4.387-2.44,5.87c-1.628,1.482-3.779,2.225-6.457,2.225
			c-2.966,0-5.396-0.917-7.291-2.75c-1.895-1.832-2.842-4.211-2.842-7.136c0-4.696,2.234-8.506,6.704-11.431
			c4.469-2.925,10.431-4.387,17.887-4.387c4.242,0,8.002,0.37,11.276,1.111c3.274,0.742,5.962,1.813,8.063,3.213
			c2.43,1.606,4.14,3.646,5.128,6.117s1.482,6.591,1.482,12.357v26.568c0,1.482,0.237,2.574,0.711,3.274
			c0.473,0.701,1.205,1.051,2.193,1.051c1.523,0,2.554-0.804,3.089-2.41s0.804-5.438,0.804-11.492h7.724v2.657
			c0,7.744-1.227,13.325-3.677,16.744c-2.451,3.418-6.457,5.128-12.018,5.128c-3.748,0-6.745-0.772-8.989-2.317
			C2494.584,105.251,2492.988,102.852,2492.041,99.597z M2491.794,75.563c-1.729,0.824-4.119,1.875-7.167,3.15
			c-9.392,4.078-14.088,8.26-14.088,12.543c0,2.308,0.68,4.089,2.039,5.345c1.359,1.257,3.295,1.885,5.809,1.885
			c4.118,0,7.383-1.391,9.793-4.171c2.409-2.78,3.614-6.621,3.614-11.523V75.563z"/>
	</g>
</g>
</svg>
