<?xml version="1.0" encoding="utf-8"?>
<!-- Generator: Adobe Illustrator 16.0.0, SVG Export Plug-In . SVG Version: 6.00 Build 0)  -->
<!DOCTYPE svg PUBLIC "-//W3C//DTD SVG 1.1//EN" "http://www.w3.org/Graphics/SVG/1.1/DTD/svg11.dtd">
<svg version="1.1" id="Layer_1" xmlns="http://www.w3.org/2000/svg" xmlns:xlink="http://www.w3.org/1999/xlink" x="0px" y="0px"
	 width="400px" height="400px" viewBox="0 0 400 400" enable-background="new 0 0 400 400" xml:space="preserve">
<path d="M377.924-0.001H22.077C9.88-0.001,0,9.881,0,22.076v355.848c0,12.192,9.88,22.077,22.077,22.077h191.576V245.1h-52.127
	v-60.369h52.127v-44.52c0-51.665,31.554-79.797,77.645-79.797c22.075,0,41.051,1.644,46.58,2.378v53.993l-31.966,0.015
	c-25.064,0-29.918,11.911-29.918,29.389v38.542h59.779l-7.785,60.369h-51.994v154.901h101.931c12.19,0,22.076-9.885,22.076-22.077
	V22.076C400,9.881,390.114-0.001,377.924-0.001z"/>
</svg>
