<?xml version="1.0" encoding="utf-8"?>
<!-- Generator: Adobe Illustrator 16.0.0, SVG Export Plug-In . SVG Version: 6.00 Build 0)  -->
<!DOCTYPE svg PUBLIC "-//W3C//DTD SVG 1.1//EN" "http://www.w3.org/Graphics/SVG/1.1/DTD/svg11.dtd">
<svg version="1.1" id="Layer_1" xmlns="http://www.w3.org/2000/svg" xmlns:xlink="http://www.w3.org/1999/xlink" x="0px" y="0px"
	 width="500px" height="500px" viewBox="0 0 500 500" enable-background="new 0 0 500 500" xml:space="preserve">
<rect fill="#FDCF0F" width="500" height="500"/>
<path fill="#346378" d="M237.453,145.155h1.394c27.868-41.802,49.468-63.402,87.086-63.402c44.593,0,84.307,25.779,84.307,76.637
	c0,31.354-18.816,58.522-52.948,58.522c-27.177,0-49.473-16.023-49.473-44.591c0-26.474,20.902-41.105,45.987-41.8
	c-7.668-8.36-18.812-9.754-29.268-9.754c-57.121,0-86.386,57.128-86.386,107.288v116.351c0,20.195,8.36,27.863,27.87,27.863h43.892
	v45.977H89.761V372.27h38.317c19.506,0,27.866-7.658,27.866-27.863V166.055c0-20.208-8.36-27.868-27.866-27.868H89.761v-45.98
	h147.697L237.453,145.155L237.453,145.155z"/>
</svg>
