<?xml version="1.0" encoding="utf-8"?>
<!-- Generator: Adobe Illustrator 16.0.0, SVG Export Plug-In . SVG Version: 6.00 Build 0)  -->
<!DOCTYPE svg PUBLIC "-//W3C//DTD SVG 1.1//EN" "http://www.w3.org/Graphics/SVG/1.1/DTD/svg11.dtd">
<svg version="1.1" id="Layer_1" xmlns="http://www.w3.org/2000/svg" xmlns:xlink="http://www.w3.org/1999/xlink" x="0px" y="0px"
	 width="400px" height="400px" viewBox="0 0 400 400" enable-background="new 0 0 400 400" xml:space="preserve">
<g>
	<path d="M398.797,117.54c-0.971-21.288-4.353-35.826-9.295-48.548c-5.112-13.151-11.95-24.306-23.069-35.425
		C355.313,22.449,344.16,15.61,331.008,10.5c-12.721-4.944-27.26-8.326-48.548-9.297C261.128,0.23,254.317,0,200.001,0
		c-54.317,0-61.129,0.23-82.46,1.203C96.253,2.174,81.714,5.556,68.992,10.5c-13.151,5.11-24.305,11.949-35.424,23.067
		C22.449,44.687,15.61,55.841,10.5,68.992c-4.944,12.722-8.325,27.26-9.296,48.548C0.23,138.872,0,145.683,0,200
		c0,54.316,0.23,61.127,1.204,82.459c0.971,21.288,4.352,35.827,9.296,48.548c5.11,13.152,11.949,24.306,23.068,35.425
		c11.119,11.118,22.272,17.957,35.424,23.068c12.722,4.943,27.261,8.325,48.549,9.296c21.331,0.974,28.143,1.204,82.46,1.204
		c54.316,0,61.127-0.23,82.459-1.204c21.288-0.971,35.827-4.353,48.548-9.296c13.152-5.111,24.306-11.95,35.425-23.068
		c11.119-11.119,17.957-22.272,23.069-35.425c4.942-12.721,8.324-27.26,9.295-48.548C399.771,261.127,400,254.316,400,200
		C400,145.683,399.771,138.872,398.797,117.54z M362.799,280.816c-0.89,19.5-4.147,30.09-6.887,37.138
		c-3.628,9.335-7.962,15.997-14.961,22.996c-6.998,6.998-13.661,11.333-22.996,14.961c-7.048,2.739-17.638,5.997-37.138,6.886
		c-21.086,0.962-27.41,1.167-80.816,1.167c-53.407,0-59.73-0.205-80.817-1.167c-19.5-0.889-30.09-4.146-37.138-6.886
		c-9.335-3.628-15.998-7.963-22.996-14.961c-6.998-6.999-11.333-13.661-14.961-22.996c-2.739-7.048-5.997-17.638-6.887-37.138
		c-0.962-21.089-1.166-27.415-1.166-80.816c0-53.402,0.204-59.729,1.166-80.817c0.89-19.5,4.147-30.09,6.887-37.138
		c3.628-9.335,7.962-15.997,14.961-22.996c6.998-6.998,13.661-11.332,22.996-14.961c7.048-2.738,17.638-5.997,37.138-6.886
		c21.089-0.963,27.414-1.167,80.817-1.167c53.401,0,59.728,0.204,80.816,1.167c19.5,0.889,30.09,4.147,37.138,6.886
		c9.335,3.629,15.998,7.963,22.996,14.961c6.999,6.999,11.333,13.661,14.961,22.996c2.739,7.048,5.997,17.638,6.887,37.138
		c0.962,21.089,1.166,27.415,1.166,80.817C363.965,253.401,363.761,259.728,362.799,280.816z"/>
	<path d="M200.001,97.297c-56.722,0-102.703,45.981-102.703,102.703s45.981,102.702,102.703,102.702S302.703,256.722,302.703,200
		S256.723,97.297,200.001,97.297z M200.001,266.666c-36.819,0-66.668-29.848-66.668-66.666c0-36.819,29.849-66.667,66.668-66.667
		c36.818,0,66.666,29.848,66.666,66.667C266.667,236.818,236.819,266.666,200.001,266.666z"/>
	<circle cx="306.762" cy="93.239" r="24"/>
</g>
</svg>
