<?xml version="1.0" encoding="utf-8"?>
<!-- Generator: Adobe Illustrator 16.0.0, SVG Export Plug-In . SVG Version: 6.00 Build 0)  -->
<!DOCTYPE svg PUBLIC "-//W3C//DTD SVG 1.1//EN" "http://www.w3.org/Graphics/SVG/1.1/DTD/svg11.dtd">
<svg version="1.1" id="Layer_1" xmlns="http://www.w3.org/2000/svg" xmlns:xlink="http://www.w3.org/1999/xlink" x="0px" y="0px"
	 width="791.743px" height="179.575px" viewBox="0 0 791.743 179.575" enable-background="new 0 0 791.743 179.575"
	 xml:space="preserve">
<g>
	<path fill="#346378" d="M10.451,69.945v-34.09H0v-8.686c5.965-1.001,10.373-3.45,13.225-7.349
		c2.853-3.896,4.539-9.937,5.062-18.124h8.556v24.883h17.438v9.274H26.583v35.986c0,3.092,0.348,5.172,1.045,6.236
		c0.696,1.066,1.959,1.602,3.788,1.602c2.263,0,3.831-1.066,4.702-3.201c0.871-2.133,1.306-6.486,1.306-13.061v-3.527h8.686
		c0.044,0.697,0.076,1.459,0.099,2.285c0.021,0.828,0.033,1.98,0.033,3.461c0,9.273-1.515,15.992-4.539,20.146
		c-3.027,4.158-7.914,6.238-14.662,6.238c-5.791,0-10.003-1.764-12.638-5.291C11.766,83.202,10.451,77.609,10.451,69.945z"/>
	<path fill="#346378" d="M66.16,16.98c0-3.396-0.522-5.584-1.567-6.562c-1.045-0.979-3.113-1.471-6.205-1.471h-3.461V0h27.299
		v37.684c3.439-4.312,7.021-7.565,10.744-9.764s7.499-3.3,11.331-3.3c7.228,0,12.419,1.786,15.576,5.355
		c3.156,3.57,4.735,9.535,4.735,17.895v24.885c0,3.395,0.521,5.584,1.566,6.561c1.045,0.98,3.113,1.471,6.205,1.471h3.723v8.947
		H98.162v-8.947h2.678c3.091,0,5.148-0.488,6.172-1.469c1.022-0.979,1.535-3.168,1.535-6.562V47.87c0-4.656-0.773-7.987-2.318-9.99
		c-1.546-2.002-4.061-3.004-7.543-3.004c-5.138,0-9.166,1.947-12.082,5.845c-2.917,3.896-4.376,9.307-4.376,16.229v15.807
		c0,3.395,0.522,5.584,1.567,6.561c1.045,0.98,3.113,1.471,6.205,1.471h2.678v8.947H54.928v-8.949h3.461
		c3.091,0,5.16-0.488,6.205-1.469c1.045-0.979,1.567-3.168,1.567-6.562V16.98H66.16z"/>
	<path fill="#346378" d="M193.905,67.138h11.232c-0.958,7.75-4.06,13.854-9.306,18.318c-5.248,4.463-11.963,6.691-20.148,6.691
		c-10.188,0-18.309-3.078-24.359-9.24c-6.054-6.158-9.078-14.398-9.078-24.719c0-10.188,3.058-18.407,9.176-24.656
		c6.117-6.247,14.205-9.372,24.263-9.372c9.708,0,17.111,3.017,22.205,9.047c5.094,6.029,7.642,14.793,7.642,26.286h-45.065
		c0.261,7.143,1.773,12.582,4.539,16.326c2.765,3.746,6.65,5.617,11.658,5.617c5.137,0,9.022-1.1,11.658-3.299
		C190.954,75.945,192.815,72.275,193.905,67.138z M187.831,50.027c-0.393-5.834-1.579-10.101-3.561-12.801
		c-1.98-2.699-4.888-4.049-8.719-4.049c-3.918,0-7.108,1.426-9.568,4.275c-2.46,2.854-4.082,7.043-4.864,12.573L187.831,50.027
		L187.831,50.027z"/>
	<path fill="#346378" d="M282.855,72.755c0,3.438,0.512,5.639,1.535,6.596c1.022,0.959,3.06,1.438,6.106,1.438h6.662v8.947h-42.518
		v-8.949h4.441c3.047,0,5.071-0.479,6.074-1.436c1.001-0.959,1.502-3.156,1.502-6.598V43.56c0-3.439-0.501-5.626-1.502-6.562
		c-1.002-0.938-3.027-1.404-6.074-1.404h-4.441V26.58h28.214v9.535c2.091-3.744,4.528-6.552,7.314-8.425
		c2.786-1.872,5.921-2.808,9.405-2.808c4.789,0,8.686,1.339,11.689,4.017s4.506,6.15,4.506,10.417c0,3.354-1.002,6.085-3.004,8.197
		c-2.003,2.111-4.616,3.168-7.837,3.168c-2.743,0-4.964-0.773-6.662-2.318c-1.697-1.545-2.547-3.538-2.547-5.976
		c0-2.221,0.696-4.104,2.09-5.649s3.417-2.688,6.074-3.429c-1.002-0.435-1.97-0.772-2.906-1.012s-1.796-0.359-2.58-0.359
		c-4.44,0-8.142,2.232-11.103,6.694c-2.961,4.463-4.441,10.178-4.441,17.143L282.855,72.755L282.855,72.755z"/>
	<path fill="#346378" d="M373.439,67.138h11.233c-0.958,7.75-4.06,13.854-9.306,18.318c-5.248,4.463-11.963,6.691-20.148,6.691
		c-10.188,0-18.309-3.078-24.36-9.24c-6.053-6.158-9.077-14.398-9.077-24.719c0-10.188,3.058-18.407,9.176-24.656
		c6.117-6.247,14.205-9.372,24.263-9.372c9.708,0,17.111,3.017,22.205,9.047c5.094,6.029,7.641,14.793,7.641,26.286h-45.062
		c0.261,7.143,1.772,12.582,4.539,16.326c2.765,3.746,6.649,5.617,11.658,5.617c5.137,0,9.022-1.1,11.657-3.299
		C370.49,75.945,372.35,72.275,373.439,67.138z M367.367,50.027c-0.393-5.834-1.579-10.101-3.561-12.801
		c-1.98-2.699-4.888-4.049-8.719-4.049c-3.918,0-7.108,1.426-9.568,4.275c-2.46,2.854-4.082,7.043-4.864,12.573L367.367,50.027
		L367.367,50.027z"/>
	<path fill="#346378" d="M417.719,89.734l-16.327-47.348c-0.872-2.438-1.873-4.182-3.004-5.227c-1.133-1.045-2.525-1.565-4.18-1.565
		h-3.918v-9.015h34.81v9.015h-2.155c-1.742,0-3.048,0.271-3.918,0.814c-0.872,0.545-1.306,1.385-1.306,2.517
		c0,0.608,0.098,1.394,0.294,2.351c0.196,0.958,0.511,2.09,0.947,3.396l9.86,29.128l10.711-30.37
		c0.306-0.784,0.533-1.535,0.688-2.253c0.152-0.718,0.229-1.381,0.229-1.992c0-1.262-0.479-2.177-1.437-2.743
		c-0.958-0.563-2.482-0.849-4.572-0.849h-3.2v-9.015h31.152v9.015h-3.331c-1.829,0-3.407,0.651-4.734,1.959
		c-1.328,1.306-2.473,3.353-3.43,6.139l-16.197,46.042H417.719z"/>
	<path fill="#346378" d="M518.754,67.138h11.23c-0.959,7.75-4.061,13.854-9.307,18.318c-5.248,4.463-11.963,6.691-20.149,6.691
		c-10.188,0-18.309-3.078-24.358-9.24c-6.055-6.158-9.078-14.398-9.078-24.719c0-10.188,3.058-18.407,9.176-24.656
		c6.117-6.247,14.205-9.372,24.263-9.372c9.708,0,17.112,3.017,22.206,9.047c5.094,6.029,7.643,14.793,7.643,26.286h-45.065
		c0.261,7.143,1.773,12.582,4.539,16.326c2.765,3.746,6.65,5.617,11.658,5.617c5.136,0,9.022-1.1,11.659-3.299
		C515.803,75.945,517.665,72.275,518.754,67.138z M512.68,50.027c-0.395-5.834-1.578-10.101-3.562-12.801
		c-1.979-2.699-4.887-4.049-8.718-4.049c-3.918,0-7.106,1.426-9.566,4.275c-2.46,2.854-4.082,7.043-4.865,12.573L512.68,50.027
		L512.68,50.027z"/>
	<path fill="#346378" d="M579.1,82.093c-2.656,3.438-5.748,5.977-9.273,7.607c-3.527,1.633-7.664,2.447-12.408,2.447
		c-5.617,0-10.213-1.611-13.781-4.832c-3.57-3.221-5.355-7.355-5.355-12.408c0-4.834,1.523-8.752,4.572-11.756
		c3.047-3.004,8.271-5.639,15.674-7.9c1.742-0.566,4.572-1.328,8.49-2.287c3.92-0.957,6.51-1.852,7.771-2.68
		c1.609-1.045,2.754-2.229,3.43-3.559c0.674-1.329,1.012-2.993,1.012-4.997c0-3.265-1.186-5.78-3.559-7.543
		c-2.373-1.764-5.779-2.645-10.223-2.645c-2.873,0-5.322,0.314-7.348,0.945c-2.023,0.632-3.82,1.623-5.387,2.974h0.457
		c2.609,0,4.67,0.643,6.172,1.927c1.502,1.285,2.252,3.081,2.252,5.388c0,2.57-0.859,4.636-2.578,6.205
		c-1.721,1.568-3.996,2.354-6.826,2.354c-3.135,0-5.703-0.971-7.705-2.906c-2.004-1.939-3.006-4.452-3.006-7.543
		c0-4.963,2.361-8.99,7.086-12.082c4.725-3.091,11.027-4.638,18.908-4.638c4.482,0,8.457,0.393,11.918,1.176
		c3.463,0.784,6.303,1.917,8.523,3.396c2.566,1.698,4.375,3.854,5.42,6.466c1.045,2.612,1.564,6.969,1.564,13.062v28.084
		c0,1.564,0.25,2.721,0.752,3.461c0.5,0.74,1.273,1.111,2.318,1.111c1.609,0,2.699-0.852,3.266-2.551
		c0.564-1.695,0.852-5.744,0.852-12.145h8.164v2.809c0,8.188-1.297,14.086-3.889,17.699s-6.822,5.42-12.701,5.42
		c-3.965,0-7.131-0.814-9.504-2.449C581.788,88.07,580.1,85.532,579.1,82.093z M578.838,56.687
		c-1.828,0.873-4.355,1.982-7.576,3.332c-9.926,4.311-14.891,8.73-14.891,13.258c0,2.438,0.719,4.32,2.152,5.648
		c1.439,1.328,3.482,1.992,6.143,1.992c4.354,0,7.805-1.471,10.352-4.408c2.547-2.939,3.82-6.998,3.82-12.182V56.687z"/>
	<path fill="#346378" d="M625.338,16.98c0-3.396-0.516-5.584-1.535-6.562c-1.023-0.979-3.105-1.471-6.236-1.471h-3.982V0h28.082
		v72.753c0,3.396,0.521,5.584,1.566,6.562s3.113,1.469,6.205,1.469h3.982v8.947h-39.838v-8.945h3.98
		c3.135,0,5.215-0.488,6.238-1.469c1.021-0.979,1.535-3.168,1.535-6.562V16.98H625.338z"/>
	<path fill="#346378" d="M711.61,67.138h11.232c-0.957,7.75-4.061,13.854-9.307,18.318c-5.248,4.463-11.963,6.691-20.146,6.691
		c-10.189,0-18.311-3.078-24.361-9.24c-6.053-6.158-9.078-14.398-9.078-24.719c0-10.188,3.062-18.407,9.18-24.656
		c6.113-6.247,14.205-9.372,24.262-9.372c9.709,0,17.111,3.017,22.205,9.047c5.094,6.029,7.643,14.793,7.643,26.286h-45.062
		c0.26,7.143,1.771,12.582,4.539,16.326c2.764,3.746,6.648,5.617,11.656,5.617c5.137,0,9.021-1.1,11.656-3.299
		C708.663,75.945,710.52,72.275,711.61,67.138z M705.538,50.027c-0.395-5.834-1.578-10.101-3.562-12.801
		c-1.979-2.699-4.887-4.049-8.719-4.049c-3.918,0-7.107,1.426-9.566,4.275c-2.461,2.854-4.082,7.043-4.867,12.573L705.538,50.027
		L705.538,50.027z"/>
	<path fill="#346378" d="M758.831,72.755c0,3.438,0.512,5.639,1.533,6.596c1.021,0.959,3.061,1.438,6.105,1.438h6.662v8.947h-42.518
		v-8.949h4.441c3.047,0,5.07-0.479,6.072-1.436c1.002-0.959,1.504-3.156,1.504-6.598V43.56c0-3.439-0.502-5.626-1.504-6.562
		c-1.002-0.937-3.025-1.404-6.072-1.404h-4.441V26.58h28.215v9.535c2.092-3.744,4.525-6.552,7.312-8.425
		c2.787-1.872,5.922-2.808,9.404-2.808c4.789,0,8.688,1.339,11.689,4.017c3.006,2.678,4.508,6.15,4.508,10.417
		c0,3.354-1.002,6.085-3.006,8.197c-2.002,2.111-4.613,3.168-7.836,3.168c-2.744,0-4.963-0.773-6.662-2.318
		c-1.697-1.545-2.547-3.538-2.547-5.976c0-2.221,0.695-4.104,2.09-5.649s3.418-2.688,6.074-3.429
		c-1.002-0.435-1.971-0.772-2.906-1.012c-0.938-0.239-1.797-0.359-2.578-0.359c-4.441,0-8.145,2.232-11.104,6.694
		c-2.963,4.463-4.441,10.178-4.441,17.143v16.98H758.831z"/>
</g>
<g>
	<path fill="#346378" d="M17.033,164.397c-1.108,1.436-2.398,2.494-3.869,3.175c-1.472,0.682-3.198,1.021-5.178,1.021
		c-2.343,0-4.26-0.672-5.75-2.016c-1.489-1.345-2.234-3.07-2.234-5.179c0-2.016,0.635-3.65,1.908-4.905
		c1.271-1.253,3.451-2.352,6.54-3.296c0.727-0.236,1.907-0.555,3.543-0.954c1.635-0.4,2.716-0.772,3.242-1.117
		c0.671-0.436,1.149-0.931,1.43-1.485c0.282-0.554,0.423-1.249,0.423-2.086c0-1.361-0.496-2.411-1.486-3.146
		c-0.99-0.736-2.411-1.104-4.265-1.104c-1.199,0-2.221,0.131-3.066,0.395c-0.844,0.264-1.594,0.677-2.249,1.24h0.191
		c1.09,0,1.949,0.268,2.575,0.804c0.627,0.536,0.94,1.286,0.94,2.249c0,1.072-0.359,1.934-1.076,2.589
		c-0.719,0.654-1.667,0.981-2.848,0.981c-1.309,0-2.38-0.404-3.216-1.212c-0.835-0.809-1.253-1.858-1.253-3.148
		c0-2.071,0.985-3.751,2.957-5.042c1.971-1.289,4.6-1.935,7.889-1.935c1.871,0,3.529,0.163,4.974,0.49
		c1.444,0.328,2.63,0.801,3.556,1.418c1.072,0.707,1.826,1.607,2.262,2.697s0.654,2.907,0.654,5.45v11.718
		c0,0.654,0.104,1.136,0.313,1.445c0.208,0.308,0.531,0.463,0.967,0.463c0.671,0,1.126-0.354,1.363-1.063
		c0.235-0.708,0.354-2.398,0.354-5.067h3.407v1.17c0,3.418-0.541,5.878-1.622,7.386c-1.081,1.509-2.848,2.262-5.3,2.262
		c-1.653,0-2.975-0.341-3.965-1.021C18.154,166.891,17.451,165.833,17.033,164.397z M16.924,153.797
		c-0.763,0.363-1.816,0.826-3.162,1.39c-4.142,1.798-6.213,3.643-6.213,5.531c0,1.019,0.3,1.804,0.899,2.357
		c0.599,0.555,1.452,0.831,2.562,0.831c1.816,0,3.256-0.613,4.319-1.84c1.063-1.226,1.594-2.92,1.594-5.082V153.797z"/>
	<path fill="#346378" d="M60.716,160.501c0,1.435,0.213,2.352,0.641,2.752c0.426,0.4,1.276,0.6,2.547,0.6h2.779v3.732h-17.74v-3.732
		h1.853c1.271,0,2.116-0.2,2.534-0.6c0.418-0.4,0.627-1.317,0.627-2.752V148.32c0-1.436-0.209-2.348-0.627-2.739
		c-0.417-0.391-1.262-0.585-2.534-0.585h-1.853v-3.761h11.772v3.978c0.873-1.562,1.889-2.734,3.052-3.515
		c1.163-0.781,2.47-1.172,3.923-1.172c1.998,0,3.625,0.559,4.878,1.677c1.253,1.116,1.88,2.565,1.88,4.346
		c0,1.399-0.418,2.539-1.253,3.42c-0.836,0.882-1.926,1.321-3.271,1.321c-1.144,0-2.07-0.321-2.779-0.967
		c-0.708-0.645-1.063-1.476-1.063-2.493c0-0.927,0.29-1.713,0.872-2.357c0.582-0.644,1.426-1.121,2.534-1.431
		c-0.418-0.181-0.823-0.321-1.213-0.422c-0.391-0.1-0.75-0.15-1.076-0.15c-1.853,0-3.397,0.933-4.633,2.793
		c-1.235,1.863-1.853,4.247-1.853,7.154L60.716,160.501L60.716,160.501z"/>
	<path fill="#346378" d="M98.512,158.157h4.688c-0.4,3.233-1.695,5.78-3.883,7.644c-2.189,1.862-4.992,2.792-8.407,2.792
		c-4.251,0-7.64-1.285-10.165-3.855c-2.525-2.569-3.788-6.008-3.788-10.313c0-4.252,1.277-7.681,3.829-10.288
		c2.553-2.607,5.928-3.911,10.125-3.911c4.051,0,7.14,1.259,9.266,3.774c2.125,2.517,3.188,6.173,3.188,10.969H84.561
		c0.108,2.979,0.739,5.25,1.894,6.812c1.153,1.563,2.774,2.345,4.864,2.345c2.144,0,3.765-0.459,4.864-1.377
		C97.282,161.831,98.058,160.301,98.512,158.157z M95.979,151.017c-0.164-2.435-0.659-4.214-1.485-5.341s-2.04-1.689-3.638-1.689
		c-1.635,0-2.966,0.595-3.992,1.784c-1.027,1.19-1.704,2.938-2.031,5.246H95.979L95.979,151.017z"/>
	<path fill="#346378" d="M116.988,167.585l-6.812-19.756c-0.363-1.019-0.781-1.745-1.253-2.181
		c-0.473-0.437-1.054-0.653-1.744-0.653h-1.636v-3.761h14.525v3.761h-0.899c-0.727,0-1.272,0.112-1.635,0.339
		c-0.363,0.229-0.545,0.579-0.545,1.05c0,0.256,0.041,0.582,0.123,0.981c0.082,0.4,0.213,0.873,0.396,1.417l4.114,12.154
		l4.469-12.672c0.128-0.328,0.222-0.641,0.287-0.94c0.063-0.3,0.095-0.575,0.095-0.831c0-0.526-0.2-0.908-0.6-1.145
		c-0.4-0.235-1.036-0.354-1.908-0.354h-1.335v-3.761h12.999v3.761h-1.39c-0.762,0-1.421,0.272-1.975,0.816
		c-0.554,0.546-1.031,1.399-1.431,2.562l-6.758,19.212H116.988z"/>
	<path fill="#346378" d="M137.427,167.585v-3.732h2.071c1.271,0,2.121-0.2,2.548-0.6c0.426-0.4,0.64-1.317,0.64-2.752V148.32
		c0-1.436-0.214-2.348-0.64-2.739c-0.427-0.391-1.277-0.585-2.548-0.585h-2.071v-3.761H149.5v19.267
		c0,1.416,0.213,2.329,0.641,2.737c0.426,0.409,1.285,0.614,2.576,0.614h1.689v3.732H137.427z M141.46,133.822
		c0-1.162,0.395-2.143,1.186-2.943c0.79-0.799,1.766-1.199,2.929-1.199c1.18,0,2.175,0.4,2.984,1.199
		c0.808,0.801,1.212,1.781,1.212,2.943c0,1.163-0.404,2.152-1.212,2.971c-0.809,0.817-1.804,1.227-2.984,1.227
		c-1.145,0-2.117-0.409-2.916-1.227C141.86,135.974,141.46,134.985,141.46,133.822z"/>
	<path fill="#346378" d="M178.794,158.157h4.687c-0.4,3.233-1.694,5.78-3.883,7.644c-2.189,1.862-4.992,2.792-8.407,2.792
		c-4.25,0-7.64-1.285-10.164-3.855c-2.525-2.569-3.788-6.008-3.788-10.313c0-4.252,1.276-7.681,3.829-10.288
		c2.553-2.607,5.928-3.911,10.124-3.911c4.051,0,7.14,1.259,9.266,3.774c2.125,2.517,3.188,6.173,3.188,10.969h-18.803
		c0.109,2.979,0.74,5.25,1.894,6.812c1.154,1.563,2.775,2.345,4.864,2.345c2.143,0,3.764-0.459,4.864-1.377
		C177.563,161.831,178.339,160.301,178.794,158.157z M176.26,151.017c-0.164-2.435-0.659-4.214-1.486-5.341
		c-0.826-1.127-2.04-1.689-3.638-1.689c-1.635,0-2.965,0.595-3.991,1.784c-1.027,1.19-1.704,2.938-2.031,5.246H176.26
		L176.26,151.017z"/>
	<path fill="#346378" d="M196.889,167.585l-6.322-19.375c-0.437-1.344-0.882-2.216-1.335-2.616c-0.455-0.399-1.1-0.599-1.935-0.599
		h-1.172v-3.762h13.815v3.762h-1.335c-0.654,0-1.122,0.104-1.403,0.312c-0.281,0.209-0.422,0.55-0.422,1.022
		c0,0.2,0.041,0.48,0.123,0.844c0.082,0.363,0.205,0.818,0.368,1.362l3.788,12.972l4.687-13.106c0.127-0.328,0.227-0.65,0.3-0.969
		c0.072-0.317,0.109-0.594,0.109-0.831c0-0.6-0.182-1.017-0.545-1.253c-0.364-0.235-1.018-0.354-1.962-0.354h-1.062v-3.762h13.489
		v3.762h-1.662c-0.599,0-1.041,0.1-1.322,0.3c-0.282,0.199-0.422,0.526-0.422,0.979c0,0.256,0.032,0.528,0.095,0.818
		c0.063,0.291,0.15,0.59,0.259,0.899l4.469,13.789l4.114-12.672c0.182-0.527,0.322-1.031,0.423-1.514
		c0.1-0.48,0.15-0.886,0.15-1.212c0-0.418-0.168-0.754-0.504-1.008c-0.337-0.256-0.768-0.383-1.295-0.383h-1.39v-3.761h11.609v3.761
		h-1.227c-0.708,0-1.294,0.264-1.757,0.79c-0.463,0.528-0.923,1.472-1.376,2.834l-6.295,18.967h-6.595l-4.742-14.743l-5.014,14.743
		L196.889,167.585L196.889,167.585z"/>
	<path fill="#346378" d="M250.573,154.424c0-4.287,1.353-7.726,4.061-10.315c2.706-2.589,6.303-3.883,10.791-3.883
		c4.505,0,8.116,1.299,10.832,3.896c2.716,2.599,4.074,6.033,4.074,10.302c0,4.251-1.358,7.666-4.074,10.246
		s-6.327,3.87-10.832,3.87c-4.488,0-8.084-1.29-10.791-3.87C251.926,162.09,250.573,158.675,250.573,154.424z M258.176,154.424
		c0,3.396,0.6,5.936,1.798,7.617c1.2,1.68,3.016,2.52,5.45,2.52s4.26-0.844,5.477-2.534c1.217-1.689,1.826-4.225,1.826-7.603
		c0-3.416-0.609-5.972-1.826-7.672c-1.217-1.698-3.042-2.547-5.477-2.547c-2.417,0-4.229,0.849-5.436,2.547
		C258.78,148.452,258.176,151.009,258.176,154.424z"/>
	<path fill="#346378" d="M288.179,145.212h-5.015v-3.924h5.015v-0.816c0-3.779,0.799-6.613,2.398-8.503
		c1.598-1.889,3.987-2.834,7.166-2.834c2.435,0,4.401,0.541,5.9,1.622c1.499,1.08,2.249,2.493,2.249,4.238
		c0,1.271-0.345,2.279-1.036,3.024c-0.69,0.745-1.617,1.116-2.779,1.116c-1.018,0-1.858-0.304-2.521-0.913
		c-0.664-0.607-0.995-1.385-0.995-2.33c0-0.78,0.214-1.438,0.64-1.975c0.427-0.536,1.013-0.904,1.758-1.104
		c-0.309-0.254-0.659-0.45-1.049-0.587c-0.392-0.135-0.822-0.203-1.295-0.203c-1.345,0-2.293,0.408-2.847,1.226
		c-0.555,0.817-0.832,2.253-0.832,4.307v3.733h5.695v3.922h-5.695v15.289c0,1.435,0.213,2.354,0.641,2.753
		c0.427,0.399,1.276,0.6,2.548,0.6h2.507v3.733h-17.467v-3.734h1.607c1.399,0,2.316-0.2,2.753-0.6
		c0.436-0.4,0.653-1.317,0.653-2.752V145.212L288.179,145.212z"/>
	<path fill="#346378" d="M333.225,160.501c0,1.435,0.213,2.352,0.64,2.752c0.427,0.4,1.276,0.6,2.548,0.6h2.779v3.732h-17.741
		v-3.732h1.854c1.271,0,2.116-0.2,2.534-0.6c0.418-0.4,0.627-1.317,0.627-2.752V148.32c0-1.436-0.209-2.348-0.627-2.739
		c-0.418-0.391-1.263-0.585-2.534-0.585h-1.854v-3.761h11.773v3.978c0.872-1.562,1.889-2.734,3.052-3.515
		c1.163-0.781,2.47-1.172,3.923-1.172c1.999,0,3.625,0.559,4.878,1.677c1.254,1.116,1.88,2.565,1.88,4.346
		c0,1.399-0.418,2.539-1.254,3.42c-0.835,0.882-1.926,1.321-3.27,1.321c-1.145,0-2.071-0.321-2.779-0.967
		c-0.708-0.645-1.063-1.476-1.063-2.493c0-0.927,0.291-1.713,0.873-2.357c0.581-0.644,1.426-1.121,2.534-1.431
		c-0.418-0.181-0.822-0.321-1.213-0.422c-0.391-0.1-0.749-0.15-1.076-0.15c-1.853,0-3.397,0.933-4.632,2.793
		c-1.235,1.863-1.853,4.247-1.853,7.154L333.225,160.501L333.225,160.501z"/>
	<path fill="#346378" d="M371.021,158.157h4.688c-0.4,3.233-1.695,5.78-3.884,7.644c-2.189,1.862-4.992,2.792-8.406,2.792
		c-4.252,0-7.641-1.285-10.165-3.855c-2.526-2.569-3.788-6.008-3.788-10.313c0-4.252,1.277-7.681,3.829-10.288
		c2.553-2.607,5.927-3.911,10.124-3.911c4.051,0,7.14,1.259,9.265,3.774c2.125,2.517,3.188,6.173,3.188,10.969H357.07
		c0.109,2.979,0.74,5.25,1.895,6.812c1.153,1.563,2.773,2.345,4.864,2.345c2.144,0,3.764-0.459,4.863-1.377
		C369.791,161.831,370.567,160.301,371.021,158.157z M368.487,151.017c-0.164-2.435-0.659-4.214-1.485-5.341
		c-0.827-1.127-2.04-1.689-3.638-1.689c-1.636,0-2.966,0.595-3.992,1.784c-1.027,1.19-1.703,2.938-2.03,5.246H368.487
		L368.487,151.017z"/>
	<path fill="#346378" d="M383.748,137.229c0-1.417-0.214-2.33-0.64-2.739c-0.427-0.408-1.295-0.613-2.603-0.613h-1.662v-3.732
		h11.718v30.357c0,1.416,0.218,2.329,0.654,2.737c0.436,0.409,1.298,0.614,2.588,0.614h1.662v3.732h-16.623v-3.732h1.662
		c1.308,0,2.175-0.205,2.602-0.614c0.427-0.408,0.641-1.321,0.641-2.737V137.229L383.748,137.229z"/>
	<path fill="#346378" d="M398.027,167.585v-3.732h2.071c1.272,0,2.122-0.2,2.548-0.6c0.427-0.4,0.641-1.317,0.641-2.752V148.32
		c0-1.436-0.214-2.348-0.641-2.739c-0.426-0.391-1.276-0.585-2.548-0.585h-2.071v-3.761H410.1v19.267
		c0,1.416,0.214,2.329,0.641,2.737c0.426,0.409,1.284,0.614,2.575,0.614h1.689v3.732H398.027z M402.06,133.822
		c0-1.162,0.396-2.143,1.187-2.943c0.79-0.799,1.767-1.199,2.93-1.199c1.18,0,2.175,0.4,2.983,1.199
		c0.809,0.801,1.213,1.781,1.213,2.943c0,1.163-0.405,2.152-1.213,2.971c-0.809,0.817-1.804,1.227-2.983,1.227
		c-1.145,0-2.117-0.409-2.916-1.227C402.46,135.974,402.06,134.985,402.06,133.822z"/>
	<path fill="#346378" d="M423.943,157.775c-1.309-1.126-2.271-2.306-2.889-3.541c-0.618-1.236-0.927-2.571-0.927-4.007
		c0-3.033,1.145-5.459,3.434-7.276c2.29-1.815,5.369-2.725,9.238-2.725c1.708,0,3.315,0.218,4.824,0.653
		c1.508,0.437,2.897,1.082,4.169,1.936c0.818-0.872,1.667-1.521,2.548-1.949c0.882-0.426,1.84-0.64,2.876-0.64
		c1.925,0,3.438,0.5,4.536,1.499c1.1,0.999,1.649,2.361,1.649,4.087c0,1.163-0.345,2.117-1.035,2.861
		c-0.691,0.745-1.572,1.117-2.644,1.117c-1.055,0-1.921-0.317-2.603-0.954c-0.681-0.636-1.021-1.435-1.021-2.397
		c0-0.782,0.228-1.431,0.681-1.948c0.454-0.519,1.117-0.896,1.989-1.131c-0.326-0.255-0.645-0.45-0.953-0.586
		c-0.309-0.137-0.627-0.205-0.954-0.205c-0.635,0-1.258,0.201-1.866,0.6c-0.609,0.399-1.195,0.991-1.758,1.771
		c0.508,0.908,0.886,1.817,1.131,2.725c0.245,0.91,0.367,1.854,0.367,2.836c0,2.941-1.104,5.29-3.311,7.043
		c-2.207,1.754-5.191,2.631-8.952,2.631c-0.981,0-1.985-0.087-3.012-0.26c-1.025-0.173-2.066-0.422-3.12-0.749
		c-0.454,0.31-0.804,0.627-1.049,0.954c-0.245,0.326-0.368,0.636-0.368,0.926c0,0.709,0.272,1.213,0.817,1.513
		s1.489,0.449,2.834,0.449h7.631c4.25,0,7.353,0.613,9.307,1.84c1.952,1.226,2.929,3.165,2.929,5.817
		c0,2.89-1.358,5.096-4.074,6.623c-2.717,1.525-6.627,2.288-11.731,2.288c-4.633,0-8.181-0.563-10.642-1.69
		c-2.462-1.126-3.692-2.733-3.692-4.822c0-1.146,0.422-2.104,1.268-2.876c0.844-0.772,2.146-1.394,3.909-1.866
		c-1.453-0.363-2.57-0.981-3.352-1.853c-0.781-0.872-1.172-1.936-1.172-3.189c0-1.253,0.418-2.338,1.253-3.256
		C421.044,159.107,422.29,158.357,423.943,157.775z M432.201,168.975c-3.452,0-5.824,0.273-7.113,0.818
		c-1.29,0.546-1.935,1.48-1.935,2.808c0,1.289,0.713,2.248,2.139,2.875c1.426,0.626,3.593,0.939,6.5,0.939
		c3.124,0,5.45-0.345,6.976-1.035s2.289-1.727,2.289-3.106c0-1.235-0.591-2.095-1.771-2.575
		C438.104,169.216,435.743,168.975,432.201,168.975z M427.513,150.008c0,2.308,0.386,3.984,1.157,5.028
		c0.772,1.046,2.021,1.567,3.747,1.567c1.708,0,2.962-0.514,3.761-1.539c0.799-1.026,1.199-2.64,1.199-4.838
		c0-2.306-0.4-4.001-1.199-5.083c-0.799-1.08-2.053-1.62-3.761-1.62c-1.689,0-2.929,0.526-3.72,1.581
		C427.908,146.157,427.513,147.792,427.513,150.008z"/>
	<path fill="#346378" d="M454.681,167.585v-3.732h2.071c1.272,0,2.122-0.2,2.549-0.6c0.426-0.4,0.64-1.317,0.64-2.752V148.32
		c0-1.436-0.214-2.348-0.64-2.739c-0.427-0.391-1.277-0.585-2.549-0.585h-2.071v-3.761h12.073v19.267
		c0,1.416,0.214,2.329,0.641,2.737c0.427,0.409,1.284,0.614,2.574,0.614h1.69v3.732H454.681z M458.715,133.822
		c0-1.162,0.395-2.143,1.186-2.943c0.79-0.799,1.767-1.199,2.93-1.199c1.181,0,2.176,0.4,2.983,1.199
		c0.809,0.801,1.213,1.781,1.213,2.943c0,1.163-0.405,2.152-1.213,2.971c-0.808,0.817-1.803,1.227-2.983,1.227
		c-1.145,0-2.117-0.409-2.916-1.227C459.115,135.974,458.715,134.985,458.715,133.822z"/>
	<path fill="#346378" d="M474.494,154.424c0-4.287,1.354-7.726,4.06-10.315c2.706-2.589,6.305-3.883,10.793-3.883
		c4.504,0,8.115,1.299,10.831,3.896c2.716,2.599,4.074,6.033,4.074,10.302c0,4.251-1.358,7.666-4.074,10.246
		s-6.327,3.87-10.831,3.87c-4.488,0-8.087-1.29-10.793-3.87S474.494,158.675,474.494,154.424z M482.096,154.424
		c0,3.396,0.6,5.936,1.799,7.617c1.199,1.68,3.017,2.52,5.451,2.52c2.433,0,4.259-0.844,5.477-2.534
		c1.217-1.689,1.826-4.225,1.826-7.603c0-3.416-0.609-5.972-1.826-7.672c-1.218-1.698-3.044-2.547-5.477-2.547
		c-2.417,0-4.229,0.849-5.437,2.547C482.7,148.452,482.096,151.009,482.096,154.424z"/>
	<path fill="#346378" d="M507.085,167.585v-3.732h1.854c1.271,0,2.116-0.2,2.534-0.6c0.418-0.4,0.627-1.317,0.627-2.752V148.32
		c0-1.436-0.209-2.348-0.627-2.739c-0.418-0.391-1.264-0.585-2.534-0.585h-1.854v-3.761h11.772v4.633
		c1.453-1.817,2.947-3.18,4.482-4.088c1.536-0.908,3.094-1.363,4.674-1.363c3.033,0,5.214,0.745,6.54,2.234
		c1.327,1.49,1.99,3.979,1.99,7.467v10.384c0,1.435,0.213,2.352,0.641,2.752c0.427,0.4,1.275,0.6,2.547,0.6h1.636v3.732h-15.86
		v-3.732h1.117c1.271,0,2.12-0.2,2.549-0.6c0.425-0.4,0.639-1.317,0.639-2.752v-10.384c0-1.942-0.321-3.333-0.966-4.168
		c-0.646-0.836-1.703-1.254-3.175-1.254c-2.108,0-3.771,0.8-4.988,2.397c-1.216,1.599-1.825,3.797-1.825,6.595v6.813
		c0,1.435,0.214,2.352,0.641,2.752s1.276,0.6,2.547,0.6h1.118v3.732H507.085L507.085,167.585z"/>
	<path fill="#346378" d="M600.337,154.697h4.308v1.062c0,4.179-0.919,7.38-2.754,9.604c-1.835,2.226-4.459,3.339-7.875,3.339
		c-1.4,0-2.816-0.264-4.251-0.79c-1.436-0.526-2.934-1.326-4.496-2.397c-1.817,1.071-3.604,1.871-5.355,2.397
		c-1.753,0.526-3.52,0.79-5.3,0.79c-3.671,0-6.727-1.095-9.17-3.283s-3.666-4.893-3.666-8.107c0-2.616,0.772-4.896,2.316-6.84
		s3.989-3.715,7.331-5.314c-0.51-1.144-0.886-2.253-1.131-3.324c-0.245-1.072-0.368-2.144-0.368-3.217
		c0-2.761,0.899-5.05,2.697-6.867c1.799-1.816,4.078-2.725,6.841-2.725c2.562,0,4.578,0.641,6.049,1.921
		c1.472,1.281,2.208,3.038,2.208,5.273c0,2.017-0.591,3.874-1.771,5.572c-1.181,1.699-2.988,3.283-5.423,4.755
		c1.09,1.872,2.229,3.675,3.42,5.409c1.19,1.736,2.431,3.411,3.72,5.028c1.326-1.308,2.366-2.603,3.121-3.884
		c0.754-1.281,1.131-2.384,1.131-3.312c0-0.471-0.251-0.804-0.75-0.994s-1.386-0.286-2.656-0.286h-1.689v-4.249h17.822v4.251h-1.962
		c-1.399,0-2.49,0.199-3.271,0.6c-0.782,0.399-1.499,1.145-2.153,2.234c-0.091,0.146-0.264,0.464-0.518,0.954
		c-1.689,3.105-3.652,5.949-5.886,8.529c0.653,0.673,1.326,1.168,2.016,1.485c0.69,0.318,1.408,0.477,2.154,0.477
		c1.706,0,2.983-0.644,3.828-1.935C599.698,159.566,600.193,157.513,600.337,154.697z M573.713,149.845
		c-1.362,0.763-2.371,1.617-3.024,2.562c-0.653,0.945-0.981,2.008-0.981,3.189c0,2.234,0.673,4.064,2.018,5.49
		s3.088,2.14,5.231,2.14c0.708,0,1.444-0.109,2.207-0.327c0.764-0.219,1.59-0.554,2.48-1.008c-1.453-1.707-2.821-3.539-4.102-5.491
		C576.262,154.446,574.986,152.262,573.713,149.845z M577.965,142.188c1.58-0.781,2.775-1.644,3.584-2.59
		c0.808-0.943,1.212-1.96,1.212-3.051c0-0.944-0.309-1.717-0.926-2.316c-0.618-0.6-1.426-0.899-2.425-0.899
		c-1.055,0-1.905,0.332-2.549,0.995c-0.646,0.664-0.967,1.54-0.967,2.629c0,0.782,0.177,1.623,0.531,2.521
		C576.78,140.375,577.293,141.28,577.965,142.188z"/>
	<path fill="#346378" d="M653.642,145.758c1.67-1.89,3.233-3.252,4.687-4.087c1.453-0.836,2.979-1.255,4.578-1.255
		c1.198,0,2.307,0.188,3.324,0.56c1.018,0.373,1.844,0.886,2.479,1.539c0.671,0.728,1.149,1.586,1.432,2.575
		c0.281,0.991,0.422,2.667,0.422,5.027v10.384c0,1.435,0.208,2.352,0.627,2.752c0.417,0.4,1.263,0.6,2.534,0.6h1.58v3.732h-15.233
		v-3.732h0.601c1.289,0,2.152-0.205,2.588-0.614c0.437-0.408,0.654-1.321,0.654-2.737v-10.384c0-2.143-0.277-3.583-0.831-4.318
		c-0.554-0.736-1.54-1.104-2.957-1.104c-1.708,0-3.171,0.699-4.388,2.098c-1.218,1.399-1.825,3.144-1.825,5.232v8.476
		c0,1.435,0.214,2.352,0.641,2.752s1.276,0.6,2.547,0.6h0.682v3.732h-14.36v-3.732h0.626c1.29,0,2.153-0.205,2.589-0.614
		c0.436-0.408,0.653-1.321,0.653-2.737v-10.384c0-2.143-0.281-3.583-0.844-4.318c-0.563-0.736-1.553-1.104-2.971-1.104
		c-1.708,0-3.166,0.699-4.373,2.098c-1.208,1.399-1.813,3.144-1.813,5.232v8.476c0,1.435,0.215,2.352,0.641,2.752
		c0.428,0.4,1.277,0.6,2.548,0.6h0.654v3.732h-15.506v-3.732h1.854c1.271,0,2.115-0.2,2.534-0.6c0.417-0.4,0.627-1.317,0.627-2.752
		V148.32c0-1.436-0.21-2.348-0.627-2.739c-0.419-0.391-1.264-0.585-2.534-0.585h-1.854v-3.761h11.663v4.469
		c1.435-1.854,2.875-3.197,4.319-4.032c1.445-0.836,3.039-1.255,4.783-1.255c1.799,0,3.301,0.445,4.51,1.336
		S653.023,143.977,653.642,145.758z"/>
	<path fill="#346378" d="M699.422,158.157h4.687c-0.399,3.233-1.694,5.78-3.884,7.644c-2.188,1.862-4.991,2.792-8.405,2.792
		c-4.251,0-7.641-1.285-10.165-3.855c-2.524-2.569-3.787-6.008-3.787-10.313c0-4.252,1.276-7.681,3.828-10.288
		c2.553-2.607,5.927-3.911,10.125-3.911c4.05,0,7.14,1.259,9.265,3.774c2.126,2.517,3.188,6.173,3.188,10.969H685.47
		c0.109,2.979,0.741,5.25,1.896,6.812c1.151,1.563,2.772,2.345,4.863,2.345c2.144,0,3.765-0.459,4.863-1.377
		C698.192,161.831,698.969,160.301,699.422,158.157z M696.888,151.017c-0.163-2.435-0.658-4.214-1.485-5.341
		s-2.039-1.689-3.638-1.689c-1.635,0-2.966,0.595-3.992,1.784c-1.027,1.19-1.703,2.938-2.031,5.246H696.888L696.888,151.017z"/>
	<path fill="#346378" d="M728.281,137.229c0-1.436-0.214-2.353-0.64-2.752c-0.428-0.399-1.277-0.601-2.548-0.601h-2.344v-3.732
		h12.291v30.357c0,1.434,0.212,2.352,0.641,2.752c0.425,0.399,1.275,0.6,2.547,0.6h1.608v3.732h-11.556v-4.578
		c-0.908,1.835-2.093,3.189-3.555,4.061c-1.463,0.872-3.275,1.308-5.437,1.308c-3.562,0-6.337-1.229-8.326-3.691
		c-1.988-2.462-2.983-5.918-2.983-10.369c0-4.452,0.995-7.913,2.983-10.384c1.989-2.47,4.765-3.706,8.326-3.706
		c2.143,0,3.946,0.44,5.408,1.321c1.464,0.882,2.658,2.249,3.584,4.102L728.281,137.229L728.281,137.229z M715.555,154.478
		c0,3.161,0.526,5.523,1.58,7.086s2.651,2.343,4.796,2.343c1.963,0,3.511-0.836,4.646-2.508c1.136-1.67,1.703-3.978,1.703-6.921
		s-0.567-5.241-1.703-6.895c-1.136-1.652-2.684-2.48-4.646-2.48c-2.162,0-3.766,0.772-4.81,2.317
		C716.077,148.965,715.555,151.317,715.555,154.478z"/>
	<path fill="#346378" d="M742.234,167.585v-3.732h2.07c1.271,0,2.122-0.2,2.548-0.6c0.428-0.4,0.641-1.317,0.641-2.752V148.32
		c0-1.436-0.213-2.348-0.641-2.739c-0.426-0.391-1.276-0.585-2.548-0.585h-2.07v-3.761h12.071v19.267
		c0,1.416,0.214,2.329,0.641,2.737c0.427,0.409,1.285,0.614,2.576,0.614h1.688v3.732H742.234z M746.267,133.822
		c0-1.162,0.394-2.143,1.186-2.943c0.79-0.799,1.767-1.199,2.929-1.199c1.182,0,2.175,0.4,2.984,1.199
		c0.808,0.801,1.212,1.781,1.212,2.943c0,1.163-0.404,2.152-1.212,2.971c-0.81,0.817-1.803,1.227-2.984,1.227
		c-1.144,0-2.115-0.409-2.915-1.227C746.666,135.974,746.267,134.985,746.267,133.822z"/>
	<path fill="#346378" d="M779.023,164.397c-1.108,1.436-2.398,2.494-3.87,3.175c-1.472,0.682-3.197,1.021-5.178,1.021
		c-2.343,0-4.261-0.672-5.75-2.016c-1.489-1.345-2.234-3.07-2.234-5.179c0-2.016,0.636-3.65,1.908-4.905
		c1.271-1.253,3.451-2.352,6.54-3.296c0.727-0.236,1.908-0.555,3.542-0.954c1.636-0.4,2.717-0.772,3.243-1.117
		c0.671-0.436,1.148-0.931,1.431-1.485c0.281-0.554,0.422-1.249,0.422-2.086c0-1.361-0.495-2.411-1.484-3.146
		c-0.991-0.736-2.412-1.104-4.265-1.104c-1.199,0-2.222,0.131-3.067,0.395c-0.844,0.264-1.594,0.677-2.247,1.24h0.19
		c1.091,0,1.948,0.268,2.575,0.804s0.94,1.286,0.94,2.249c0,1.072-0.358,1.934-1.075,2.589c-0.72,0.654-1.668,0.981-2.849,0.981
		c-1.309,0-2.381-0.404-3.215-1.212c-0.837-0.809-1.254-1.858-1.254-3.148c0-2.071,0.984-3.751,2.956-5.042
		c1.971-1.289,4.6-1.935,7.89-1.935c1.87,0,3.527,0.163,4.973,0.49c1.444,0.328,2.629,0.801,3.556,1.418
		c1.072,0.707,1.825,1.607,2.262,2.697s0.653,2.907,0.653,5.45v11.718c0,0.654,0.104,1.136,0.314,1.445
		c0.209,0.308,0.531,0.463,0.967,0.463c0.672,0,1.126-0.354,1.362-1.063c0.236-0.708,0.355-2.398,0.355-5.067h3.405v1.17
		c0,3.418-0.539,5.878-1.621,7.386c-1.081,1.509-2.847,2.262-5.3,2.262c-1.654,0-2.975-0.341-3.966-1.021
		C780.144,166.891,779.44,165.833,779.023,164.397z M778.914,153.797c-0.764,0.363-1.816,0.826-3.161,1.39
		c-4.142,1.798-6.214,3.643-6.214,5.531c0,1.019,0.3,1.804,0.9,2.357c0.599,0.555,1.452,0.831,2.562,0.831
		c1.816,0,3.256-0.613,4.318-1.84c1.064-1.226,1.595-2.92,1.595-5.082V153.797L778.914,153.797z"/>
</g>
</svg>
