<?xml version="1.0" encoding="utf-8"?>
<!-- Generator: Adobe Illustrator 16.0.0, SVG Export Plug-In . SVG Version: 6.00 Build 0)  -->
<!DOCTYPE svg PUBLIC "-//W3C//DTD SVG 1.1//EN" "http://www.w3.org/Graphics/SVG/1.1/DTD/svg11.dtd">
<svg version="1.1" id="Layer_1" xmlns="http://www.w3.org/2000/svg" xmlns:xlink="http://www.w3.org/1999/xlink" x="0px" y="0px"
	 width="825.828px" height="97.7px" viewBox="0 0 825.828 97.7" enable-background="new 0 0 825.828 97.7" xml:space="preserve">
<g>
	<g>
		<path d="M0,38.277v-8.978c14.535-0.998,18.24-13.823,19.522-26.933h8.835v26.505h18.81v9.405H28.785v42.038
			c0,2.851,1.567,4.704,5.415,4.704c4.417,0,6.127-2.424,6.127-8.124V64.211h9.405v11.971c0,14.961-8.265,21.518-19.522,21.518
			c-10.688,0-18.24-4.418-18.24-15.818V38.277H0L0,38.277z"/>
		<path d="M85.784,40.129h0.285c5.843-7.695,13.68-13.396,24.795-13.396c12.54,0,20.235,7.838,20.235,19.951v33.773
			c0,4.131,1.71,5.699,5.7,5.699h7.98v9.404h-41.611v-9.404h5.415c3.99,0,5.7-1.566,5.7-5.699V47.824
			c0-7.268-4.987-9.975-12.54-9.975c-7.41,0-15.96,7.838-15.96,20.378v22.23c0,4.131,1.71,5.699,5.7,5.699h5.558v9.404H55.146
			v-9.404h8.123c3.99,0,5.7-1.566,5.7-5.699V16.189c0-4.132-1.71-5.7-5.7-5.7h-8.123V1.084h30.638V40.129L85.784,40.129z"/>
		<path d="M169.857,63.926c-0.427,11.115,2.993,23.086,16.246,23.086c10.26,0,15.39-5.271,17.243-15.104h11.828
			C213.321,88.152,203.488,97.7,184.535,97.7c-22.087,0-33.773-12.398-33.773-35.482c0-20.806,13.396-35.483,33.061-35.483
			c23.371,0,33.203,20.948,31.635,37.192H169.857z M196.363,54.522c0.143-8.978-2.708-17.812-12.825-17.812
			c-9.69,0-13.252,8.835-13.68,17.812H196.363z"/>
	</g>
	<g>
		<path d="M299.58,39.702h0.285c5.7-8.55,10.118-12.968,17.813-12.968c9.12,0,17.243,5.273,17.243,15.675
			c0,6.413-3.848,11.97-10.83,11.97c-5.558,0-10.118-3.277-10.118-9.121c0-5.415,4.275-8.408,9.405-8.55
			c-1.567-1.71-3.847-1.995-5.985-1.995c-11.685,0-17.67,11.685-17.67,21.945v23.799c0,4.131,1.71,5.699,5.7,5.699h8.978v9.404
			h-45.03v-9.404h7.837c3.99,0,5.7-1.566,5.7-5.699v-36.48c0-4.133-1.71-5.7-5.7-5.7h-7.837v-9.405h30.21L299.58,39.702
			L299.58,39.702z"/>
		<path d="M359.857,63.926c-0.427,11.115,2.993,23.086,16.246,23.086c10.26,0,15.39-5.271,17.243-15.104h11.828
			C403.321,88.152,393.488,97.7,374.535,97.7c-22.087,0-33.773-12.398-33.773-35.482c0-20.806,13.396-35.483,33.061-35.483
			c23.371,0,33.203,20.948,31.635,37.192H359.857z M386.363,54.522c0.143-8.978-2.708-17.812-12.825-17.812
			c-9.69,0-13.252,8.835-13.68,17.812H386.363z"/>
		<path d="M447.068,38.277h-4.846c-1.853,0-3.277,1.425-3.277,3.42c0,0.998,0.714,3.562,1.712,6.84l10.116,31.635h0.285
			l10.974-31.635c1.142-3.278,1.709-5.843,1.709-6.84c0-1.995-1.425-3.42-3.276-3.42h-6.412v-9.405h31.637v9.405
			c-6.414,0.427-8.689,2.565-9.977,6.27l-18.24,51.017H439.09l-18.666-53.012c-0.998-2.993-2.422-4.275-9.264-4.275v-9.405h35.909
			L447.068,38.277L447.068,38.277z"/>
		<path d="M510.338,63.926c-0.428,11.115,2.992,23.086,16.244,23.086c10.26,0,15.391-5.271,17.244-15.104h11.825
			C553.801,88.152,543.969,97.7,525.016,97.7c-22.088,0-33.772-12.398-33.772-35.482c0-20.806,13.396-35.483,33.062-35.483
			c23.371,0,33.203,20.948,31.635,37.192H510.338z M536.842,54.522c0.144-8.978-2.707-17.812-12.824-17.812
			c-9.688,0-13.252,8.835-13.68,17.812H536.842z"/>
		<path d="M638.445,70.767v4.274c0,15.961-6.41,22.658-18.383,22.658c-7.125,0-13.252-2.992-14.393-10.545
			c-5.271,7.979-14.396,10.545-23.369,10.545c-11.115,0-19.812-5.273-19.812-18.098c0-27.646,42.754-14.25,42.754-34.343
			c0-9.12-7.695-10.83-15.248-10.83c-3.988,0-10.689,1.283-13.256,4.703c5.273-0.712,9.406,1.567,9.406,7.41
			c0,6.414-4.418,8.408-9.977,8.408c-6.127,0-10.262-4.703-10.262-10.544c0-14.535,17.389-17.67,28.645-17.67
			c19.238,0,27.504,8.693,27.504,20.663V82.31c0,3.135,1.283,4.702,3.42,4.702s3.852-1.994,3.852-10.83v-5.415H638.445z
			 M605.242,60.366l-15.105,6.84c-4.131,1.853-8.549,4.133-8.549,10.83c0,5.983,2.707,8.979,8.549,8.979
			c9.691,0,15.105-8.266,15.105-17.387V60.366z"/>
		<path d="M641.723,95.562v-9.403h6.98c3.986,0,5.697-1.568,5.697-5.701V16.189c0-4.132-1.711-5.7-5.697-5.7h-6.98V1.084h29.498
			v79.374c0,4.133,1.709,5.701,5.699,5.701h6.697v9.402L641.723,95.562L641.723,95.562z"/>
		<path d="M708.27,63.926c-0.428,11.115,2.992,23.086,16.244,23.086c10.26,0,15.393-5.271,17.242-15.104h11.828
			C751.732,88.152,741.898,97.7,722.947,97.7c-22.09,0-33.773-12.398-33.773-35.482c0-20.806,13.396-35.483,33.061-35.483
			c23.371,0,33.203,20.948,31.641,37.192H708.27z M734.773,54.522c0.146-8.978-2.707-17.812-12.822-17.812
			c-9.689,0-13.256,8.835-13.682,17.812H734.773z"/>
		<path d="M790.49,39.702h0.283c5.699-8.55,10.117-12.968,17.812-12.968c9.121,0,17.242,5.273,17.242,15.675
			c0,6.413-3.852,11.97-10.83,11.97c-5.562,0-10.117-3.277-10.117-9.121c0-5.415,4.27-8.408,9.406-8.55
			c-1.568-1.71-3.854-1.995-5.986-1.995c-11.686,0-17.67,11.685-17.67,21.945v23.799c0,4.131,1.711,5.699,5.701,5.699h8.977v9.404
			h-45.027v-9.404h7.838c3.986,0,5.697-1.566,5.697-5.699v-36.48c0-4.133-1.711-5.7-5.697-5.7h-7.838v-9.405h30.211v10.83H790.49z"
			/>
	</g>
</g>
</svg>
