<?xml version="1.0" encoding="utf-8"?>
<!-- Generator: Adobe Illustrator 16.0.0, SVG Export Plug-In . SVG Version: 6.00 Build 0)  -->
<!DOCTYPE svg PUBLIC "-//W3C//DTD SVG 1.1//EN" "http://www.w3.org/Graphics/SVG/1.1/DTD/svg11.dtd">
<svg version="1.1" id="Layer_1" xmlns="http://www.w3.org/2000/svg" xmlns:xlink="http://www.w3.org/1999/xlink" x="0px" y="0px"
	 width="791.743px" height="92.151px" viewBox="-109.974 3.782 791.743 92.151"
	 enable-background="new -109.974 3.782 791.743 92.151" xml:space="preserve">
<g>
	<path d="M-99.524,73.728V39.637h-10.45v-8.686c5.965-1.001,10.373-3.45,13.225-7.348c2.852-3.896,4.539-9.937,5.062-18.124h8.556
		v24.883h17.438v9.274h-17.699v35.986c0,3.092,0.348,5.171,1.045,6.236c0.696,1.067,1.959,1.601,3.788,1.601
		c2.263,0,3.831-1.066,4.702-3.2c0.871-2.133,1.306-6.487,1.306-13.062V63.67h8.686c0.043,0.697,0.076,1.46,0.098,2.286
		c0.021,0.827,0.033,1.98,0.033,3.461c0,9.273-1.514,15.991-4.539,20.147c-3.027,4.157-7.914,6.237-14.662,6.237
		c-5.791,0-10.003-1.764-12.637-5.29C-98.208,86.986-99.524,81.392-99.524,73.728z"/>
	<path d="M-43.815,20.763c0-3.396-0.522-5.584-1.567-6.563s-3.113-1.47-6.205-1.47h-3.461V3.782h27.299v37.684
		c3.439-4.311,7.021-7.565,10.744-9.764c3.723-2.198,7.499-3.299,11.331-3.299c7.227,0,12.419,1.786,15.576,5.355
		c3.156,3.57,4.735,9.535,4.735,17.895v24.884c0,3.396,0.522,5.584,1.567,6.562c1.045,0.979,3.113,1.47,6.205,1.47h3.723v8.947
		h-37.945V84.57h2.678c3.091,0,5.148-0.489,6.172-1.47c1.022-0.979,1.535-3.167,1.535-6.562V51.654c0-4.657-0.773-7.988-2.318-9.991
		c-1.546-2.002-4.061-3.004-7.543-3.004c-5.138,0-9.166,1.948-12.082,5.845c-2.917,3.896-4.376,9.307-4.376,16.229v15.806
		c0,3.396,0.522,5.584,1.567,6.562c1.045,0.979,3.113,1.47,6.205,1.47h2.678v8.947h-37.749V84.57h3.461
		c3.091,0,5.16-0.489,6.205-1.47c1.045-0.979,1.567-3.167,1.567-6.562V20.763H-43.815z"/>
	<path d="M83.93,70.92h11.233c-0.958,7.75-4.06,13.855-9.306,18.319c-5.248,4.462-11.963,6.692-20.148,6.692
		c-10.188,0-18.309-3.079-24.36-9.241c-6.053-6.159-9.078-14.399-9.078-24.719c0-10.188,3.058-18.406,9.176-24.655
		c6.117-6.247,14.205-9.372,24.263-9.372c9.708,0,17.111,3.016,22.205,9.046c5.094,6.03,7.641,14.793,7.641,26.286H50.491
		c0.261,7.143,1.773,12.583,4.539,16.327c2.765,3.745,6.65,5.617,11.658,5.617c5.137,0,9.023-1.1,11.658-3.299
		C80.979,79.727,82.841,76.058,83.93,70.92z M77.856,53.809c-0.392-5.834-1.579-10.101-3.56-12.801
		c-1.981-2.699-4.888-4.049-8.719-4.049c-3.918,0-7.108,1.426-9.568,4.276c-2.46,2.854-4.082,7.043-4.865,12.572L77.856,53.809
		L77.856,53.809z"/>
	<path d="M172.881,76.537c0,3.439,0.511,5.639,1.535,6.597c1.022,0.958,3.059,1.437,6.106,1.437h6.662v8.947h-42.517V84.57h4.441
		c3.047,0,5.071-0.479,6.074-1.437c1.001-0.958,1.502-3.156,1.502-6.597V47.343c0-3.439-0.501-5.626-1.502-6.562
		c-1.002-0.937-3.027-1.404-6.074-1.404h-4.441v-9.014h28.214v9.535c2.09-3.744,4.528-6.552,7.314-8.425
		c2.786-1.872,5.921-2.808,9.405-2.808c4.789,0,8.686,1.339,11.69,4.017s4.506,6.15,4.506,10.417c0,3.354-1.002,6.085-3.004,8.196
		c-2.003,2.112-4.616,3.168-7.837,3.168c-2.743,0-4.964-0.772-6.662-2.318c-1.698-1.545-2.547-3.537-2.547-5.976
		c0-2.221,0.696-4.104,2.09-5.649c1.393-1.545,3.417-2.688,6.074-3.429c-1.002-0.435-1.97-0.772-2.906-1.012
		c-0.937-0.239-1.796-0.359-2.58-0.359c-4.441,0-8.142,2.232-11.103,6.694c-2.961,4.463-4.441,10.178-4.441,17.144L172.881,76.537
		L172.881,76.537z"/>
	<path d="M263.465,70.92h11.233c-0.958,7.75-4.06,13.855-9.306,18.319c-5.248,4.462-11.963,6.692-20.148,6.692
		c-10.188,0-18.309-3.079-24.36-9.241c-6.053-6.159-9.078-14.399-9.078-24.719c0-10.188,3.058-18.406,9.176-24.655
		c6.117-6.247,14.205-9.372,24.263-9.372c9.708,0,17.111,3.016,22.205,9.046c5.094,6.03,7.641,14.793,7.641,26.286h-45.063
		c0.261,7.143,1.773,12.583,4.539,16.327c2.765,3.745,6.65,5.617,11.658,5.617c5.137,0,9.023-1.1,11.658-3.299
		C260.515,79.727,262.376,76.058,263.465,70.92z M257.392,53.809c-0.392-5.834-1.579-10.101-3.56-12.801
		c-1.981-2.699-4.888-4.049-8.719-4.049c-3.918,0-7.108,1.426-9.568,4.276c-2.46,2.854-4.082,7.043-4.865,12.572L257.392,53.809
		L257.392,53.809z"/>
	<path d="M307.745,93.517l-16.327-47.349c-0.872-2.438-1.873-4.181-3.004-5.226c-1.133-1.045-2.526-1.566-4.18-1.566h-3.918v-9.014
		h34.81v9.014h-2.155c-1.742,0-3.048,0.271-3.918,0.815c-0.872,0.545-1.306,1.384-1.306,2.516c0,0.609,0.098,1.394,0.294,2.351
		c0.196,0.958,0.511,2.09,0.947,3.396l9.861,29.128l10.711-30.369c0.305-0.784,0.533-1.535,0.687-2.253
		c0.152-0.718,0.229-1.381,0.229-1.992c0-1.262-0.479-2.177-1.437-2.743c-0.958-0.564-2.482-0.849-4.572-0.849h-3.2v-9.014h31.152
		v9.014h-3.331c-1.829,0-3.407,0.652-4.734,1.959c-1.329,1.306-2.473,3.353-3.43,6.139l-16.197,46.043H307.745z"/>
	<path d="M408.779,70.92h11.232c-0.959,7.75-4.061,13.855-9.307,18.319c-5.248,4.462-11.963,6.692-20.149,6.692
		c-10.188,0-18.309-3.079-24.359-9.241c-6.054-6.159-9.078-14.399-9.078-24.719c0-10.188,3.058-18.406,9.176-24.655
		c6.117-6.247,14.205-9.372,24.263-9.372c9.708,0,17.111,3.016,22.205,9.046s7.643,14.793,7.643,26.286H375.34
		c0.261,7.143,1.773,12.583,4.539,16.327c2.765,3.745,6.65,5.617,11.658,5.617c5.136,0,9.023-1.1,11.658-3.299
		C405.828,79.727,407.689,76.058,408.779,70.92z M402.705,53.809c-0.393-5.834-1.578-10.101-3.561-12.801
		c-1.98-2.699-4.887-4.049-8.718-4.049c-3.918,0-7.107,1.426-9.567,4.276c-2.46,2.854-4.082,7.043-4.865,12.572L402.705,53.809
		L402.705,53.809z"/>
	<path d="M469.125,85.875c-2.656,3.439-5.748,5.977-9.273,7.608c-3.527,1.633-7.664,2.448-12.408,2.448
		c-5.617,0-10.213-1.611-13.781-4.832c-3.57-3.222-5.355-7.357-5.355-12.409c0-4.833,1.523-8.751,4.572-11.756
		c3.047-3.004,8.271-5.638,15.674-7.901c1.742-0.565,4.572-1.327,8.49-2.286c3.92-0.957,6.51-1.851,7.771-2.679
		c1.609-1.045,2.754-2.229,3.43-3.559c0.674-1.329,1.012-2.993,1.012-4.997c0-3.265-1.186-5.78-3.559-7.543
		c-2.373-1.764-5.779-2.645-10.223-2.645c-2.873,0-5.322,0.315-7.348,0.946c-2.023,0.632-3.82,1.623-5.387,2.973h0.457
		c2.611,0,4.67,0.643,6.172,1.927c1.502,1.285,2.252,3.081,2.252,5.388c0,2.57-0.859,4.637-2.578,6.205
		c-1.721,1.567-3.996,2.352-6.826,2.352c-3.135,0-5.703-0.969-7.705-2.906c-2.004-1.938-3.006-4.451-3.006-7.543
		c0-4.963,2.361-8.99,7.086-12.082c4.725-3.091,11.027-4.637,18.908-4.637c4.482,0,8.457,0.392,11.918,1.175
		c3.463,0.784,6.303,1.917,8.523,3.396c2.568,1.698,4.375,3.854,5.42,6.466c1.045,2.612,1.566,6.968,1.566,13.062v28.083
		c0,1.566,0.25,2.722,0.752,3.462c0.5,0.74,1.273,1.11,2.318,1.11c1.609,0,2.699-0.851,3.266-2.549
		c0.564-1.696,0.85-5.746,0.85-12.146h8.164v2.809c0,8.188-1.297,14.086-3.887,17.699c-2.592,3.613-6.824,5.42-12.703,5.42
		c-3.963,0-7.129-0.815-9.502-2.448C471.812,91.852,470.125,89.316,469.125,85.875z M468.863,60.47
		c-1.828,0.872-4.354,1.982-7.576,3.331c-9.926,4.311-14.891,8.73-14.891,13.258c0,2.438,0.719,4.321,2.154,5.649
		c1.438,1.328,3.482,1.992,6.141,1.992c4.354,0,7.805-1.471,10.352-4.409s3.82-6.998,3.82-12.181V60.47z"/>
	<path d="M515.363,20.763c0-3.396-0.514-5.584-1.535-6.563c-1.023-0.979-3.104-1.47-6.236-1.47h-3.982V3.782h28.082v72.754
		c0,3.396,0.521,5.584,1.566,6.562c1.045,0.979,3.113,1.47,6.205,1.47h3.982v8.947h-39.838V84.57h3.982
		c3.135,0,5.215-0.489,6.238-1.47c1.021-0.979,1.535-3.167,1.535-6.562V20.763L515.363,20.763z"/>
	<path d="M601.636,70.92h11.232c-0.957,7.75-4.061,13.855-9.307,18.319c-5.248,4.462-11.963,6.692-20.146,6.692
		c-10.189,0-18.311-3.079-24.361-9.241c-6.053-6.159-9.078-14.399-9.078-24.719c0-10.188,3.061-18.406,9.178-24.655
		c6.115-6.247,14.205-9.372,24.262-9.372c9.709,0,17.111,3.016,22.205,9.046s7.643,14.793,7.643,26.286h-45.062
		c0.26,7.143,1.771,12.583,4.539,16.327c2.764,3.745,6.648,5.617,11.656,5.617c5.137,0,9.021-1.1,11.656-3.299
		C598.687,79.727,600.546,76.058,601.636,70.92z M595.562,53.809c-0.393-5.834-1.578-10.101-3.561-12.801
		c-1.98-2.699-4.887-4.049-8.719-4.049c-3.918,0-7.107,1.426-9.566,4.276c-2.461,2.854-4.082,7.043-4.867,12.572L595.562,53.809
		L595.562,53.809z"/>
	<path d="M648.855,76.537c0,3.439,0.512,5.639,1.535,6.597c1.021,0.958,3.059,1.437,6.105,1.437h6.662v8.947H620.64V84.57h4.441
		c3.047,0,5.07-0.479,6.072-1.437s1.504-3.156,1.504-6.597V47.343c0-3.439-0.502-5.626-1.504-6.562s-3.025-1.404-6.072-1.404h-4.441
		v-9.014h28.213v9.535c2.092-3.744,4.527-6.552,7.314-8.425c2.787-1.872,5.922-2.808,9.404-2.808c4.789,0,8.688,1.339,11.689,4.017
		c3.006,2.678,4.508,6.15,4.508,10.417c0,3.354-1.002,6.085-3.006,8.196c-2.002,2.112-4.613,3.168-7.836,3.168
		c-2.744,0-4.963-0.772-6.662-2.318c-1.697-1.545-2.547-3.537-2.547-5.976c0-2.221,0.695-4.104,2.09-5.649s3.418-2.688,6.074-3.429
		c-1.002-0.435-1.971-0.772-2.906-1.012c-0.938-0.239-1.797-0.359-2.578-0.359c-4.441,0-8.145,2.232-11.104,6.694
		c-2.963,4.463-4.441,10.178-4.441,17.144v16.979H648.855z"/>
</g>
</svg>
