<?xml version="1.0" encoding="utf-8"?>
<!-- Generator: Adobe Illustrator 16.0.0, SVG Export Plug-In . SVG Version: 6.00 Build 0)  -->
<!DOCTYPE svg PUBLIC "-//W3C//DTD SVG 1.1//EN" "http://www.w3.org/Graphics/SVG/1.1/DTD/svg11.dtd">
<svg version="1.1" id="Layer_1" xmlns="http://www.w3.org/2000/svg" xmlns:xlink="http://www.w3.org/1999/xlink" x="0px" y="0px"
	 width="556.458px" height="117.11px" viewBox="0 63.099 556.458 117.11" enable-background="new 0 63.099 556.458 117.11"
	 xml:space="preserve">
<g>
	<path d="M0,76.001v-3.114c5.042-0.346,6.328-4.796,6.772-9.344h3.065v9.195h6.525v3.262H9.986v14.583
		c0,0.989,0.543,1.632,1.879,1.632c1.532,0,2.125-0.841,2.125-2.819v-4.399h3.262v4.152c0,5.189-2.867,7.465-6.772,7.465
		c-3.708,0-6.328-1.532-6.328-5.487V76.001H0L0,76.001z"/>
	<path d="M29.76,76.644h0.099c2.027-2.669,4.746-4.647,8.602-4.647c4.351,0,7.02,2.719,7.02,6.921v11.717
		c0,1.433,0.593,1.977,1.978,1.977h2.769v3.264H35.791v-3.264h1.879c1.384,0,1.977-0.543,1.977-1.977V79.313
		c0-2.521-1.73-3.46-4.35-3.46c-2.571,0-5.537,2.719-5.537,7.069v7.712c0,1.433,0.593,1.977,1.978,1.977h1.928v3.264H19.131v-3.264
		h2.818c1.384,0,1.977-0.543,1.977-1.977V68.339c0-1.433-0.593-1.977-1.977-1.977h-2.818v-3.263H29.76V76.644z"/>
	<path d="M58.926,84.9c-0.148,3.856,1.038,8.008,5.636,8.008c3.56,0,5.339-1.829,5.982-5.24h4.104
		c-0.643,5.635-4.054,8.948-10.629,8.948c-7.662,0-11.716-4.301-11.716-12.31c0-7.218,4.647-12.309,11.47-12.309
		c8.107,0,11.519,7.267,10.974,12.902H58.926z M68.121,81.637c0.049-3.115-0.939-6.179-4.449-6.179
		c-3.362,0-4.597,3.065-4.746,6.179H68.121z"/>
</g>
<g>
	<path d="M0,76.001v-3.114c5.042-0.346,6.328-4.796,6.772-9.344h3.065v9.195h6.525v3.262H9.986v14.583
		c0,0.989,0.543,1.632,1.879,1.632c1.532,0,2.125-0.841,2.125-2.819v-4.399h3.262v4.152c0,5.189-2.867,7.465-6.772,7.465
		c-3.708,0-6.328-1.532-6.328-5.487V76.001H0L0,76.001z"/>
	<path d="M29.76,76.644h0.099c2.027-2.669,4.746-4.647,8.602-4.647c4.351,0,7.02,2.719,7.02,6.921v11.717
		c0,1.433,0.593,1.977,1.978,1.977h2.769v3.264H35.791v-3.264h1.879c1.384,0,1.977-0.543,1.977-1.977V79.313
		c0-2.521-1.73-3.46-4.35-3.46c-2.571,0-5.537,2.719-5.537,7.069v7.712c0,1.433,0.593,1.977,1.978,1.977h1.928v3.264H19.131v-3.264
		h2.818c1.384,0,1.977-0.543,1.977-1.977V68.339c0-1.433-0.593-1.977-1.977-1.977h-2.818v-3.263H29.76V76.644z"/>
	<path d="M58.926,84.9c-0.148,3.856,1.038,8.008,5.636,8.008c3.56,0,5.339-1.829,5.982-5.24h4.104
		c-0.643,5.635-4.054,8.948-10.629,8.948c-7.662,0-11.716-4.301-11.716-12.31c0-7.218,4.647-12.309,11.47-12.309
		c8.107,0,11.519,7.267,10.974,12.902H58.926z M68.121,81.637c0.049-3.115-0.939-6.179-4.449-6.179
		c-3.362,0-4.597,3.065-4.746,6.179H68.121z"/>
</g>
<path d="M30.209,122.211h0.285c5.7-8.55,10.118-12.968,17.812-12.968c9.12,0,17.243,5.272,17.243,15.675
	c0,6.413-3.848,11.97-10.83,11.97c-5.558,0-10.118-3.277-10.118-9.12c0-5.415,4.275-8.407,9.405-8.55
	c-1.567-1.71-3.847-1.995-5.985-1.995c-11.685,0-17.67,11.685-17.67,21.945v23.798c0,4.132,1.71,5.7,5.7,5.7h8.979v9.404H0v-9.404
	h7.837c3.99,0,5.7-1.567,5.7-5.7v-36.48c0-4.133-1.71-5.699-5.7-5.699H0v-9.405h30.21L30.209,122.211L30.209,122.211z"/>
<path d="M90.487,146.436c-0.428,11.115,2.992,23.085,16.245,23.085c10.261,0,15.391-5.271,17.243-15.104h11.828
	c-1.853,16.244-11.686,25.792-30.639,25.792c-22.087,0-33.773-12.398-33.773-35.483c0-20.806,13.396-35.482,33.062-35.482
	c23.371,0,33.203,20.947,31.635,37.192H90.487z M116.993,137.03c0.143-8.978-2.708-17.812-12.825-17.812
	c-9.69,0-13.252,8.835-13.68,17.812H116.993z"/>
<path d="M177.698,120.786h-4.847c-1.852,0-3.276,1.425-3.276,3.42c0,0.998,0.714,3.562,1.712,6.84l10.116,31.635h0.284
	l10.975-31.635c1.141-3.278,1.709-5.844,1.709-6.84c0-1.995-1.425-3.42-3.277-3.42h-6.412v-9.405h31.638v9.405
	c-6.414,0.427-8.69,2.564-9.978,6.27l-18.24,51.017h-18.383l-18.666-53.012c-0.998-2.993-2.422-4.274-9.263-4.274v-9.405h35.909
	L177.698,120.786L177.698,120.786z"/>
<path d="M240.967,146.436c-0.428,11.115,2.992,23.085,16.244,23.085c10.26,0,15.391-5.271,17.244-15.104h11.825
	c-1.851,16.244-11.684,25.792-30.637,25.792c-22.088,0-33.771-12.398-33.771-35.483c0-20.806,13.396-35.482,33.061-35.482
	c23.372,0,33.204,20.947,31.636,37.192H240.967z M267.471,137.03c0.144-8.978-2.707-17.812-12.824-17.812
	c-9.688,0-13.252,8.835-13.68,17.812H267.471z"/>
<path d="M369.075,153.276v4.274c0,15.96-6.411,22.658-18.383,22.658c-7.125,0-13.252-2.993-14.393-10.545
	c-5.271,7.979-14.396,10.545-23.369,10.545c-11.115,0-19.812-5.273-19.812-18.099c0-27.646,42.753-14.25,42.753-34.343
	c0-9.12-7.694-10.829-15.248-10.829c-3.987,0-10.688,1.282-13.255,4.702c5.273-0.712,9.406,1.567,9.406,7.41
	c0,6.413-4.418,8.408-9.977,8.408c-6.127,0-10.261-4.703-10.261-10.545c0-14.535,17.388-17.671,28.644-17.671
	c19.238,0,27.504,8.693,27.504,20.664v34.912c0,3.135,1.283,4.701,3.42,4.701s3.851-1.994,3.851-10.83v-5.414H369.075z
	 M335.872,142.874l-15.105,6.84c-4.131,1.854-8.549,4.133-8.549,10.83c0,5.984,2.707,8.979,8.549,8.979
	c9.691,0,15.105-8.266,15.105-17.386V142.874z"/>
<path d="M372.352,178.07v-9.404h6.981c3.987,0,5.698-1.567,5.698-5.7V98.698c0-4.133-1.711-5.7-5.698-5.7h-6.981v-9.405h29.498
	v79.374c0,4.132,1.709,5.7,5.699,5.7h6.697v9.403H372.352L372.352,178.07z"/>
<path d="M438.899,146.436c-0.428,11.115,2.992,23.085,16.244,23.085c10.26,0,15.393-5.271,17.242-15.104h11.828
	c-1.852,16.244-11.686,25.792-30.637,25.792c-22.09,0-33.773-12.398-33.773-35.483c0-20.806,13.396-35.482,33.061-35.482
	c23.371,0,33.203,20.947,31.639,37.192H438.899z M465.403,137.03c0.146-8.978-2.707-17.812-12.822-17.812
	c-9.689,0-13.256,8.835-13.682,17.812H465.403z"/>
<path d="M521.12,122.211h0.283c5.699-8.55,10.117-12.968,17.812-12.968c9.121,0,17.242,5.272,17.242,15.675
	c0,6.413-3.85,11.97-10.83,11.97c-5.561,0-10.117-3.277-10.117-9.12c0-5.415,4.271-8.407,9.406-8.55
	c-1.568-1.71-3.852-1.995-5.986-1.995c-11.686,0-17.67,11.685-17.67,21.945v23.798c0,4.132,1.711,5.7,5.701,5.7h8.977v9.404h-45.027
	v-9.404h7.838c3.986,0,5.697-1.567,5.697-5.7v-36.48c0-4.133-1.711-5.699-5.697-5.699h-7.838v-9.405h30.211v10.83H521.12z"/>
</svg>
