<?xml version="1.0" encoding="utf-8"?>
<!-- Generator: Adobe Illustrator 16.0.0, SVG Export Plug-In . SVG Version: 6.00 Build 0)  -->
<!DOCTYPE svg PUBLIC "-//W3C//DTD SVG 1.1//EN" "http://www.w3.org/Graphics/SVG/1.1/DTD/svg11.dtd">
<svg version="1.1" id="Layer_1" xmlns="http://www.w3.org/2000/svg" xmlns:xlink="http://www.w3.org/1999/xlink" x="0px" y="0px"
	 width="825.828px" height="97.7px" viewBox="-266.509 0 825.828 97.7" enable-background="new -266.509 0 825.828 97.7"
	 xml:space="preserve">
<g>
	<path d="M-266.509,38.277v-8.978c14.535-0.998,18.24-13.823,19.522-26.933h8.835v26.505h18.81v9.405h-18.382v42.038
		c0,2.85,1.567,4.704,5.415,4.704c4.417,0,6.127-2.424,6.127-8.124V64.212h9.405v11.97c0,14.961-8.265,21.518-19.522,21.518
		c-10.688,0-18.24-4.418-18.24-15.818V38.277H-266.509L-266.509,38.277z"/>
	<path d="M-180.725,40.129h0.285c5.843-7.695,13.68-13.396,24.795-13.396c12.54,0,20.235,7.838,20.235,19.951v33.773
		c0,4.132,1.71,5.7,5.7,5.7h7.98v9.404h-41.611v-9.404h5.415c3.99,0,5.7-1.567,5.7-5.7V47.824c0-7.268-4.987-9.975-12.54-9.975
		c-7.41,0-15.96,7.838-15.96,20.378v22.23c0,4.132,1.71,5.7,5.7,5.7h5.558v9.404h-41.895v-9.404h8.123c3.99,0,5.7-1.567,5.7-5.7
		V16.189c0-4.132-1.71-5.7-5.7-5.7h-8.123V1.084h30.638V40.129z"/>
	<path d="M-96.652,63.927c-0.427,11.115,2.993,23.085,16.246,23.085c10.26,0,15.39-5.271,17.243-15.104h11.828
		C-53.188,88.152-63.021,97.7-81.974,97.7c-22.087,0-33.773-12.398-33.773-35.483c0-20.806,13.396-35.483,33.061-35.483
		c23.371,0,33.203,20.948,31.635,37.193H-96.652z M-70.146,54.522c0.143-8.978-2.708-17.812-12.825-17.812
		c-9.69,0-13.252,8.835-13.68,17.812H-70.146z"/>
</g>
<g>
	<path d="M33.071,39.702h0.285c5.7-8.55,10.118-12.968,17.813-12.968c9.12,0,17.243,5.273,17.243,15.675
		c0,6.413-3.848,11.97-10.83,11.97c-5.558,0-10.118-3.277-10.118-9.12c0-5.415,4.275-8.408,9.405-8.55
		c-1.567-1.71-3.847-1.995-5.985-1.995c-11.685,0-17.67,11.685-17.67,21.945v23.798c0,4.132,1.71,5.7,5.7,5.7h8.978v9.404H2.862
		v-9.404h7.837c3.99,0,5.7-1.567,5.7-5.7v-36.48c0-4.133-1.71-5.7-5.7-5.7H2.862v-9.405h30.21L33.071,39.702L33.071,39.702z"/>
	<path d="M93.348,63.927c-0.427,11.115,2.993,23.085,16.246,23.085c10.26,0,15.39-5.271,17.243-15.104h11.828
		C136.812,88.152,126.979,97.7,108.026,97.7c-22.087,0-33.773-12.398-33.773-35.483c0-20.806,13.396-35.483,33.061-35.483
		c23.371,0,33.203,20.948,31.635,37.193H93.348z M119.854,54.522c0.143-8.978-2.708-17.812-12.825-17.812
		c-9.69,0-13.252,8.835-13.68,17.812H119.854z"/>
	<path d="M180.559,38.277h-4.846c-1.852,0-3.277,1.425-3.277,3.42c0,0.998,0.714,3.562,1.712,6.84l10.116,31.635h0.285
		l10.974-31.635c1.141-3.278,1.709-5.843,1.709-6.84c0-1.995-1.425-3.42-3.277-3.42h-6.412v-9.405h31.637v9.405
		c-6.414,0.427-8.69,2.565-9.977,6.27l-18.24,51.017H172.58l-18.666-53.012c-0.998-2.993-2.422-4.275-9.263-4.275v-9.405h35.909
		L180.559,38.277L180.559,38.277z"/>
	<path d="M243.829,63.927c-0.428,11.115,2.992,23.085,16.244,23.085c10.26,0,15.391-5.271,17.244-15.104h11.825
		C287.292,88.152,277.459,97.7,258.506,97.7c-22.088,0-33.772-12.398-33.772-35.483c0-20.806,13.396-35.483,33.061-35.483
		c23.372,0,33.204,20.948,31.635,37.193H243.829z M270.333,54.522c0.143-8.978-2.707-17.812-12.824-17.812
		c-9.688,0-13.252,8.835-13.68,17.812H270.333z"/>
	<path d="M371.936,70.767v4.275c0,15.96-6.411,22.658-18.383,22.658c-7.125,0-13.252-2.993-14.393-10.545
		c-5.271,7.979-14.396,10.545-23.369,10.545c-11.115,0-19.812-5.273-19.812-18.098c0-27.646,42.753-14.25,42.753-34.343
		c0-9.12-7.694-10.83-15.248-10.83c-3.987,0-10.688,1.283-13.255,4.703c5.273-0.712,9.406,1.567,9.406,7.41
		c0,6.413-4.418,8.408-9.977,8.408c-6.127,0-10.261-4.703-10.261-10.545c0-14.535,17.388-17.67,28.644-17.67
		c19.238,0,27.504,8.693,27.504,20.663V82.31c0,3.135,1.283,4.702,3.42,4.702s3.851-1.994,3.851-10.83v-5.415H371.936z
		 M338.733,60.365l-15.105,6.84c-4.131,1.853-8.549,4.133-8.549,10.83c0,5.984,2.707,8.979,8.549,8.979
		c9.691,0,15.105-8.266,15.105-17.386V60.365z"/>
	<path d="M375.213,95.562v-9.404h6.981c3.987,0,5.698-1.567,5.698-5.7V16.189c0-4.132-1.711-5.7-5.698-5.7h-6.981V1.084h29.498
		v79.374c0,4.132,1.709,5.7,5.699,5.7h6.697v9.403H375.213L375.213,95.562z"/>
	<path d="M441.76,63.927c-0.428,11.115,2.992,23.085,16.244,23.085c10.26,0,15.393-5.271,17.242-15.104h11.828
		C485.223,88.152,475.389,97.7,456.438,97.7c-22.09,0-33.773-12.398-33.773-35.483c0-20.806,13.396-35.483,33.061-35.483
		c23.371,0,33.203,20.948,31.639,37.193H441.76z M468.264,54.522c0.146-8.978-2.707-17.812-12.822-17.812
		c-9.689,0-13.256,8.835-13.682,17.812H468.264z"/>
	<path d="M523.981,39.702h0.283c5.699-8.55,10.117-12.968,17.812-12.968c9.121,0,17.242,5.273,17.242,15.675
		c0,6.413-3.85,11.97-10.83,11.97c-5.561,0-10.117-3.277-10.117-9.12c0-5.415,4.271-8.408,9.406-8.55
		c-1.568-1.71-3.852-1.995-5.986-1.995c-11.686,0-17.67,11.685-17.67,21.945v23.798c0,4.132,1.711,5.7,5.701,5.7h8.977v9.404
		h-45.027v-9.404h7.838c3.986,0,5.697-1.567,5.697-5.7v-36.48c0-4.133-1.711-5.7-5.697-5.7h-7.838v-9.405h30.211v10.83H523.981z"/>
</g>
</svg>
