<?xml version="1.0" encoding="utf-8"?>
<!-- Generator: Adobe Illustrator 16.0.0, SVG Export Plug-In . SVG Version: 6.00 Build 0)  -->
<!DOCTYPE svg PUBLIC "-//W3C//DTD SVG 1.1//EN" "http://www.w3.org/Graphics/SVG/1.1/DTD/svg11.dtd">
<svg version="1.1" id="Layer_1" xmlns="http://www.w3.org/2000/svg" xmlns:xlink="http://www.w3.org/1999/xlink" x="0px" y="0px"
	 width="825.374px" height="166.75px" viewBox="0 0 825.374 166.75" enable-background="new 0 0 825.374 166.75"
	 xml:space="preserve">
<g>
	<path d="M2.862,38.277v-8.978c14.535-0.998,18.24-13.823,19.522-26.933h8.835v26.505h18.81v9.405H31.647v42.038
		c0,2.85,1.567,4.703,5.415,4.703c4.417,0,6.127-2.423,6.127-8.123V64.212h9.405v11.97c0,14.963-8.265,21.518-19.522,21.518
		c-10.688,0-18.24-4.418-18.24-15.818V38.277H2.862z"/>
	<path d="M88.646,40.129h0.285c5.843-7.695,13.68-13.396,24.795-13.396c12.54,0,20.235,7.838,20.235,19.951v33.773
		c0,4.132,1.71,5.7,5.7,5.7h7.98v9.405h-41.611v-9.405h5.415c3.99,0,5.7-1.567,5.7-5.7V47.824c0-7.268-4.987-9.975-12.54-9.975
		c-7.41,0-15.96,7.838-15.96,20.378v22.23c0,4.132,1.71,5.7,5.7,5.7h5.558v9.405H58.008v-9.405h8.123c3.99,0,5.7-1.567,5.7-5.7
		V16.189c0-4.132-1.71-5.7-5.7-5.7h-8.123V1.084h30.638V40.129z"/>
	<path d="M172.719,63.927c-0.427,11.115,2.993,23.085,16.246,23.085c10.26,0,15.39-5.272,17.243-15.105h11.828
		C216.183,88.152,206.35,97.7,187.397,97.7c-22.087,0-33.773-12.398-33.773-35.483c0-20.806,13.396-35.483,33.061-35.483
		c23.371,0,33.203,20.948,31.635,37.193H172.719z M199.225,54.522c0.143-8.978-2.708-17.812-12.825-17.812
		c-9.69,0-13.252,8.835-13.68,17.812H199.225z"/>
	<path d="M298.404,39.702h0.285c5.7-8.55,10.118-12.968,17.813-12.968c9.12,0,17.243,5.273,17.243,15.675
		c0,6.413-3.848,11.97-10.83,11.97c-5.558,0-10.118-3.277-10.118-9.12c0-5.415,4.275-8.408,9.405-8.55
		c-1.567-1.71-3.847-1.995-5.985-1.995c-11.685,0-17.67,11.685-17.67,21.945v23.798c0,4.132,1.71,5.7,5.7,5.7h8.978v9.405h-45.03
		v-9.405h7.837c3.99,0,5.7-1.567,5.7-5.7v-36.48c0-4.133-1.71-5.7-5.7-5.7h-7.837v-9.405h30.21V39.702z"/>
	<path d="M358.681,63.927c-0.427,11.115,2.993,23.085,16.246,23.085c10.26,0,15.39-5.272,17.243-15.105h11.828
		C402.145,88.152,392.312,97.7,373.359,97.7c-22.087,0-33.773-12.398-33.773-35.483c0-20.806,13.396-35.483,33.061-35.483
		c23.371,0,33.203,20.948,31.635,37.193H358.681z M385.187,54.522c0.143-8.978-2.708-17.812-12.825-17.812
		c-9.69,0-13.252,8.835-13.68,17.812H385.187z"/>
	<path d="M445.892,38.277h-4.846c-1.852,0-3.277,1.425-3.277,3.42c0,0.998,0.713,3.562,1.711,6.84l10.117,31.635h0.285
		l10.973-31.635c1.14-3.278,1.71-5.843,1.71-6.84c0-1.995-1.425-3.42-3.278-3.42h-6.412v-9.405h31.636v9.405
		c-6.413,0.427-8.692,2.565-9.976,6.27l-18.24,51.016h-18.383l-18.667-53.011c-0.998-2.993-2.422-4.275-9.263-4.275v-9.405h35.911
		V38.277z"/>
	<path d="M509.161,63.927c-0.428,11.115,2.992,23.085,16.245,23.085c10.26,0,15.39-5.272,17.243-15.105h11.827
		C552.624,88.152,542.792,97.7,523.839,97.7c-22.088,0-33.773-12.398-33.773-35.483c0-20.806,13.396-35.483,33.061-35.483
		c23.371,0,33.203,20.948,31.635,37.193H509.161z M535.666,54.522c0.143-8.978-2.708-17.812-12.825-17.812
		c-9.689,0-13.252,8.835-13.68,17.812H535.666z"/>
	<path d="M637.269,70.767v4.275c0,15.96-6.412,22.658-18.383,22.658c-7.125,0-13.252-2.993-14.393-10.545
		c-5.271,7.98-14.393,10.545-23.369,10.545c-11.115,0-19.809-5.273-19.809-18.098c0-27.646,42.751-14.25,42.751-34.343
		c0-9.12-7.695-10.83-15.248-10.83c-3.989,0-10.688,1.283-13.253,4.703c5.273-0.712,9.405,1.567,9.405,7.41
		c0,6.413-4.417,8.408-9.976,8.408c-6.127,0-10.26-4.703-10.26-10.545c0-14.535,17.386-17.67,28.643-17.67
		c19.238,0,27.504,8.693,27.504,20.663V82.31c0,3.135,1.282,4.702,3.42,4.702c2.137,0,3.848-1.995,3.848-10.83v-5.415H637.269z
		 M604.066,60.365l-15.105,6.84c-4.132,1.853-8.55,4.133-8.55,10.83c0,5.985,2.707,8.978,8.55,8.978
		c9.69,0,15.105-8.265,15.105-17.385V60.365z"/>
	<path d="M640.546,95.562v-9.405h6.982c3.99,0,5.7-1.567,5.7-5.7V16.189c0-4.132-1.71-5.7-5.7-5.7h-6.982V1.084h29.498v79.374
		c0,4.132,1.71,5.7,5.7,5.7h6.697v9.405H640.546z"/>
	<path d="M707.093,63.927c-0.428,11.115,2.992,23.085,16.245,23.085c10.26,0,15.39-5.272,17.242-15.105h11.828
		C750.556,88.152,740.723,97.7,721.771,97.7c-22.088,0-33.773-12.398-33.773-35.483c0-20.806,13.396-35.483,33.061-35.483
		c23.37,0,33.203,20.948,31.636,37.193H707.093z M733.598,54.522c0.143-8.978-2.707-17.812-12.825-17.812
		c-9.689,0-13.253,8.835-13.68,17.812H733.598z"/>
	<path d="M789.315,39.702h0.285c5.699-8.55,10.117-12.968,17.812-12.968c9.12,0,17.242,5.273,17.242,15.675
		c0,6.413-3.848,11.97-10.83,11.97c-5.558,0-10.117-3.277-10.117-9.12c0-5.415,4.274-8.408,9.405-8.55
		c-1.567-1.71-3.848-1.995-5.985-1.995c-11.686,0-17.67,11.685-17.67,21.945v23.798c0,4.132,1.71,5.7,5.7,5.7h8.978v9.405h-45.031
		v-9.405h7.838c3.99,0,5.7-1.567,5.7-5.7v-36.48c0-4.133-1.71-5.7-5.7-5.7h-7.838v-9.405h30.211V39.702z"/>
</g>
<g>
	<path d="M32.892,140.098v1.775c0,6.625-2.662,9.406-7.631,9.406c-2.958,0-5.502-1.242-5.975-4.377
		c-2.189,3.313-5.975,4.377-9.702,4.377c-4.614,0-8.223-2.188-8.223-7.513c0-11.477,17.747-5.916,17.747-14.257
		c0-3.786-3.194-4.496-6.33-4.496c-1.657,0-4.437,0.532-5.502,1.952c2.189-0.296,3.905,0.651,3.905,3.076
		c0,2.662-1.834,3.49-4.141,3.49c-2.544,0-4.26-1.952-4.26-4.377c0-6.034,7.217-7.335,11.891-7.335
		c7.986,0,11.417,3.608,11.417,8.578v14.494c0,1.302,0.532,1.953,1.42,1.953c0.887,0,1.597-0.829,1.597-4.496v-2.248H32.892z
		 M19.108,135.779l-6.271,2.84c-1.716,0.769-3.549,1.715-3.549,4.496c0,2.484,1.124,3.727,3.549,3.727
		c4.023,0,6.271-3.431,6.271-7.217V135.779z"/>
	<path d="M64.783,127.202h0.118c2.366-3.55,4.2-5.383,7.395-5.383c3.786,0,7.158,2.188,7.158,6.507c0,2.662-1.597,4.969-4.496,4.969
		c-2.307,0-4.2-1.361-4.2-3.786c0-2.248,1.775-3.49,3.905-3.55c-0.651-0.709-1.598-0.828-2.485-0.828
		c-4.851,0-7.335,4.851-7.335,9.11v9.879c0,1.716,0.71,2.367,2.366,2.367h3.727v3.904H52.241v-3.904h3.254
		c1.656,0,2.366-0.651,2.366-2.367v-15.145c0-1.715-0.71-2.366-2.366-2.366h-3.254v-3.904h12.542V127.202z"/>
	<path d="M89.81,137.258c-0.178,4.615,1.242,9.584,6.744,9.584c4.26,0,6.389-2.189,7.158-6.271h4.91
		c-0.769,6.744-4.851,10.708-12.719,10.708c-9.17,0-14.021-5.146-14.021-14.73c0-8.637,5.561-14.73,13.725-14.73
		c9.702,0,13.784,8.696,13.133,15.44H89.81z M100.813,133.354c0.059-3.727-1.124-7.395-5.324-7.395
		c-4.023,0-5.502,3.668-5.679,7.395H100.813z"/>
	<path d="M126.017,126.61h-2.011c-0.769,0-1.361,0.592-1.361,1.42c0,0.414,0.296,1.479,0.71,2.839l4.2,13.133h0.118l4.555-13.133
		c0.474-1.36,0.71-2.425,0.71-2.839c0-0.828-0.591-1.42-1.36-1.42h-2.662v-3.904h13.133v3.904c-2.662,0.178-3.608,1.065-4.141,2.603
		l-7.572,21.179h-7.631l-7.75-22.007c-0.414-1.242-1.006-1.775-3.845-1.775v-3.904h14.908V126.61z"/>
	<path d="M144.537,150.392v-3.904h2.721c1.657,0,2.366-0.651,2.366-2.367v-15.145c0-1.715-0.709-2.366-2.366-2.366h-2.721v-3.904
		h12.068v21.415c0,1.716,0.71,2.367,2.366,2.367h2.899v3.904H144.537z M152.346,110.46c2.307,0,4.259,1.893,4.259,4.259
		s-1.952,4.259-4.259,4.259s-4.26-1.893-4.26-4.259S150.039,110.46,152.346,110.46z"/>
	<path d="M171.988,137.258c-0.178,4.615,1.242,9.584,6.744,9.584c4.26,0,6.389-2.189,7.158-6.271h4.91
		c-0.769,6.744-4.851,10.708-12.719,10.708c-9.17,0-14.021-5.146-14.021-14.73c0-8.637,5.561-14.73,13.725-14.73
		c9.702,0,13.784,8.696,13.133,15.44H171.988z M182.991,133.354c0.059-3.727-1.124-7.395-5.324-7.395
		c-4.023,0-5.502,3.668-5.679,7.395H182.991z"/>
	<path d="M240.555,126.61c-2.308,0-3.432,0.533-4.082,2.485l-7.276,21.297h-7.513l-4.615-14.73h-0.118l-4.732,14.73h-7.454
		l-7.276-21.948c-0.355-1.124-1.775-1.834-4.082-1.834v-3.904h14.79v3.904h-1.538c-1.361,0-1.834,0.592-1.834,1.42
		c0,0.414,0.473,1.42,0.887,2.899l3.727,13.074h0.119l4.437-13.311c0.414-1.361,0.71-2.071,0.71-3.017
		c0-0.592-1.065-1.065-2.366-1.065h-1.42v-3.904h14.553v3.904h-1.893c-0.829,0-1.716,0.355-1.716,1.361
		c0,0.946,0.651,2.189,0.887,3.135l3.727,12.896h0.119l4.318-13.192c0.414-1.36,0.71-2.484,0.71-2.898
		c0-0.592-0.651-1.302-1.479-1.302h-1.952v-3.904h12.364V126.61z"/>
	<path d="M276.055,121.818c8.874,0,15.204,5.324,15.204,14.73c0,9.406-6.33,14.73-15.204,14.73c-8.874,0-15.204-5.324-15.204-14.73
		C260.851,127.143,267.181,121.818,276.055,121.818z M276.055,147.375c4.792,0,7.277-3.727,7.277-10.826
		c0-7.099-2.485-10.826-7.277-10.826c-4.792,0-7.276,3.727-7.276,10.826C268.778,143.647,271.263,147.375,276.055,147.375z"/>
	<path d="M293.628,122.706h5.62v-1.538c0-7.572,4.022-11.181,10.234-11.181c3.786,0,8.282,2.248,8.282,6.567
		c0,2.366-1.361,4.082-3.786,4.082c-2.189,0-3.845-1.479-3.845-3.431c0-1.833,1.301-3.017,3.017-3.253
		c-0.06-0.059-0.119-0.119-0.119-0.178c-0.828-0.532-1.893-0.828-2.898-0.828c-3.077,0-3.905,2.071-3.905,4.733v5.028h6.034v3.904
		h-6.034v17.511c0,1.716,0.71,2.367,2.366,2.367h3.609v3.904h-18.517v-3.904h3.195c1.656,0,2.366-0.651,2.366-2.367V126.61h-5.62
		V122.706z"/>
	<path d="M347.406,127.202h0.118c2.366-3.55,4.2-5.383,7.395-5.383c3.786,0,7.158,2.188,7.158,6.507
		c0,2.662-1.597,4.969-4.496,4.969c-2.307,0-4.2-1.361-4.2-3.786c0-2.248,1.775-3.49,3.905-3.55
		c-0.651-0.709-1.598-0.828-2.485-0.828c-4.851,0-7.335,4.851-7.335,9.11v9.879c0,1.716,0.71,2.367,2.366,2.367h3.727v3.904h-18.694
		v-3.904h3.254c1.656,0,2.366-0.651,2.366-2.367v-15.145c0-1.715-0.71-2.366-2.366-2.366h-3.254v-3.904h12.542V127.202z"/>
	<path d="M372.433,137.258c-0.178,4.615,1.242,9.584,6.744,9.584c4.26,0,6.389-2.189,7.158-6.271h4.91
		c-0.769,6.744-4.851,10.708-12.719,10.708c-9.17,0-14.021-5.146-14.021-14.73c0-8.637,5.561-14.73,13.725-14.73
		c9.702,0,13.784,8.696,13.133,15.44H372.433z M383.436,133.354c0.059-3.727-1.124-7.395-5.324-7.395
		c-4.023,0-5.502,3.668-5.679,7.395H383.436z"/>
	<path d="M394.087,150.392v-3.904h2.898c1.657,0,2.367-0.651,2.367-2.367v-26.68c0-1.716-0.71-2.366-2.367-2.366h-2.898v-3.905
		h12.246v32.951c0,1.716,0.71,2.367,2.366,2.367h2.781v3.904H394.087z"/>
	<path d="M413.966,150.392v-3.904h2.721c1.657,0,2.367-0.651,2.367-2.367v-15.145c0-1.715-0.71-2.366-2.367-2.366h-2.721v-3.904
		h12.068v21.415c0,1.716,0.71,2.367,2.366,2.367h2.898v3.904H413.966z M421.775,110.46c2.307,0,4.259,1.893,4.259,4.259
		s-1.952,4.259-4.259,4.259s-4.26-1.893-4.26-4.259S419.468,110.46,421.775,110.46z"/>
	<path d="M455.852,146.014c6.448,0,9.702,2.722,9.702,7.809c0,3.904-2.13,9.11-16.624,9.11c-12.187,0-15.203-3.076-15.203-6.566
		c0-3.313,3.076-4.555,5.915-4.851v-0.118c-3.194-0.592-4.969-1.775-4.969-5.384c0-3.135,2.366-5.442,5.442-5.62v-0.119
		c-3.194-1.597-4.437-4.437-4.437-7.986c0-7.217,6.389-10.471,12.896-10.471c3.904,0,7.809,1.183,10.057,2.898
		c1.538-2.011,3.668-2.898,6.152-2.898c3.432,0,5.976,2.425,5.976,5.797c0,2.484-1.184,4.2-3.786,4.2
		c-1.953,0-3.609-1.006-3.609-3.135c0-1.834,1.006-3.017,2.722-3.431c0.118-0.237-0.296-0.888-2.012-0.888
		c-1.656,0-3.076,1.302-3.964,2.603c1.065,1.952,1.657,3.372,1.657,5.324c0,7.572-6.508,10.353-13.192,10.353
		c-2.012,0-4.142-0.237-6.271-1.006c-0.887,0.532-1.597,1.183-1.597,2.248s0.946,2.129,5.028,2.129H455.852z M445.972,151.989
		c-4.082,0-6.211,1.597-6.211,3.964c0,2.129,2.307,3.667,8.991,3.667c6.448,0,9.939-1.242,9.939-4.2
		c0-1.952-1.538-3.431-3.728-3.431H445.972z M448.693,139.329c3.431,0,5.146-2.366,5.146-6.803c0-5.028-1.716-7.395-5.146-7.395
		c-3.372,0-5.088,2.367-5.088,7.099C443.605,136.963,445.321,139.329,448.693,139.329z"/>
	<path d="M473.129,150.392v-3.904h2.722c1.656,0,2.366-0.651,2.366-2.367v-15.145c0-1.715-0.71-2.366-2.366-2.366h-2.722v-3.904
		h12.068v21.415c0,1.716,0.71,2.367,2.366,2.367h2.898v3.904H473.129z M480.938,110.46c2.308,0,4.26,1.893,4.26,4.259
		s-1.952,4.259-4.26,4.259c-2.307,0-4.259-1.893-4.259-4.259S478.631,110.46,480.938,110.46z"/>
	<path d="M507.738,121.818c8.873,0,15.203,5.324,15.203,14.73c0,9.406-6.33,14.73-15.203,14.73c-8.874,0-15.204-5.324-15.204-14.73
		C492.534,127.143,498.864,121.818,507.738,121.818z M507.738,147.375c4.792,0,7.276-3.727,7.276-10.826
		c0-7.099-2.484-10.826-7.276-10.826s-7.276,3.727-7.276,10.826C500.462,143.647,502.946,147.375,507.738,147.375z"/>
	<path d="M538.029,127.852h0.118c2.426-3.667,5.68-6.034,10.294-6.034c5.206,0,8.4,3.135,8.4,9.524v12.778
		c0,1.716,0.71,2.367,3.55,2.367h2.13v3.904h-17.274v-3.904h1.42c2.484,0,3.194-0.651,3.194-2.367v-12.305
		c0-4.437-2.366-5.383-5.206-5.383s-6.626,3.017-6.626,6.803v10.885c0,1.716,0.71,2.367,2.366,2.367h2.308v3.904h-17.393v-3.904
		h3.372c1.656,0,2.366-0.651,2.366-2.367v-14.316c0-2.544-0.71-3.195-3.786-3.195h-1.952v-3.904h12.719V127.852z"/>
	<path d="M610.444,126.019h18.931v4.377h-1.302c-3.431,0-4.792,0.651-5.856,2.189l-7.632,10.767
		c1.243,1.479,2.426,2.248,4.438,2.248c4.91,0,5.916-4.732,5.916-8.578h4.496c0,8.223-1.834,14.553-11.478,14.553
		c-3.372,0-6.625-1.006-9.287-3.076c-3.786,2.07-7.276,3.076-11.062,3.076c-9.584,0-13.606-5.561-13.606-11.595
		c0-6.271,1.893-8.519,10.057-12.896c-1.065-1.36-1.716-4.496-1.716-6.744c0-6.271,4.082-10.353,10.53-10.353
		c4.614,0,8.4,3.195,8.4,7.927c0,4.851-3.727,8.223-7.632,10.471c1.184,2.839,5.502,9.11,7.75,11.122
		c1.361-1.36,4.438-5.265,4.438-6.98c0-1.42-0.71-2.13-3.018-2.13h-2.366V126.019z M599.146,146.014c2.129,0,3.904-0.295,5.797-1.36
		c-3.312-3.964-6.034-8.341-8.637-12.837c-2.248,1.479-4.023,3.254-4.023,6.507C592.282,142.583,595.122,146.014,599.146,146.014z
		 M605.948,118.15c0-2.248-1.36-3.55-3.608-3.55c-2.366,0-3.668,1.598-3.668,3.905c0,1.952,1.183,3.904,2.188,5.501
		C603.286,123.061,605.948,120.99,605.948,118.15z"/>
	<path d="M663.159,127.734h0.118c2.308-3.727,4.792-5.916,9.406-5.916c3.904,0,6.744,1.774,7.868,5.62
		c2.604-3.49,5.324-5.62,9.82-5.62s8.223,3.017,8.223,8.341v13.961c0,1.716,0.71,2.367,2.367,2.367h3.135v3.904h-16.564v-3.904
		h1.716c1.656,0,2.366-0.651,2.366-2.367V130.16c0-2.367-1.893-3.727-4.2-3.727c-3.49,0-6.566,3.135-6.566,7.04v10.648
		c0,1.716,0.71,2.367,2.366,2.367h1.598v3.904h-15.086v-3.904h1.775c1.656,0,2.366-0.651,2.366-2.367v-12.423
		c0-3.077-0.592-5.265-4.142-5.265c-3.668,0-6.625,3.49-6.625,7.04v10.648c0,1.716,0.71,2.367,2.366,2.367h1.774v3.904H650.44
		v-3.904h3.312c1.656,0,2.366-0.651,2.366-2.367v-15.145c0-1.715-0.71-2.366-2.366-2.366h-3.312v-3.904h12.719V127.734z"/>
	<path d="M714.158,137.258c-0.178,4.615,1.242,9.584,6.744,9.584c4.259,0,6.389-2.189,7.158-6.271h4.91
		c-0.77,6.744-4.852,10.708-12.72,10.708c-9.169,0-14.021-5.146-14.021-14.73c0-8.637,5.562-14.73,13.725-14.73
		c9.702,0,13.784,8.696,13.134,15.44H714.158z M725.161,133.354c0.06-3.727-1.124-7.395-5.324-7.395
		c-4.022,0-5.502,3.668-5.679,7.395H725.161z"/>
	<path d="M757.347,145.541h-0.118c-2.367,4.023-5.384,5.738-9.288,5.738c-8.224,0-11.714-7.454-11.714-14.73
		c0-7.276,4.319-14.73,11.714-14.73c4.673,0,7.927,2.898,9.288,5.087h0.118v-9.229c0-1.775-0.592-2.603-2.426-2.603h-3.727v-3.905
		h13.133v32.715c0,1.775,0.532,2.603,2.366,2.603h3.076v3.904h-12.423V145.541z M750.247,146.665c3.964,0,7.1-3.313,7.1-10.471
		c0-6.448-3.136-9.761-7.1-9.761c-3.963,0-6.093,3.312-6.093,10.116S746.284,146.665,750.247,146.665z"/>
	<path d="M772.139,150.392v-3.904h2.722c1.656,0,2.366-0.651,2.366-2.367v-15.145c0-1.715-0.71-2.366-2.366-2.366h-2.722v-3.904
		h12.068v21.415c0,1.716,0.71,2.367,2.366,2.367h2.898v3.904H772.139z M779.947,110.46c2.308,0,4.26,1.893,4.26,4.259
		s-1.952,4.259-4.26,4.259c-2.307,0-4.259-1.893-4.259-4.259S777.641,110.46,779.947,110.46z"/>
	<path d="M823.193,140.098v1.775c0,6.625-2.662,9.406-7.631,9.406c-2.958,0-5.502-1.242-5.976-4.377
		c-2.188,3.313-5.975,4.377-9.701,4.377c-4.614,0-8.224-2.188-8.224-7.513c0-11.477,17.748-5.916,17.748-14.257
		c0-3.786-3.194-4.496-6.33-4.496c-1.656,0-4.437,0.532-5.502,1.952c2.188-0.296,3.904,0.651,3.904,3.076
		c0,2.662-1.834,3.49-4.141,3.49c-2.544,0-4.26-1.952-4.26-4.377c0-6.034,7.218-7.335,11.891-7.335
		c7.986,0,11.418,3.608,11.418,8.578v14.494c0,1.302,0.532,1.953,1.42,1.953s1.597-0.829,1.597-4.496v-2.248H823.193z
		 M809.41,135.779l-6.271,2.84c-1.715,0.769-3.549,1.715-3.549,4.496c0,2.484,1.124,3.727,3.549,3.727
		c4.023,0,6.271-3.431,6.271-7.217V135.779z"/>
</g>
</svg>
