<?xml version="1.0" encoding="utf-8"?>
<!-- Generator: Adobe Illustrator 16.0.0, SVG Export Plug-In . SVG Version: 6.00 Build 0)  -->
<!DOCTYPE svg PUBLIC "-//W3C//DTD SVG 1.1//EN" "http://www.w3.org/Graphics/SVG/1.1/DTD/svg11.dtd">
<svg version="1.1" id="Layer_1" xmlns="http://www.w3.org/2000/svg" xmlns:xlink="http://www.w3.org/1999/xlink" x="0px" y="0px"
	 width="557.5px" height="348.438px" viewBox="242.5 151.562 557.5 348.438" enable-background="new 242.5 151.562 557.5 348.438"
	 xml:space="preserve">
<path d="M509.188,356.291c0-0.27-0.035-0.643-0.1-1.112c-0.204-2.84-0.305-4.898-0.305-6.188c0-5.403,0.877-10.253,2.634-14.544
	c1.758-4.291,4.83-8.901,9.225-13.833c1.217-1.491,3.075-3.55,5.574-6.185c8.581-9.189,12.874-17.098,12.874-23.722
	c0-6.892-2.398-12.466-7.199-16.725c-4.797-4.258-11.045-6.384-18.749-6.384c-7.436,0-13.533,2.227-18.299,6.69
	c-4.763,4.459-7.246,10.235-7.449,17.333c2.028-1.624,3.986-2.84,5.879-3.65c1.893-0.81,3.817-1.217,5.778-1.217
	c3.784,0,6.944,1.301,9.479,3.902c2.534,2.604,3.801,5.863,3.801,9.782c0,4.459-1.688,8.242-5.067,11.352
	c-3.382,3.108-7.503,4.664-12.367,4.664c-6.017,0-11.049-2.415-15.103-7.248c-4.058-4.828-6.082-10.933-6.082-18.299
	c0-11.149,4.357-20.369,13.074-27.669c8.719-7.299,19.799-10.947,33.249-10.947c14.325,0,26.033,3.515,35.122,10.542
	c9.086,7.025,13.633,15.881,13.633,26.557c0,6.825-1.706,12.808-5.116,17.941c-3.417,5.135-10.224,11.352-20.428,18.649
	c-8.854,6.422-14.528,11.591-17.029,15.508c-2.499,3.923-3.75,8.516-3.75,13.79v1.011H509.188L509.188,356.291z M499.862,383.863
	c0-4.259,1.504-7.874,4.511-10.844c3.005-2.975,6.704-4.463,11.1-4.463c4.322,0,7.957,1.467,10.896,4.412
	c2.94,2.937,4.409,6.569,4.409,10.895c0,4.392-1.47,8.059-4.409,10.998c-2.939,2.937-6.574,4.408-10.896,4.408
	c-4.396,0-8.095-1.484-11.1-4.459C501.367,391.836,499.862,388.188,499.862,383.863z"/>
</svg>
