<?xml version="1.0" encoding="utf-8"?>
<!-- Generator: Adobe Illustrator 16.0.0, SVG Export Plug-In . SVG Version: 6.00 Build 0)  -->
<!DOCTYPE svg PUBLIC "-//W3C//DTD SVG 1.1//EN" "http://www.w3.org/Graphics/SVG/1.1/DTD/svg11.dtd">
<svg version="1.1" id="Layer_1" xmlns="http://www.w3.org/2000/svg" xmlns:xlink="http://www.w3.org/1999/xlink" x="0px" y="0px"
	 width="557.5px" height="348.438px" viewBox="0 0 557.5 348.438" enable-background="new 0 0 557.5 348.438" xml:space="preserve">
<path d="M271.255,193.178c0-0.168-0.022-0.4-0.062-0.692c-0.128-1.765-0.19-3.042-0.19-3.845c0-3.356,0.545-6.37,1.637-9.036
	c1.093-2.667,3.001-5.531,5.732-8.595c0.757-0.927,1.911-2.207,3.463-3.845c5.333-5.708,7.999-10.624,7.999-14.739
	c0-4.283-1.488-7.746-4.473-10.393c-2.981-2.646-6.863-3.966-11.651-3.966c-4.619,0-8.407,1.384-11.369,4.157
	c-2.959,2.77-4.503,6.359-4.628,10.771c1.259-1.01,2.477-1.765,3.653-2.269c1.176-0.503,2.372-0.757,3.59-0.757
	c2.351,0,4.314,0.81,5.889,2.425c1.575,1.618,2.363,3.643,2.363,6.078c0,2.771-1.05,5.122-3.149,7.055
	c-2.101,1.931-4.662,2.897-7.685,2.897c-3.737,0-6.865-1.5-9.383-4.503c-2.521-3-3.78-6.793-3.78-11.371
	c0-6.928,2.708-12.656,8.125-17.193c5.417-4.535,12.302-6.801,20.659-6.801c8.902,0,16.177,2.184,21.824,6.551
	c5.646,4.365,8.471,9.868,8.471,16.502c0,4.24-1.061,7.958-3.18,11.147c-2.123,3.191-6.352,7.054-12.691,11.588
	c-5.503,3.989-9.027,7.201-10.583,9.635c-1.553,2.438-2.329,5.294-2.329,8.569v0.631H271.255L271.255,193.178z M265.46,210.31
	c0-2.646,0.935-4.894,2.803-6.74c1.867-1.848,4.166-2.772,6.897-2.772c2.685,0,4.942,0.911,6.771,2.742
	c1.824,1.824,2.737,4.084,2.737,6.771c0,2.729-0.913,5.009-2.737,6.833c-1.829,1.824-4.087,2.74-6.771,2.74
	c-2.732,0-5.03-0.923-6.897-2.772C266.395,215.263,265.46,212.997,265.46,210.31z"/>
</svg>
