<?xml version="1.0" encoding="utf-8"?>
<!-- Generator: Adobe Illustrator 16.0.0, SVG Export Plug-In . SVG Version: 6.00 Build 0)  -->
<!DOCTYPE svg PUBLIC "-//W3C//DTD SVG 1.1//EN" "http://www.w3.org/Graphics/SVG/1.1/DTD/svg11.dtd">
<svg version="1.1" id="Layer_1" xmlns="http://www.w3.org/2000/svg" xmlns:xlink="http://www.w3.org/1999/xlink" x="0px" y="0px"
	 width="800px" height="500px" viewBox="-306.068 -104.796 800 500" enable-background="new -306.068 -104.796 800 500"
	 xml:space="preserve">
<path d="M78.472,196.308c0-0.345-0.046-0.823-0.129-1.425c-0.261-3.64-0.39-6.279-0.39-7.931c0-6.925,1.124-13.141,3.376-18.641
	c2.253-5.5,6.191-11.409,11.823-17.73c1.559-1.91,3.942-4.55,7.146-7.926c10.997-11.779,16.5-21.915,16.5-30.404
	c0-8.833-3.075-15.979-9.227-21.437c-6.149-5.457-14.158-8.182-24.032-8.182c-9.53,0-17.345,2.854-23.453,8.575
	c-6.105,5.716-9.288,13.119-9.548,22.216c2.6-2.081,5.11-3.64,7.535-4.678c2.425-1.038,4.893-1.56,7.406-1.56
	c4.85,0,8.901,1.667,12.148,5.001c3.248,3.338,4.872,7.516,4.872,12.538c0,5.715-2.164,10.565-6.495,14.549
	c-4.334,3.985-9.616,5.979-15.85,5.979c-7.712,0-14.162-3.096-19.358-9.29c-5.2-6.188-7.796-14.013-7.796-23.453
	c0-14.29,5.586-26.108,16.758-35.464c11.175-9.355,25.377-14.032,42.615-14.032c18.362,0,33.368,4.505,45.017,13.512
	c11.646,9.005,17.474,20.355,17.474,34.038c0,8.748-2.188,16.415-6.559,22.995c-4.378,6.582-13.104,14.55-26.182,23.904
	c-11.347,8.231-18.621,14.855-21.825,19.877c-3.204,5.027-4.807,10.914-4.807,17.673v1.296H78.472L78.472,196.308z M66.52,231.647
	c0-5.458,1.927-10.092,5.78-13.898c3.853-3.812,8.594-5.72,14.227-5.72c5.54,0,10.199,1.881,13.966,5.655
	c3.769,3.764,5.652,8.42,5.652,13.963c0,5.63-1.884,10.329-5.652,14.097c-3.767,3.764-8.426,5.651-13.966,5.651
	c-5.633,0-10.375-1.904-14.227-5.716S66.52,237.19,66.52,231.647z"/>
</svg>
