<?xml version="1.0" encoding="utf-8"?>
<!-- Generator: Adobe Illustrator 16.0.0, SVG Export Plug-In . SVG Version: 6.00 Build 0)  -->
<!DOCTYPE svg PUBLIC "-//W3C//DTD SVG 1.1//EN" "http://www.w3.org/Graphics/SVG/1.1/DTD/svg11.dtd">
<svg version="1.1" id="Layer_1" xmlns="http://www.w3.org/2000/svg" xmlns:xlink="http://www.w3.org/1999/xlink" x="0px" y="0px"
	 width="187.864px" height="290.408px" viewBox="0 0 187.864 290.408" enable-background="new 0 0 187.864 290.408"
	 xml:space="preserve">
<g>
	<path d="M70.099,205.485c0-0.531-0.07-1.268-0.199-2.196c-0.402-5.611-0.601-9.681-0.601-12.226
		c0-10.676,1.732-20.257,5.205-28.736c3.473-8.479,9.544-17.588,18.226-27.334c2.404-2.943,6.076-7.013,11.016-12.218
		c16.954-18.159,25.437-33.783,25.437-46.87c0-13.618-4.741-24.634-14.223-33.047c-9.481-8.412-21.827-12.614-37.049-12.614
		c-14.691,0-26.738,4.401-36.154,13.22c-9.412,8.811-14.318,20.224-14.72,34.248c4.008-3.208,7.878-5.611,11.616-7.211
		s7.542-2.404,11.417-2.404c7.477,0,13.722,2.57,18.728,7.709c5.006,5.146,7.51,11.587,7.51,19.328
		c0,8.811-3.336,16.287-10.013,22.428c-6.681,6.143-14.824,9.217-24.434,9.217c-11.89,0-21.832-4.773-29.842-14.322
		C4.003,102.917,0,90.856,0,76.303c0-22.03,8.612-40.249,25.834-54.671C43.062,7.21,64.956,0,91.529,0
		c28.305,0,51.438,6.945,69.398,20.829c17.953,13.883,26.937,31.379,26.937,52.473c0,13.486-3.373,25.305-10.112,35.449
		c-6.747,10.146-20.199,22.43-40.36,36.851c-17.492,12.689-28.707,22.901-33.646,30.642c-4.94,7.75-7.41,16.826-7.41,27.244v1.998
		H70.099z M51.674,259.965c0-8.413,2.971-15.558,8.91-21.425c5.939-5.877,13.249-8.819,21.932-8.819
		c8.541,0,15.723,2.901,21.529,8.72c5.81,5.801,8.715,12.979,8.715,21.524c0,8.678-2.905,15.922-8.715,21.731
		c-5.806,5.803-12.988,8.712-21.529,8.712c-8.683,0-15.993-2.935-21.932-8.811C54.645,275.722,51.674,268.511,51.674,259.965z"/>
</g>
</svg>
