<?xml version="1.0" standalone="no"?>
<!DOCTYPE svg PUBLIC "-//W3C//DTD SVG 20010904//EN"
 "http://www.w3.org/TR/2001/REC-SVG-20010904/DTD/svg10.dtd">
<svg version="1.0" xmlns="http://www.w3.org/2000/svg"
 width="700.000000pt" height="700.000000pt" viewBox="0 0 700.000000 700.000000"
 preserveAspectRatio="xMidYMid meet">
<metadata>
Created by potrace 1.11, written by Peter Selinger 2001-2013
</metadata>
<g transform="translate(0.000000,700.000000) scale(0.100000,-0.100000)"
fill="#000000" stroke="none">
<path d="M4454 5849 c-178 -14 -347 -75 -501 -181 -153 -104 -363 -337 -538
-596 -38 -56 -75 -102 -82 -102 -10 0 -13 70 -13 370 l0 370 -1030 0 -1030 0
0 -320 0 -320 263 0 c404 0 498 -18 577 -107 81 -92 75 31 78 -1503 2 -1029 0
-1379 -9 -1423 -16 -80 -64 -155 -119 -189 -85 -52 -134 -58 -477 -58 l-313 0
0 -325 0 -325 1538 2 1537 3 3 322 2 322 -377 3 c-339 3 -383 5 -430 22 -117
42 -175 128 -194 286 -7 65 -9 378 -6 995 4 764 7 914 20 992 35 201 85 358
167 528 222 460 618 715 1075 691 61 -3 133 -12 161 -19 62 -17 145 -61 174
-92 l21 -22 -65 -6 c-345 -32 -576 -265 -576 -582 0 -334 230 -571 595 -615
222 -27 430 35 579 172 169 154 256 375 256 648 0 613 -435 1029 -1110 1062
-47 3 -126 1 -176 -3z"/>
</g>
</svg>
