<?xml version="1.0" encoding="utf-8"?>
<!-- Generator: Adobe Illustrator 16.0.0, SVG Export Plug-In . SVG Version: 6.00 Build 0)  -->
<!DOCTYPE svg PUBLIC "-//W3C//DTD SVG 1.1//EN" "http://www.w3.org/Graphics/SVG/1.1/DTD/svg11.dtd">
<svg version="1.1" xmlns="http://www.w3.org/2000/svg" xmlns:xlink="http://www.w3.org/1999/xlink" x="0px" y="0px"
	 width="114.35px" height="114.614px" viewBox="-109.974 19.399 114.35 114.614"
	 enable-background="new -109.974 19.399 114.35 114.614" xml:space="preserve">
<g id="logo">
</g>
<g id="tagline">
	<g>
		<g>
			<path fill="#346378" d="M-5.883,134.045l-27.172-27.171c-0.583-0.583-1.594-0.687-2.28-0.222c0,0-1.411,0.987-2.798,1.798
				c-7.067,4.129-15.291,6.495-24.066,6.495c-26.384,0-47.773-21.389-47.773-47.772c0-26.385,21.389-47.774,47.773-47.774
				c26.385,0,47.774,21.389,47.774,47.774c0,8.757-2.356,16.963-6.469,24.02c-0.818,1.403-1.817,2.83-1.817,2.83
				c-0.464,0.686-0.386,1.696,0.213,2.294l26.875,26.874L-5.883,134.045z M-62.2,97.031c16.49,0,29.858-13.368,29.858-29.857
				c0-16.491-13.368-29.86-29.858-29.86s-29.859,13.369-29.859,29.86C-92.059,83.663-78.69,97.031-62.2,97.031z"/>
		</g>
	</g>
</g>
</svg>
