<?xml version="1.0" encoding="utf-8"?>
<!-- Generator: Adobe Illustrator 16.0.0, SVG Export Plug-In . SVG Version: 6.00 Build 0)  -->
<!DOCTYPE svg PUBLIC "-//W3C//DTD SVG 1.1//EN" "http://www.w3.org/Graphics/SVG/1.1/DTD/svg11.dtd">
<svg version="1.1" id="Layer_1" xmlns="http://www.w3.org/2000/svg" xmlns:xlink="http://www.w3.org/1999/xlink" x="0px" y="0px"
	 width="1898.149px" height="121.148px" viewBox="0 0 1898.149 121.148" enable-background="new 0 0 1898.149 121.148"
	 xml:space="preserve">
<g>
	<path d="M40.819,85.875c-2.656,3.439-5.747,5.977-9.273,7.608c-3.527,1.633-7.664,2.448-12.409,2.448
		c-5.616,0-10.211-1.611-13.78-4.832c-3.569-3.222-5.354-7.357-5.354-12.409c0-4.833,1.522-8.751,4.572-11.756
		c3.047-3.004,8.271-5.638,15.674-7.901c1.741-0.565,4.57-1.328,8.49-2.285c3.919-0.958,6.509-1.852,7.771-2.679
		c1.61-1.045,2.754-2.23,3.429-3.561c0.676-1.327,1.014-2.992,1.014-4.996c0-3.265-1.188-5.78-3.561-7.543
		c-2.373-1.764-5.778-2.645-10.221-2.645c-2.874,0-5.323,0.315-7.348,0.946c-2.024,0.632-3.82,1.623-5.389,2.973h0.457
		c2.612,0,4.67,0.643,6.172,1.927c1.502,1.285,2.253,3.081,2.253,5.388c0,2.57-0.859,4.637-2.578,6.205
		c-1.722,1.567-3.995,2.353-6.825,2.353c-3.136,0-5.704-0.97-7.706-2.906c-2.004-1.938-3.005-4.452-3.005-7.544
		c0-4.963,2.36-8.99,7.086-12.082c4.724-3.091,11.025-4.638,18.906-4.638c4.484,0,8.458,0.393,11.92,1.176
		c3.462,0.784,6.303,1.917,8.522,3.396c2.568,1.698,4.375,3.854,5.42,6.466c1.045,2.612,1.567,6.968,1.567,13.062v28.083
		c0,1.566,0.25,2.722,0.751,3.462c0.5,0.74,1.273,1.11,2.318,1.11c1.609,0,2.698-0.851,3.266-2.549
		c0.564-1.696,0.85-5.746,0.85-12.146h8.163v2.809c0,8.188-1.296,14.086-3.886,17.699c-2.591,3.613-6.824,5.42-12.702,5.42
		c-3.963,0-7.13-0.815-9.503-2.448C43.506,91.852,41.82,89.316,40.819,85.875z M40.557,60.471c-1.829,0.871-4.354,1.981-7.576,3.33
		c-9.927,4.311-14.891,8.73-14.891,13.258c0,2.438,0.719,4.321,2.155,5.649c1.436,1.328,3.481,1.992,6.139,1.992
		c4.354,0,7.805-1.471,10.353-4.409s3.82-6.998,3.82-12.181V60.471z"/>
	<path d="M145.509,76.537c0,3.439,0.511,5.639,1.535,6.597c1.021,0.958,3.058,1.437,6.105,1.437h6.661v8.947h-42.516V84.57h4.441
		c3.047,0,5.07-0.479,6.072-1.437c1.001-0.958,1.503-3.156,1.503-6.597V47.343c0-3.439-0.502-5.626-1.503-6.563
		c-1.002-0.936-3.025-1.403-6.072-1.403h-4.441v-9.014h28.214v9.535c2.09-3.744,4.527-6.552,7.314-8.425
		c2.786-1.872,5.921-2.808,9.403-2.808c4.789,0,8.688,1.339,11.69,4.017c3.005,2.678,4.507,6.15,4.507,10.417
		c0,3.354-1.002,6.085-3.005,8.196c-2.003,2.112-4.615,3.167-7.837,3.167c-2.743,0-4.963-0.771-6.661-2.318
		c-1.698-1.545-2.547-3.536-2.547-5.975c0-2.221,0.695-4.104,2.09-5.649c1.393-1.545,3.417-2.688,6.073-3.429
		c-1.002-0.435-1.972-0.772-2.906-1.012c-0.937-0.239-1.796-0.359-2.579-0.359c-4.44,0-8.143,2.232-11.103,6.694
		c-2.962,4.463-4.441,10.178-4.441,17.144L145.509,76.537L145.509,76.537z"/>
	<path d="M236.092,70.92h11.233c-0.958,7.75-4.062,13.855-9.308,18.319c-5.247,4.462-11.963,6.692-20.146,6.692
		c-10.188,0-18.311-3.079-24.36-9.241c-6.053-6.159-9.078-14.399-9.078-24.719c0-10.188,3.06-18.406,9.176-24.655
		c6.117-6.247,14.205-9.372,24.264-9.372c9.708,0,17.11,3.016,22.205,9.046c5.094,6.03,7.642,14.793,7.642,26.286h-45.063
		c0.261,7.143,1.772,12.583,4.539,16.327c2.764,3.745,6.648,5.617,11.656,5.617c5.138,0,9.022-1.1,11.657-3.299
		C233.143,79.727,235.003,76.058,236.092,70.92z M230.019,53.809c-0.392-5.834-1.579-10.101-3.56-12.801
		c-1.981-2.699-4.888-4.049-8.719-4.049c-3.919,0-7.108,1.426-9.567,4.276c-2.461,2.854-4.082,7.043-4.866,12.572L230.019,53.809
		L230.019,53.809z"/>
	<path d="M280.372,93.517l-16.327-47.349c-0.871-2.438-1.872-4.181-3.004-5.226c-1.133-1.045-2.525-1.566-4.18-1.566h-3.92v-9.014
		h34.812v9.014h-2.155c-1.742,0-3.049,0.271-3.919,0.815c-0.871,0.545-1.307,1.384-1.307,2.516c0,0.609,0.099,1.394,0.294,2.351
		c0.196,0.958,0.512,2.09,0.947,3.396l9.861,29.128l10.71-30.369c0.306-0.784,0.533-1.535,0.688-2.253
		c0.15-0.718,0.229-1.381,0.229-1.992c0-1.262-0.479-2.177-1.438-2.743c-0.958-0.564-2.481-0.849-4.571-0.849h-3.2v-9.014h31.152
		v9.014h-3.331c-1.828,0-3.407,0.652-4.734,1.959c-1.329,1.306-2.472,3.353-3.429,6.139l-16.197,46.043H280.372z"/>
	<path d="M329.355,93.517V84.57h4.964c3.048,0,5.083-0.479,6.105-1.437s1.535-3.156,1.535-6.597V47.343
		c0-3.439-0.513-5.626-1.535-6.563c-1.022-0.936-3.059-1.403-6.105-1.403h-4.964v-9.014h28.933v46.175
		c0,3.396,0.512,5.584,1.535,6.562c1.021,0.979,3.079,1.47,6.172,1.47h4.049v8.947H329.355z M339.02,12.599
		c0-2.786,0.947-5.137,2.843-7.054c1.894-1.916,4.232-2.874,7.021-2.874c2.829,0,5.213,0.958,7.151,2.874
		c1.937,1.917,2.905,4.268,2.905,7.054c0,2.787-0.97,5.159-2.905,7.119c-1.938,1.959-4.322,2.939-7.151,2.939
		c-2.743,0-5.073-0.98-6.988-2.939C339.978,17.758,339.02,15.386,339.02,12.599z"/>
	<path d="M428.495,70.92h11.232c-0.958,7.75-4.061,13.855-9.307,18.319c-5.247,4.462-11.963,6.692-20.147,6.692
		c-10.188,0-18.31-3.079-24.359-9.241c-6.053-6.159-9.078-14.399-9.078-24.719c0-10.188,3.059-18.406,9.176-24.655
		c6.117-6.247,14.205-9.372,24.263-9.372c9.708,0,17.111,3.016,22.205,9.046s7.643,14.793,7.643,26.286h-45.063
		c0.262,7.143,1.773,12.583,4.539,16.327c2.765,3.745,6.649,5.617,11.657,5.617c5.137,0,9.021-1.1,11.657-3.299
		C425.544,79.727,427.405,76.058,428.495,70.92z M422.42,53.809c-0.393-5.834-1.579-10.101-3.561-12.801
		c-1.98-2.699-4.888-4.049-8.719-4.049c-3.919,0-7.107,1.426-9.566,4.276c-2.461,2.854-4.082,7.043-4.866,12.572L422.42,53.809
		L422.42,53.809z"/>
	<path d="M471.859,93.517l-15.15-46.435c-1.045-3.222-2.112-5.312-3.2-6.271c-1.089-0.957-2.635-1.437-4.637-1.437h-2.81v-9.014
		h33.111v9.014h-3.2c-1.567,0-2.688,0.251-3.363,0.751c-0.675,0.501-1.012,1.316-1.012,2.449c0,0.479,0.098,1.153,0.294,2.024
		c0.195,0.871,0.489,1.959,0.881,3.266l9.078,31.087l11.233-31.413c0.305-0.784,0.544-1.558,0.719-2.319
		c0.173-0.761,0.261-1.425,0.261-1.992c0-1.437-0.436-2.438-1.306-3.004c-0.872-0.564-2.439-0.849-4.702-0.849h-2.548v-9.014h32.328
		v9.014h-3.983c-1.437,0-2.493,0.24-3.168,0.719c-0.675,0.479-1.012,1.263-1.012,2.351c0,0.61,0.075,1.264,0.229,1.959
		c0.152,0.697,0.359,1.416,0.62,2.155l10.711,33.046l9.861-30.369c0.436-1.262,0.771-2.47,1.013-3.625
		c0.239-1.152,0.359-2.123,0.359-2.905c0-1.001-0.403-1.807-1.208-2.417c-0.808-0.609-1.84-0.915-3.104-0.915h-3.331V30.36h27.822
		v9.014h-2.938c-1.698,0-3.103,0.632-4.212,1.894c-1.11,1.265-2.212,3.527-3.3,6.792L527.11,93.514h-15.805l-11.364-35.333
		l-12.017,35.333h-16.065V93.517z"/>
	<path d="M600.519,61.973c0-10.274,3.243-18.516,9.731-24.72c6.485-6.204,15.106-9.307,25.861-9.307
		c10.797,0,19.451,3.113,25.96,9.34c6.51,6.227,9.765,14.456,9.765,24.688c0,10.188-3.255,18.374-9.765,24.556
		c-6.509,6.185-15.163,9.274-25.96,9.274c-10.755,0-19.376-3.091-25.861-9.274C603.762,80.347,600.519,72.161,600.519,61.973z
		 M618.741,61.973c0,8.143,1.438,14.228,4.311,18.254c2.874,4.027,7.228,6.041,13.062,6.041s10.209-2.023,13.127-6.074
		c2.916-4.049,4.376-10.123,4.376-18.221c0-8.186-1.46-14.312-4.376-18.385c-2.918-4.071-7.293-6.106-13.127-6.106
		c-5.791,0-10.135,2.036-13.028,6.106C620.187,47.66,618.741,53.788,618.741,61.973z"/>
	<path d="M690.646,39.898h-12.018v-9.403h12.018v-1.959c0-9.056,1.915-15.849,5.747-20.376c3.83-4.528,9.557-6.792,17.176-6.792
		c5.834,0,10.548,1.296,14.141,3.886c3.592,2.591,5.388,5.976,5.388,10.156c0,3.048-0.827,5.464-2.481,7.25
		c-1.654,1.785-3.876,2.677-6.66,2.677c-2.439,0-4.452-0.729-6.041-2.188c-1.591-1.458-2.385-3.319-2.385-5.584
		c0-1.872,0.512-3.449,1.534-4.734c1.022-1.284,2.427-2.166,4.213-2.646c-0.741-0.608-1.579-1.078-2.515-1.404
		c-0.938-0.326-1.971-0.489-3.104-0.489c-3.223,0-5.496,0.979-6.823,2.938c-1.329,1.959-1.992,5.399-1.992,10.319v8.947h13.648
		v9.403h-13.648v36.64c0,3.439,0.511,5.639,1.535,6.597c1.021,0.958,3.058,1.437,6.105,1.437h6.008v8.947h-41.862V84.57h3.854
		c3.354,0,5.551-0.479,6.597-1.437s1.567-3.156,1.567-6.597L690.646,39.898L690.646,39.898z"/>
	<path d="M798.602,76.537c0,3.439,0.511,5.639,1.535,6.597c1.021,0.958,3.058,1.437,6.105,1.437h6.661v8.947h-42.517V84.57h4.441
		c3.047,0,5.07-0.479,6.072-1.437c1.001-0.958,1.503-3.156,1.503-6.597V47.343c0-3.439-0.502-5.626-1.503-6.563
		c-1.002-0.936-3.025-1.403-6.072-1.403h-4.441v-9.014h28.214v9.535c2.09-3.744,4.527-6.552,7.314-8.425
		c2.786-1.872,5.921-2.808,9.403-2.808c4.789,0,8.688,1.339,11.69,4.017c3.005,2.678,4.507,6.15,4.507,10.417
		c0,3.354-1.002,6.085-3.005,8.196c-2.003,2.112-4.615,3.167-7.837,3.167c-2.743,0-4.963-0.771-6.661-2.318
		c-1.698-1.545-2.547-3.536-2.547-5.975c0-2.221,0.695-4.104,2.09-5.649c1.394-1.545,3.417-2.688,6.073-3.429
		c-1.002-0.435-1.971-0.772-2.906-1.012c-0.937-0.239-1.796-0.359-2.579-0.359c-4.44,0-8.143,2.232-11.103,6.694
		c-2.962,4.463-4.441,10.178-4.441,17.144v16.979H798.602z"/>
	<path d="M889.185,70.92h11.233c-0.958,7.75-4.062,13.855-9.308,18.319c-5.247,4.462-11.963,6.692-20.146,6.692
		c-10.188,0-18.311-3.079-24.36-9.241c-6.053-6.159-9.078-14.399-9.078-24.719c0-10.188,3.06-18.406,9.176-24.655
		c6.117-6.247,14.205-9.372,24.264-9.372c9.708,0,17.111,3.016,22.205,9.046s7.642,14.793,7.642,26.286H855.75
		c0.261,7.143,1.772,12.583,4.539,16.327c2.764,3.745,6.648,5.617,11.656,5.617c5.138,0,9.022-1.1,11.657-3.299
		C886.236,79.727,888.096,76.058,889.185,70.92z M883.112,53.809c-0.392-5.834-1.579-10.101-3.56-12.801
		c-1.981-2.699-4.888-4.049-8.719-4.049c-3.919,0-7.108,1.426-9.567,4.276c-2.461,2.854-4.082,7.043-4.866,12.572L883.112,53.809
		L883.112,53.809z"/>
	<path d="M919.686,20.763c0-3.396-0.513-5.584-1.535-6.563s-3.103-1.47-6.236-1.47h-3.983V3.782h28.083v72.754
		c0,3.396,0.522,5.584,1.567,6.562c1.045,0.979,3.111,1.47,6.204,1.47h3.982v8.947H907.93V84.57h3.983
		c3.135,0,5.214-0.489,6.236-1.47c1.022-0.979,1.535-3.167,1.535-6.562L919.686,20.763L919.686,20.763z"/>
	<path d="M953.908,93.517V84.57h4.964c3.048,0,5.083-0.479,6.105-1.437s1.535-3.156,1.535-6.597V47.343
		c0-3.439-0.513-5.626-1.535-6.563c-1.022-0.936-3.059-1.403-6.105-1.403h-4.964v-9.014h28.933v46.175
		c0,3.396,0.512,5.584,1.535,6.562c1.021,0.979,3.078,1.47,6.172,1.47h4.049v8.947H953.908z M963.573,12.599
		c0-2.786,0.947-5.137,2.843-7.054c1.894-1.916,4.232-2.874,7.021-2.874c2.829,0,5.213,0.958,7.151,2.874
		c1.937,1.917,2.905,4.268,2.905,7.054c0,2.787-0.97,5.159-2.905,7.119c-1.938,1.959-4.322,2.939-7.151,2.939
		c-2.743,0-5.073-0.98-6.988-2.939C964.531,17.758,963.573,15.386,963.573,12.599z"/>
	<path d="M1016.016,70.005c-3.135-2.699-5.442-5.528-6.923-8.489c-1.481-2.961-2.22-6.161-2.22-9.602
		c0-7.271,2.742-13.083,8.229-17.438c5.486-4.354,12.866-6.531,22.141-6.531c4.093,0,7.944,0.522,11.56,1.567
		s6.944,2.591,9.993,4.637c1.96-2.09,3.995-3.646,6.106-4.669c2.111-1.021,4.408-1.535,6.891-1.535
		c4.613,0,8.238,1.198,10.873,3.593s3.951,5.661,3.951,9.796c0,2.787-0.826,5.073-2.48,6.856c-1.656,1.786-3.768,2.678-6.336,2.678
		c-2.525,0-4.604-0.762-6.236-2.285c-1.633-1.524-2.449-3.439-2.449-5.748c0-1.872,0.545-3.429,1.633-4.669
		c1.088-1.241,2.678-2.145,4.768-2.71c-0.783-0.609-1.545-1.078-2.285-1.404c-0.74-0.327-1.502-0.49-2.285-0.49
		c-1.523,0-3.016,0.48-4.475,1.438c-1.459,0.958-2.863,2.374-4.213,4.245c1.219,2.178,2.123,4.354,2.711,6.53
		c0.588,2.179,0.881,4.441,0.881,6.793c0,7.054-2.645,12.682-7.935,16.883s-12.441,6.303-21.454,6.303
		c-2.353,0-4.758-0.207-7.217-0.621c-2.46-0.413-4.953-1.012-7.479-1.796c-1.089,0.741-1.927,1.502-2.515,2.286
		c-0.588,0.782-0.882,1.523-0.882,2.221c0,1.697,0.652,2.906,1.959,3.624c1.307,0.719,3.568,1.078,6.792,1.078h18.287
		c10.188,0,17.622,1.469,22.304,4.408c4.68,2.938,7.02,7.586,7.02,13.942c0,6.923-3.256,12.213-9.764,15.87
		c-6.51,3.657-15.882,5.486-28.116,5.486c-11.103,0-19.604-1.352-25.503-4.05c-5.9-2.7-8.85-6.554-8.85-11.561
		c0-2.743,1.012-5.04,3.037-6.89c2.023-1.853,5.146-3.342,9.37-4.475c-3.482-0.871-6.16-2.352-8.031-4.44
		c-1.873-2.09-2.81-4.637-2.81-7.643c0-3.004,1.001-5.604,3.004-7.804C1009.071,73.196,1012.054,71.4,1016.016,70.005z
		 M1035.805,96.848c-8.272,0-13.955,0.652-17.046,1.959c-3.092,1.308-4.638,3.548-4.638,6.728c0,3.091,1.709,5.389,5.128,6.891
		c3.417,1.502,8.608,2.253,15.575,2.253c7.488,0,13.062-0.827,16.72-2.481c3.656-1.654,5.485-4.137,5.485-7.444
		c0-2.962-1.415-5.02-4.245-6.172C1049.955,97.424,1044.295,96.848,1035.805,96.848z M1024.572,51.393
		c0,5.529,0.926,9.546,2.775,12.049c1.851,2.505,4.844,3.757,8.979,3.757c4.093,0,7.098-1.229,9.014-3.69
		c1.915-2.459,2.874-6.323,2.874-11.593c0-5.528-0.959-9.589-2.874-12.181c-1.916-2.59-4.921-3.886-9.014-3.886
		c-4.049,0-7.021,1.263-8.914,3.788C1025.519,42.163,1024.572,46.081,1024.572,51.393z"/>
	<path d="M1089.685,93.517V84.57h4.963c3.049,0,5.084-0.479,6.107-1.437c1.021-0.958,1.535-3.156,1.535-6.597V47.343
		c0-3.439-0.514-5.626-1.535-6.563c-1.023-0.936-3.061-1.403-6.107-1.403h-4.963v-9.014h28.932v46.175
		c0,3.396,0.514,5.584,1.535,6.562c1.023,0.979,3.08,1.47,6.172,1.47h4.051v8.947H1089.685z M1099.351,12.599
		c0-2.786,0.947-5.137,2.842-7.054c1.895-1.916,4.232-2.874,7.021-2.874c2.828,0,5.213,0.958,7.15,2.874
		c1.938,1.917,2.906,4.268,2.906,7.054c0,2.787-0.971,5.159-2.906,7.119c-1.938,1.959-4.322,2.939-7.15,2.939
		c-2.744,0-5.074-0.98-6.988-2.939C1100.308,17.758,1099.351,15.386,1099.351,12.599z"/>
	<path d="M1137.166,61.973c0-10.274,3.244-18.516,9.73-24.72s15.107-9.307,25.863-9.307c10.797,0,19.451,3.113,25.959,9.34
		c6.51,6.227,9.764,14.456,9.764,24.688c0,10.188-3.254,18.374-9.764,24.556c-6.508,6.185-15.162,9.274-25.959,9.274
		c-10.756,0-19.377-3.091-25.863-9.274C1140.41,80.347,1137.166,72.161,1137.166,61.973z M1155.388,61.973
		c0,8.143,1.436,14.228,4.309,18.254c2.875,4.027,7.229,6.041,13.062,6.041s10.209-2.023,13.127-6.074
		c2.916-4.049,4.377-10.123,4.377-18.221c0-8.186-1.461-14.312-4.377-18.385c-2.918-4.071-7.293-6.106-13.127-6.106
		c-5.791,0-10.135,2.036-13.029,6.106C1156.833,47.66,1155.388,53.788,1155.388,61.973z"/>
	<path d="M1215.275,93.517V84.57h4.441c3.047,0,5.072-0.479,6.074-1.437c1-0.958,1.502-3.156,1.502-6.597V47.343
		c0-3.439-0.502-5.626-1.502-6.563c-1.002-0.936-3.027-1.403-6.074-1.403h-4.441v-9.014h28.215v11.104
		c3.482-4.354,7.062-7.619,10.742-9.796s7.414-3.267,11.201-3.267c7.271,0,12.496,1.786,15.674,5.355
		c3.18,3.57,4.77,9.535,4.77,17.895v24.884c0,3.439,0.51,5.639,1.535,6.597c1.021,0.958,3.057,1.437,6.105,1.437h3.918v8.947h-38.01
		V84.57h2.678c3.047,0,5.082-0.479,6.105-1.437c1.021-0.958,1.533-3.156,1.533-6.597V51.654c0-4.657-0.771-7.988-2.316-9.991
		c-1.547-2.002-4.082-3.004-7.609-3.004c-5.051,0-9.035,1.917-11.951,5.746c-2.918,3.832-4.375,9.101-4.375,15.806v16.327
		c0,3.439,0.512,5.639,1.535,6.597c1.021,0.958,3.059,1.437,6.105,1.437h2.678v8.947L1215.275,93.517L1215.275,93.517z"/>
	<path d="M1438.763,62.625h10.32v2.548c0,10.015-2.199,17.688-6.598,23.021c-4.396,5.332-10.688,8-18.875,8
		c-3.354,0-6.748-0.632-10.188-1.894c-3.439-1.263-7.031-3.178-10.775-5.748c-4.354,2.57-8.633,4.485-12.834,5.748
		c-4.201,1.262-8.436,1.894-12.701,1.894c-8.797,0-16.121-2.624-21.977-7.869c-5.857-5.246-8.785-11.724-8.785-19.431
		c0-6.27,1.85-11.731,5.551-16.393c3.701-4.658,9.559-8.903,17.568-12.735c-1.219-2.743-2.121-5.397-2.709-7.968
		c-0.588-2.568-0.883-5.137-0.883-7.707c0-6.618,2.154-12.104,6.467-16.458c4.311-4.354,9.771-6.531,16.393-6.531
		c6.139,0,10.973,1.535,14.498,4.604c3.527,3.068,5.291,7.281,5.291,12.637c0,4.833-1.416,9.285-4.246,13.355
		c-2.83,4.071-7.162,7.869-12.996,11.396c2.611,4.485,5.344,8.807,8.195,12.964c2.854,4.159,5.824,8.175,8.916,12.05
		c3.178-3.135,5.67-6.236,7.479-9.307c1.807-3.07,2.711-5.715,2.711-7.936c0-1.132-0.602-1.927-1.797-2.384
		c-1.197-0.457-3.32-0.686-6.367-0.686h-4.049V37.612h42.711V47.8h-4.701c-3.354,0-5.967,0.479-7.838,1.437
		c-1.873,0.958-3.592,2.744-5.16,5.355c-0.217,0.35-0.631,1.111-1.24,2.286c-4.049,7.445-8.752,14.26-14.105,20.441
		c1.566,1.611,3.178,2.799,4.832,3.56c1.654,0.763,3.375,1.144,5.16,1.144c4.092,0,7.15-1.545,9.176-4.638
		C1437.23,74.294,1438.416,69.375,1438.763,62.625z M1374.957,51c-3.266,1.829-5.682,3.876-7.248,6.139
		c-1.568,2.266-2.354,4.812-2.354,7.643c0,5.354,1.611,9.741,4.834,13.159s7.4,5.127,12.539,5.127c1.697,0,3.461-0.262,5.289-0.783
		c1.83-0.522,3.811-1.327,5.943-2.416c-3.482-4.093-6.76-8.479-9.828-13.16S1378.003,56.792,1374.957,51z M1385.146,32.649
		c3.787-1.872,6.65-3.939,8.588-6.205c1.938-2.263,2.906-4.701,2.906-7.313c0-2.264-0.742-4.115-2.221-5.551
		c-1.48-1.438-3.418-2.155-5.812-2.155c-2.525,0-4.562,0.795-6.105,2.384c-1.547,1.59-2.318,3.69-2.318,6.302
		c0,1.873,0.424,3.887,1.273,6.041C1382.304,28.306,1383.535,30.472,1385.146,32.649z"/>
	<path d="M1566.509,41.205c4.006-4.528,7.75-7.793,11.232-9.797c3.482-2.002,7.141-3.005,10.973-3.005
		c2.873,0,5.529,0.447,7.969,1.34c2.438,0.893,4.418,2.123,5.941,3.689c1.609,1.742,2.754,3.799,3.43,6.172
		c0.674,2.374,1.012,6.391,1.012,12.049v24.884c0,3.439,0.5,5.639,1.502,6.597s3.025,1.437,6.074,1.437h3.787v8.947h-36.508V84.57
		h1.438c3.092,0,5.16-0.489,6.205-1.47c1.045-0.979,1.566-3.167,1.566-6.562V51.654c0-5.137-0.664-8.588-1.992-10.352
		s-3.689-2.645-7.086-2.645c-4.092,0-7.6,1.677-10.516,5.028c-2.918,3.354-4.375,7.533-4.375,12.539v20.312
		c0,3.439,0.512,5.639,1.535,6.597c1.021,0.958,3.059,1.437,6.105,1.437h1.633v8.947h-34.418V84.57h1.502
		c3.092,0,5.16-0.489,6.205-1.47c1.045-0.979,1.566-3.167,1.566-6.562V51.654c0-5.137-0.676-8.588-2.023-10.352
		c-1.35-1.763-3.723-2.645-7.119-2.645c-4.094,0-7.588,1.677-10.48,5.028c-2.896,3.354-4.346,7.533-4.346,12.539v20.312
		c0,3.439,0.514,5.639,1.535,6.597c1.023,0.958,3.061,1.437,6.107,1.437h1.566v8.947h-37.162V84.57h4.441
		c3.047,0,5.072-0.479,6.074-1.437c1-0.958,1.502-3.156,1.502-6.597V47.343c0-3.439-0.502-5.626-1.502-6.563
		c-1.002-0.936-3.027-1.403-6.074-1.403h-4.441v-9.014h27.953v10.712c3.439-4.441,6.891-7.663,10.352-9.666
		c3.463-2.002,7.283-3.005,11.463-3.005c4.311,0,7.912,1.067,10.809,3.2C1562.841,33.738,1565.029,36.938,1566.509,41.205z"/>
	<path d="M1676.228,70.92h11.234c-0.959,7.75-4.062,13.855-9.309,18.319c-5.246,4.462-11.963,6.692-20.146,6.692
		c-10.188,0-18.311-3.079-24.359-9.241c-6.053-6.159-9.078-14.399-9.078-24.719c0-10.188,3.059-18.406,9.176-24.655
		c6.117-6.247,14.205-9.372,24.264-9.372c9.707,0,17.111,3.016,22.205,9.046s7.641,14.793,7.641,26.286h-45.062
		c0.262,7.143,1.773,12.583,4.539,16.327c2.764,3.745,6.648,5.617,11.656,5.617c5.139,0,9.023-1.1,11.658-3.299
		C1673.279,79.727,1675.14,76.058,1676.228,70.92z M1670.156,53.809c-0.393-5.834-1.578-10.101-3.561-12.801
		c-1.98-2.699-4.887-4.049-8.719-4.049c-3.918,0-7.107,1.426-9.566,4.276c-2.461,2.854-4.082,7.043-4.867,12.572L1670.156,53.809
		L1670.156,53.809z"/>
	<path d="M1745.392,20.763c0-3.438-0.514-5.638-1.535-6.596c-1.023-0.958-3.061-1.438-6.105-1.438h-5.617V3.782h29.455v72.754
		c0,3.439,0.51,5.639,1.535,6.597c1.021,0.958,3.057,1.437,6.105,1.437h3.854v8.947h-27.691V82.545
		c-2.178,4.396-5.02,7.641-8.521,9.729c-3.506,2.091-7.85,3.136-13.029,3.136c-8.535,0-15.186-2.948-19.953-8.85
		c-4.768-5.898-7.15-14.183-7.15-24.851c0-10.667,2.385-18.961,7.15-24.883c4.768-5.921,11.418-8.883,19.953-8.883
		c5.137,0,9.459,1.057,12.963,3.167c3.506,2.112,6.369,5.389,8.59,9.829V20.763H1745.392z M1714.892,62.104
		c0,7.575,1.262,13.235,3.787,16.979c2.525,3.745,6.355,5.617,11.494,5.617c4.703,0,8.414-2.004,11.137-6.01
		c2.721-4.005,4.082-9.534,4.082-16.588c0-7.055-1.361-12.562-4.082-16.523c-2.723-3.961-6.434-5.943-11.137-5.943
		c-5.182,0-9.023,1.851-11.525,5.551C1716.142,48.89,1714.892,54.528,1714.892,62.104z"/>
	<path d="M1778.83,93.517V84.57h4.963c3.049,0,5.084-0.479,6.105-1.437c1.023-0.958,1.535-3.156,1.535-6.597V47.343
		c0-3.439-0.512-5.626-1.535-6.563c-1.021-0.936-3.059-1.403-6.105-1.403h-4.963v-9.014h28.932v46.175
		c0,3.396,0.512,5.584,1.535,6.562c1.021,0.979,3.08,1.47,6.172,1.47h4.049v8.947H1778.83z M1788.496,12.599
		c0-2.786,0.945-5.137,2.842-7.054c1.893-1.916,4.232-2.874,7.02-2.874c2.83,0,5.213,0.958,7.152,2.874
		c1.936,1.917,2.906,4.268,2.906,7.054c0,2.787-0.971,5.159-2.906,7.119c-1.939,1.959-4.322,2.939-7.152,2.939
		c-2.742,0-5.072-0.98-6.986-2.939C1789.453,17.758,1788.496,15.386,1788.496,12.599z"/>
	<path d="M1866.998,85.875c-2.656,3.439-5.748,5.977-9.273,7.608c-3.527,1.633-7.664,2.448-12.41,2.448
		c-5.615,0-10.211-1.611-13.779-4.832c-3.57-3.222-5.355-7.357-5.355-12.409c0-4.833,1.523-8.751,4.572-11.756
		c3.047-3.004,8.271-5.638,15.674-7.901c1.742-0.565,4.572-1.328,8.49-2.285c3.92-0.958,6.51-1.852,7.771-2.679
		c1.609-1.045,2.754-2.23,3.428-3.561c0.676-1.327,1.014-2.992,1.014-4.996c0-3.265-1.188-5.78-3.561-7.543
		c-2.373-1.764-5.779-2.645-10.221-2.645c-2.873,0-5.322,0.315-7.348,0.946c-2.023,0.632-3.82,1.623-5.389,2.973h0.457
		c2.613,0,4.67,0.643,6.172,1.927c1.502,1.285,2.254,3.081,2.254,5.388c0,2.57-0.859,4.637-2.578,6.205
		c-1.723,1.567-3.996,2.353-6.826,2.353c-3.135,0-5.703-0.97-7.705-2.906c-2.004-1.938-3.006-4.452-3.006-7.544
		c0-4.963,2.361-8.99,7.086-12.082c4.725-3.091,11.025-4.638,18.908-4.638c4.482,0,8.457,0.393,11.918,1.176
		c3.463,0.784,6.303,1.917,8.523,3.396c2.568,1.698,4.375,3.854,5.42,6.466c1.045,2.612,1.566,6.968,1.566,13.062v28.083
		c0,1.566,0.25,2.722,0.752,3.462c0.5,0.74,1.273,1.11,2.318,1.11c1.609,0,2.697-0.851,3.266-2.549
		c0.564-1.696,0.85-5.746,0.85-12.146h8.162v2.809c0,8.188-1.295,14.086-3.885,17.699c-2.592,3.613-6.824,5.42-12.703,5.42
		c-3.963,0-7.129-0.815-9.502-2.448C1869.685,91.852,1867.998,89.316,1866.998,85.875z M1866.736,60.471
		c-1.828,0.871-4.354,1.981-7.576,3.33c-9.926,4.311-14.891,8.73-14.891,13.258c0,2.438,0.719,4.321,2.156,5.649
		c1.436,1.328,3.48,1.992,6.139,1.992c4.354,0,7.805-1.471,10.352-4.409c2.549-2.938,3.82-6.998,3.82-12.181V60.471L1866.736,60.471
		z"/>
</g>
</svg>
