<?xml version="1.0" encoding="utf-8"?>
<!-- Generator: Adobe Illustrator 16.0.0, SVG Export Plug-In . SVG Version: 6.00 Build 0)  -->
<!DOCTYPE svg PUBLIC "-//W3C//DTD SVG 1.1//EN" "http://www.w3.org/Graphics/SVG/1.1/DTD/svg11.dtd">
<svg version="1.1" id="Layer_1" xmlns="http://www.w3.org/2000/svg" xmlns:xlink="http://www.w3.org/1999/xlink" x="0px" y="0px"
	 width="1898.149px" height="121.149px" viewBox="-109.974 1.104 1898.149 121.149"
	 enable-background="new -109.974 1.104 1898.149 121.149" xml:space="preserve">
<g>
	<path d="M-69.155,85.875c-2.656,3.44-5.747,5.977-9.273,7.609c-3.527,1.632-7.664,2.448-12.409,2.448
		c-5.616,0-10.211-1.611-13.78-4.832c-3.57-3.222-5.355-7.358-5.355-12.409c0-4.833,1.523-8.751,4.572-11.756
		c3.047-3.004,8.271-5.638,15.674-7.902c1.741-0.565,4.571-1.328,8.49-2.285c3.919-0.958,6.509-1.851,7.771-2.678
		c1.61-1.045,2.754-2.231,3.429-3.561c0.675-1.327,1.013-2.992,1.013-4.996c0-3.265-1.187-5.78-3.56-7.543
		c-2.373-1.764-5.779-2.645-10.221-2.645c-2.874,0-5.323,0.316-7.348,0.947c-2.024,0.632-3.82,1.623-5.388,2.972h0.457
		c2.612,0,4.67,0.643,6.172,1.927c1.502,1.285,2.253,3.081,2.253,5.388c0,2.57-0.86,4.637-2.579,6.205
		c-1.721,1.567-3.995,2.352-6.825,2.352c-3.135,0-5.704-0.969-7.706-2.906c-2.004-1.938-3.005-4.452-3.005-7.544
		c0-4.963,2.361-8.99,7.086-12.082c4.724-3.091,11.026-4.637,18.907-4.637c4.484,0,8.458,0.392,11.919,1.175
		c3.462,0.784,6.303,1.917,8.523,3.396c2.568,1.698,4.375,3.854,5.42,6.466s1.567,6.967,1.567,13.062v28.083
		c0,1.567,0.25,2.722,0.751,3.462c0.5,0.74,1.274,1.11,2.319,1.11c1.609,0,2.698-0.85,3.265-2.548
		c0.565-1.697,0.85-5.747,0.85-12.147h8.163v2.809c0,8.187-1.296,14.086-3.886,17.699c-2.591,3.613-6.824,5.42-12.702,5.42
		c-3.963,0-7.13-0.816-9.503-2.448C-66.467,91.852-68.154,89.316-69.155,85.875z M-69.416,60.471
		c-1.829,0.871-4.354,1.981-7.576,3.33c-9.927,4.311-14.891,8.73-14.891,13.258c0,2.438,0.719,4.321,2.155,5.649
		s3.482,1.992,6.139,1.992c4.354,0,7.805-1.47,10.352-4.409c2.548-2.938,3.821-6.998,3.821-12.18V60.471z"/>
	<path d="M35.536,76.537c0,3.44,0.511,5.639,1.535,6.597c1.022,0.958,3.058,1.437,6.106,1.437h6.661v8.947H7.322V84.57h4.441
		c3.047,0,5.071-0.479,6.073-1.437c1.001-0.958,1.503-3.156,1.503-6.597V47.343c0-3.439-0.502-5.626-1.503-6.563
		c-1.002-0.936-3.026-1.404-6.073-1.404H7.322v-9.013h28.214v9.535c2.09-3.744,4.527-6.552,7.314-8.425
		c2.786-1.872,5.921-2.808,9.404-2.808c4.789,0,8.687,1.339,11.69,4.017c3.005,2.678,4.507,6.15,4.507,10.417
		c0,3.354-1.002,6.085-3.005,8.196c-2.003,2.112-4.615,3.167-7.837,3.167c-2.743,0-4.963-0.771-6.661-2.318
		c-1.698-1.545-2.547-3.536-2.547-5.975c0-2.221,0.695-4.104,2.09-5.649c1.393-1.545,3.417-2.688,6.073-3.429
		c-1.002-0.435-1.971-0.772-2.906-1.012c-0.937-0.239-1.796-0.359-2.579-0.359c-4.441,0-8.143,2.232-11.103,6.694
		c-2.962,4.463-4.441,10.178-4.441,17.144V76.537z"/>
	<path d="M126.119,70.92h11.233c-0.958,7.75-4.061,13.856-9.307,18.319c-5.247,4.462-11.963,6.693-20.147,6.693
		c-10.188,0-18.31-3.079-24.36-9.241c-6.053-6.16-9.078-14.4-9.078-24.719c0-10.188,3.059-18.406,9.176-24.655
		c6.117-6.247,14.205-9.372,24.263-9.372c9.708,0,17.111,3.015,22.205,9.045c5.094,6.031,7.642,14.793,7.642,26.287H92.682
		c0.261,7.142,1.773,12.583,4.539,16.327c2.764,3.745,6.649,5.617,11.657,5.617c5.137,0,9.022-1.1,11.657-3.299
		C123.17,79.727,125.03,76.058,126.119,70.92z M120.046,53.809c-0.392-5.834-1.579-10.101-3.56-12.801
		c-1.981-2.699-4.888-4.049-8.719-4.049c-3.919,0-7.108,1.426-9.567,4.277c-2.461,2.853-4.082,7.043-4.866,12.572H120.046z"/>
	<path d="M170.398,93.517l-16.327-47.349c-0.871-2.438-1.872-4.18-3.004-5.225c-1.133-1.045-2.525-1.567-4.18-1.567h-3.919v-9.013
		h34.811v9.013h-2.155c-1.742,0-3.049,0.272-3.919,0.816c-0.871,0.545-1.307,1.383-1.307,2.515c0,0.61,0.099,1.394,0.294,2.351
		c0.196,0.958,0.512,2.09,0.947,3.396l9.862,29.128l10.71-30.369c0.305-0.784,0.533-1.535,0.687-2.253
		c0.151-0.718,0.229-1.381,0.229-1.992c0-1.262-0.48-2.177-1.438-2.743c-0.958-0.565-2.481-0.849-4.571-0.849h-3.2v-9.013h31.152
		v9.013h-3.331c-1.828,0-3.407,0.653-4.734,1.959c-1.329,1.306-2.472,3.353-3.429,6.139l-16.197,46.043H170.398z"/>
	<path d="M219.382,93.517V84.57h4.963c3.048,0,5.083-0.479,6.106-1.437c1.022-0.958,1.535-3.156,1.535-6.597V47.343
		c0-3.439-0.513-5.626-1.535-6.563c-1.023-0.936-3.059-1.404-6.106-1.404h-4.963v-9.013h28.932v46.174
		c0,3.396,0.512,5.584,1.535,6.563c1.022,0.979,3.079,1.47,6.172,1.47h4.049v8.947H219.382z M229.047,12.599
		c0-2.786,0.947-5.137,2.842-7.054c1.894-1.916,4.233-2.874,7.021-2.874c2.829,0,5.213,0.958,7.151,2.874
		c1.937,1.917,2.906,4.268,2.906,7.054c0,2.787-0.97,5.159-2.906,7.119c-1.938,1.959-4.322,2.939-7.151,2.939
		c-2.743,0-5.073-0.98-6.988-2.939C230.005,17.758,229.047,15.386,229.047,12.599z"/>
	<path d="M318.521,70.92h11.233c-0.958,7.75-4.061,13.856-9.307,18.319c-5.247,4.462-11.963,6.693-20.147,6.693
		c-10.188,0-18.31-3.079-24.36-9.241c-6.053-6.16-9.078-14.4-9.078-24.719c0-10.188,3.059-18.406,9.176-24.655
		c6.117-6.247,14.205-9.372,24.263-9.372c9.708,0,17.111,3.015,22.205,9.045c5.094,6.031,7.642,14.793,7.642,26.287h-45.063
		c0.261,7.142,1.773,12.583,4.539,16.327c2.764,3.745,6.649,5.617,11.657,5.617c5.137,0,9.022-1.1,11.657-3.299
		C315.571,79.727,317.432,76.058,318.521,70.92z M312.447,53.809c-0.392-5.834-1.579-10.101-3.56-12.801
		c-1.981-2.699-4.888-4.049-8.719-4.049c-3.919,0-7.108,1.426-9.567,4.277c-2.461,2.853-4.082,7.043-4.866,12.572H312.447z"/>
	<path d="M361.886,93.517l-15.151-46.435c-1.045-3.221-2.112-5.312-3.2-6.27c-1.089-0.957-2.635-1.437-4.637-1.437h-2.809v-9.013
		H369.2v9.013H366c-1.567,0-2.688,0.251-3.363,0.751c-0.675,0.501-1.012,1.317-1.012,2.449c0,0.48,0.098,1.154,0.294,2.025
		c0.195,0.871,0.489,1.959,0.881,3.265l9.078,31.087l11.233-31.413c0.305-0.784,0.544-1.557,0.719-2.319
		c0.173-0.761,0.261-1.425,0.261-1.992c0-1.437-0.436-2.438-1.306-3.004c-0.872-0.565-2.439-0.849-4.702-0.849h-2.548v-9.013h32.328
		v9.013h-3.983c-1.437,0-2.493,0.24-3.168,0.719c-0.675,0.479-1.012,1.263-1.012,2.351c0,0.61,0.075,1.263,0.229,1.959
		c0.152,0.697,0.359,1.416,0.62,2.155l10.711,33.046l9.861-30.369c0.436-1.262,0.772-2.47,1.013-3.625
		c0.239-1.153,0.359-2.123,0.359-2.906c0-1.001-0.403-1.806-1.208-2.417c-0.807-0.609-1.84-0.915-3.103-0.915h-3.331v-9.013h27.822
		v9.013h-2.939c-1.698,0-3.102,0.632-4.212,1.894c-1.11,1.264-2.211,3.527-3.299,6.792l-15.086,45.455h-15.805l-11.364-35.333
		l-12.017,35.333H361.886z"/>
	<path d="M490.546,61.973c0-10.275,3.243-18.516,9.731-24.72c6.486-6.204,15.107-9.306,25.862-9.306
		c10.797,0,19.451,3.113,25.96,9.339c6.509,6.227,9.764,14.456,9.764,24.688c0,10.188-3.255,18.374-9.764,24.556
		c-6.509,6.184-15.163,9.274-25.96,9.274c-10.755,0-19.376-3.091-25.862-9.274C493.789,80.347,490.546,72.161,490.546,61.973z
		 M508.768,61.973c0,8.142,1.437,14.227,4.31,18.254c2.874,4.027,7.228,6.041,13.062,6.041c5.834,0,10.209-2.024,13.127-6.074
		c2.916-4.049,4.376-10.123,4.376-18.221c0-8.186-1.46-14.313-4.376-18.385c-2.918-4.071-7.293-6.106-13.127-6.106
		c-5.791,0-10.135,2.036-13.029,6.106C510.214,47.66,508.768,53.788,508.768,61.973z"/>
	<path d="M580.673,39.898h-12.018v-9.404h12.018v-1.959c0-9.055,1.915-15.848,5.747-20.376c3.83-4.528,9.557-6.792,17.176-6.792
		c5.834,0,10.548,1.296,14.14,3.886c3.592,2.591,5.388,5.976,5.388,10.156c0,3.048-0.827,5.464-2.481,7.25
		c-1.655,1.786-3.876,2.677-6.661,2.677c-2.439,0-4.452-0.729-6.041-2.188c-1.59-1.458-2.384-3.32-2.384-5.584
		c0-1.872,0.511-3.45,1.534-4.735c1.022-1.284,2.427-2.166,4.213-2.645c-0.741-0.609-1.579-1.078-2.515-1.404
		c-0.937-0.327-1.971-0.49-3.103-0.49c-3.223,0-5.497,0.979-6.824,2.939c-1.329,1.959-1.992,5.399-1.992,10.319v8.947h13.649v9.404
		h-13.649v36.639c0,3.44,0.511,5.639,1.535,6.597c1.022,0.958,3.058,1.437,6.106,1.437h6.008v8.947h-41.863V84.57h3.854
		c3.353,0,5.551-0.479,6.596-1.437c1.046-0.958,1.568-3.156,1.568-6.597V39.898z"/>
	<path d="M688.629,76.537c0,3.44,0.511,5.639,1.535,6.597c1.022,0.958,3.058,1.437,6.106,1.437h6.661v8.947h-42.517V84.57h4.441
		c3.047,0,5.071-0.479,6.073-1.437c1.001-0.958,1.503-3.156,1.503-6.597V47.343c0-3.439-0.502-5.626-1.503-6.563
		c-1.002-0.936-3.026-1.404-6.073-1.404h-4.441v-9.013h28.214v9.535c2.09-3.744,4.527-6.552,7.314-8.425
		c2.786-1.872,5.921-2.808,9.404-2.808c4.789,0,8.687,1.339,11.69,4.017c3.005,2.678,4.507,6.15,4.507,10.417
		c0,3.354-1.002,6.085-3.005,8.196c-2.003,2.112-4.615,3.167-7.837,3.167c-2.743,0-4.963-0.771-6.661-2.318
		c-1.698-1.545-2.547-3.536-2.547-5.975c0-2.221,0.695-4.104,2.09-5.649c1.393-1.545,3.417-2.688,6.073-3.429
		c-1.002-0.435-1.971-0.772-2.906-1.012c-0.937-0.239-1.796-0.359-2.579-0.359c-4.441,0-8.143,2.232-11.103,6.694
		c-2.962,4.463-4.441,10.178-4.441,17.144V76.537z"/>
	<path d="M779.212,70.92h11.233c-0.958,7.75-4.061,13.856-9.307,18.319c-5.247,4.462-11.963,6.693-20.147,6.693
		c-10.188,0-18.31-3.079-24.36-9.241c-6.053-6.16-9.078-14.4-9.078-24.719c0-10.188,3.059-18.406,9.176-24.655
		c6.117-6.247,14.205-9.372,24.263-9.372c9.708,0,17.111,3.015,22.205,9.045c5.094,6.031,7.642,14.793,7.642,26.287h-45.063
		c0.261,7.142,1.773,12.583,4.539,16.327c2.764,3.745,6.649,5.617,11.657,5.617c5.137,0,9.022-1.1,11.657-3.299
		C776.263,79.727,778.123,76.058,779.212,70.92z M773.139,53.809c-0.392-5.834-1.579-10.101-3.56-12.801
		c-1.981-2.699-4.888-4.049-8.719-4.049c-3.919,0-7.108,1.426-9.567,4.277c-2.461,2.853-4.082,7.043-4.866,12.572H773.139z"/>
	<path d="M809.713,20.763c0-3.396-0.513-5.584-1.535-6.564c-1.023-0.979-3.103-1.469-6.237-1.469h-3.983V3.782h28.083v72.754
		c0,3.396,0.522,5.584,1.567,6.563s3.112,1.47,6.204,1.47h3.983v8.947h-39.838V84.57h3.983c3.135,0,5.214-0.49,6.237-1.47
		c1.022-0.979,1.535-3.167,1.535-6.563V20.763z"/>
	<path d="M843.935,93.517V84.57h4.963c3.048,0,5.083-0.479,6.106-1.437c1.022-0.958,1.535-3.156,1.535-6.597V47.343
		c0-3.439-0.513-5.626-1.535-6.563c-1.023-0.936-3.059-1.404-6.106-1.404h-4.963v-9.013h28.932v46.174
		c0,3.396,0.512,5.584,1.535,6.563c1.022,0.979,3.079,1.47,6.172,1.47h4.049v8.947H843.935z M853.6,12.599
		c0-2.786,0.947-5.137,2.842-7.054c1.894-1.916,4.233-2.874,7.021-2.874c2.829,0,5.213,0.958,7.151,2.874
		c1.937,1.917,2.906,4.268,2.906,7.054c0,2.787-0.97,5.159-2.906,7.119c-1.938,1.959-4.322,2.939-7.151,2.939
		c-2.743,0-5.073-0.98-6.988-2.939C854.558,17.758,853.6,15.386,853.6,12.599z"/>
	<path d="M906.043,70.005c-3.135-2.699-5.442-5.528-6.923-8.489s-2.22-6.161-2.22-9.602c0-7.27,2.742-13.083,8.229-17.437
		c5.486-4.354,12.866-6.531,22.14-6.531c4.093,0,7.945,0.522,11.56,1.567s6.944,2.591,9.993,4.637
		c1.959-2.09,3.994-3.646,6.106-4.669c2.111-1.022,4.408-1.535,6.89-1.535c4.614,0,8.239,1.198,10.874,3.592
		c2.634,2.395,3.951,5.661,3.951,9.796c0,2.787-0.827,5.073-2.481,6.857c-1.655,1.786-3.767,2.677-6.335,2.677
		c-2.526,0-4.604-0.761-6.237-2.285c-1.633-1.524-2.449-3.439-2.449-5.748c0-1.872,0.544-3.429,1.633-4.669
		c1.088-1.241,2.678-2.144,4.768-2.71c-0.783-0.609-1.546-1.078-2.286-1.404c-0.74-0.327-1.502-0.49-2.285-0.49
		c-1.524,0-3.016,0.48-4.474,1.437c-1.46,0.958-2.864,2.374-4.213,4.245c1.219,2.178,2.123,4.354,2.71,6.531
		c0.588,2.178,0.882,4.441,0.882,6.793c0,7.053-2.645,12.681-7.935,16.882c-5.29,4.202-12.441,6.303-21.454,6.303
		c-2.352,0-4.758-0.207-7.217-0.621c-2.46-0.413-4.953-1.012-7.478-1.796c-1.089,0.741-1.927,1.502-2.515,2.286
		c-0.588,0.783-0.882,1.524-0.882,2.221c0,1.697,0.653,2.906,1.959,3.624c1.307,0.719,3.569,1.078,6.792,1.078h18.287
		c10.188,0,17.622,1.469,22.303,4.408c4.68,2.938,7.021,7.586,7.021,13.943c0,6.923-3.256,12.213-9.765,15.87
		s-15.881,5.486-28.115,5.486c-11.103,0-19.604-1.351-25.503-4.05c-5.9-2.7-8.85-6.553-8.85-11.56c0-2.743,1.012-5.04,3.037-6.89
		c2.024-1.852,5.147-3.342,9.371-4.474c-3.483-0.872-6.161-2.352-8.032-4.441c-1.873-2.09-2.809-4.637-2.809-7.642
		c0-3.004,1.001-5.604,3.004-7.804C899.098,73.196,902.081,71.4,906.043,70.005z M925.832,96.848
		c-8.272,0-13.955,0.652-17.046,1.959c-3.092,1.307-4.637,3.548-4.637,6.727c0,3.091,1.708,5.389,5.127,6.891
		c3.417,1.502,8.609,2.253,15.576,2.253c7.488,0,13.062-0.827,16.719-2.481c3.657-1.655,5.486-4.137,5.486-7.445
		c0-2.962-1.415-5.019-4.245-6.172C939.981,97.424,934.322,96.848,925.832,96.848z M914.599,51.393
		c0,5.529,0.925,9.546,2.775,12.049c1.851,2.505,4.844,3.756,8.98,3.756c4.092,0,7.097-1.229,9.013-3.69
		c1.915-2.459,2.874-6.323,2.874-11.593c0-5.528-0.959-9.589-2.874-12.18c-1.916-2.59-4.921-3.886-9.013-3.886
		c-4.049,0-7.021,1.263-8.915,3.788C915.546,42.163,914.599,46.081,914.599,51.393z"/>
	<path d="M979.712,93.517V84.57h4.963c3.048,0,5.083-0.479,6.106-1.437c1.022-0.958,1.535-3.156,1.535-6.597V47.343
		c0-3.439-0.513-5.626-1.535-6.563c-1.023-0.936-3.059-1.404-6.106-1.404h-4.963v-9.013h28.932v46.174
		c0,3.396,0.512,5.584,1.535,6.563c1.022,0.979,3.079,1.47,6.172,1.47h4.049v8.947H979.712z M989.377,12.599
		c0-2.786,0.947-5.137,2.842-7.054c1.894-1.916,4.233-2.874,7.021-2.874c2.829,0,5.213,0.958,7.151,2.874
		c1.937,1.917,2.906,4.268,2.906,7.054c0,2.787-0.97,5.159-2.906,7.119c-1.938,1.959-4.322,2.939-7.151,2.939
		c-2.743,0-5.073-0.98-6.988-2.939C990.335,17.758,989.377,15.386,989.377,12.599z"/>
	<path d="M1027.192,61.973c0-10.275,3.243-18.516,9.731-24.72c6.486-6.204,15.107-9.306,25.862-9.306
		c10.797,0,19.451,3.113,25.96,9.339c6.509,6.227,9.764,14.456,9.764,24.688c0,10.188-3.255,18.374-9.764,24.556
		c-6.509,6.184-15.163,9.274-25.96,9.274c-10.755,0-19.376-3.091-25.862-9.274C1030.436,80.347,1027.192,72.161,1027.192,61.973z
		 M1045.414,61.973c0,8.142,1.437,14.227,4.31,18.254c2.874,4.027,7.228,6.041,13.062,6.041c5.834,0,10.209-2.024,13.127-6.074
		c2.916-4.049,4.376-10.123,4.376-18.221c0-8.186-1.46-14.313-4.376-18.385c-2.918-4.071-7.293-6.106-13.127-6.106
		c-5.791,0-10.135,2.036-13.029,6.106C1046.86,47.66,1045.414,53.788,1045.414,61.973z"/>
	<path d="M1105.302,93.517V84.57h4.441c3.047,0,5.071-0.479,6.073-1.437c1.001-0.958,1.503-3.156,1.503-6.597V47.343
		c0-3.439-0.502-5.626-1.503-6.563c-1.002-0.936-3.026-1.404-6.073-1.404h-4.441v-9.013h28.214v11.103
		c3.482-4.354,7.063-7.619,10.743-9.796c3.679-2.177,7.413-3.266,11.201-3.266c7.271,0,12.495,1.786,15.674,5.355
		c3.178,3.57,4.768,9.535,4.768,17.895v24.883c0,3.44,0.511,5.639,1.535,6.597c1.022,0.958,3.058,1.437,6.106,1.437h3.918v8.947
		h-38.01V84.57h2.678c3.047,0,5.083-0.479,6.106-1.437c1.022-0.958,1.534-3.156,1.534-6.597V51.654c0-4.658-0.773-7.989-2.318-9.992
		c-1.546-2.002-4.082-3.004-7.608-3.004c-5.051,0-9.035,1.917-11.951,5.747c-2.918,3.832-4.376,9.1-4.376,15.805v16.327
		c0,3.44,0.511,5.639,1.535,6.597c1.022,0.958,3.058,1.437,6.106,1.437h2.677v8.947H1105.302z"/>
	<path d="M1328.79,62.625h10.319v2.548c0,10.015-2.199,17.688-6.597,23.021c-4.397,5.332-10.688,8-18.874,8
		c-3.354,0-6.749-0.632-10.188-1.894c-3.439-1.263-7.031-3.178-10.775-5.748c-4.354,2.57-8.633,4.485-12.834,5.748
		c-4.202,1.262-8.436,1.894-12.702,1.894c-8.796,0-16.121-2.624-21.977-7.87c-5.856-5.246-8.784-11.723-8.784-19.43
		c0-6.27,1.85-11.732,5.551-16.393c3.7-4.658,9.557-8.903,17.568-12.735c-1.219-2.743-2.122-5.398-2.71-7.968
		c-0.588-2.568-0.882-5.137-0.882-7.707c0-6.618,2.155-12.104,6.466-16.458c4.311-4.353,9.773-6.531,16.393-6.531
		c6.139,0,10.972,1.535,14.498,4.604c3.527,3.069,5.291,7.282,5.291,12.637c0,4.833-1.416,9.285-4.245,13.355
		c-2.831,4.072-7.163,7.87-12.997,11.396c2.612,4.485,5.344,8.807,8.196,12.964c2.852,4.159,5.823,8.175,8.915,12.05
		c3.178-3.135,5.671-6.237,7.478-9.307s2.711-5.715,2.711-7.936c0-1.131-0.6-1.926-1.797-2.383s-3.32-0.686-6.367-0.686h-4.049
		V37.612h42.712v10.188h-4.702c-3.354,0-5.966,0.479-7.837,1.437c-1.873,0.958-3.593,2.744-5.16,5.355
		c-0.218,0.35-0.631,1.111-1.24,2.286c-4.05,7.445-8.752,14.26-14.107,20.442c1.567,1.611,3.178,2.798,4.833,3.559
		c1.654,0.763,3.374,1.144,5.159,1.144c4.093,0,7.151-1.545,9.177-4.638C1327.256,74.294,1328.441,69.375,1328.79,62.625z
		 M1264.983,51c-3.266,1.829-5.682,3.876-7.249,6.139c-1.567,2.266-2.352,4.812-2.352,7.642c0,5.355,1.61,9.742,4.833,13.16
		c3.222,3.418,7.401,5.127,12.539,5.127c1.698,0,3.462-0.262,5.29-0.784c1.829-0.522,3.81-1.327,5.943-2.416
		c-3.483-4.092-6.76-8.479-9.829-13.16C1271.09,62.028,1268.03,56.792,1264.983,51z M1275.172,32.649
		c3.787-1.872,6.65-3.94,8.588-6.205c1.937-2.263,2.906-4.702,2.906-7.314c0-2.264-0.741-4.115-2.221-5.551
		c-1.48-1.437-3.418-2.155-5.812-2.155c-2.525,0-4.562,0.795-6.106,2.384c-1.546,1.59-2.318,3.69-2.318,6.302
		c0,1.873,0.425,3.886,1.273,6.041C1272.331,28.306,1273.561,30.472,1275.172,32.649z"/>
	<path d="M1456.535,41.205c4.006-4.528,7.75-7.793,11.233-9.797c3.483-2.002,7.141-3.004,10.973-3.004
		c2.873,0,5.528,0.447,7.968,1.339c2.438,0.893,4.418,2.123,5.942,3.69c1.61,1.742,2.754,3.799,3.429,6.172
		c0.675,2.374,1.013,6.39,1.013,12.049v24.883c0,3.44,0.5,5.639,1.502,6.597c1.001,0.958,3.025,1.437,6.074,1.437h3.787v8.947
		h-36.508V84.57h1.438c3.091,0,5.159-0.49,6.204-1.47s1.567-3.167,1.567-6.563V51.654c0-5.137-0.664-8.588-1.992-10.352
		s-3.689-2.645-7.086-2.645c-4.093,0-7.599,1.677-10.515,5.029c-2.918,3.354-4.376,7.533-4.376,12.539v20.312
		c0,3.44,0.512,5.639,1.535,6.597c1.022,0.958,3.059,1.437,6.106,1.437h1.633v8.947h-34.418V84.57h1.502
		c3.091,0,5.159-0.49,6.204-1.47s1.567-3.167,1.567-6.563V51.654c0-5.137-0.676-8.588-2.024-10.352
		c-1.35-1.763-3.723-2.645-7.119-2.645c-4.093,0-7.587,1.677-10.481,5.029c-2.896,3.354-4.344,7.533-4.344,12.539v20.312
		c0,3.44,0.512,5.639,1.535,6.597c1.022,0.958,3.059,1.437,6.106,1.437h1.567v8.947h-37.161V84.57h4.441
		c3.047,0,5.071-0.479,6.073-1.437c1.001-0.958,1.503-3.156,1.503-6.597V47.343c0-3.439-0.502-5.626-1.503-6.563
		c-1.002-0.936-3.026-1.404-6.073-1.404h-4.441v-9.013h27.952v10.711c3.439-4.441,6.891-7.663,10.352-9.666
		c3.462-2.002,7.282-3.004,11.462-3.004c4.311,0,7.913,1.067,10.809,3.2C1452.867,33.738,1455.055,36.938,1456.535,41.205z"/>
	<path d="M1566.255,70.92h11.233c-0.958,7.75-4.061,13.856-9.307,18.319c-5.247,4.462-11.963,6.693-20.147,6.693
		c-10.188,0-18.31-3.079-24.36-9.241c-6.053-6.16-9.078-14.4-9.078-24.719c0-10.188,3.059-18.406,9.176-24.655
		c6.117-6.247,14.205-9.372,24.263-9.372c9.708,0,17.111,3.015,22.205,9.045c5.094,6.031,7.642,14.793,7.642,26.287h-45.063
		c0.261,7.142,1.773,12.583,4.539,16.327c2.764,3.745,6.649,5.617,11.657,5.617c5.137,0,9.022-1.1,11.657-3.299
		C1563.306,79.727,1565.166,76.058,1566.255,70.92z M1560.182,53.809c-0.392-5.834-1.579-10.101-3.56-12.801
		c-1.981-2.699-4.888-4.049-8.719-4.049c-3.919,0-7.108,1.426-9.567,4.277c-2.461,2.853-4.082,7.043-4.866,12.572H1560.182z"/>
	<path d="M1635.418,20.763c0-3.439-0.513-5.638-1.535-6.596c-1.023-0.958-3.06-1.437-6.106-1.437h-5.616V3.782h29.454v72.754
		c0,3.44,0.511,5.639,1.535,6.597c1.022,0.958,3.058,1.437,6.106,1.437h3.853v8.947h-27.69V82.545
		c-2.178,4.397-5.02,7.641-8.523,9.73c-3.505,2.09-7.849,3.135-13.029,3.135c-8.534,0-15.185-2.948-19.952-8.849
		c-4.768-5.899-7.151-14.183-7.151-24.851c0-10.667,2.384-18.961,7.151-24.883c4.768-5.921,11.418-8.882,19.952-8.882
		c5.137,0,9.459,1.056,12.964,3.167c3.505,2.112,6.368,5.388,8.589,9.829V20.763z M1604.918,62.104
		c0,7.575,1.263,13.235,3.788,16.979c2.524,3.745,6.356,5.617,11.494,5.617c4.702,0,8.414-2.003,11.136-6.009
		c2.721-4.005,4.082-9.535,4.082-16.588c0-7.055-1.361-12.562-4.082-16.524c-2.722-3.961-6.434-5.943-11.136-5.943
		c-5.182,0-9.023,1.851-11.526,5.551C1606.169,48.89,1604.918,54.528,1604.918,62.104z"/>
	<path d="M1668.856,93.517V84.57h4.963c3.048,0,5.083-0.479,6.106-1.437c1.022-0.958,1.535-3.156,1.535-6.597V47.343
		c0-3.439-0.513-5.626-1.535-6.563c-1.023-0.936-3.059-1.404-6.106-1.404h-4.963v-9.013h28.932v46.174
		c0,3.396,0.512,5.584,1.535,6.563c1.022,0.979,3.079,1.47,6.172,1.47h4.049v8.947H1668.856z M1678.521,12.599
		c0-2.786,0.947-5.137,2.842-7.054c1.894-1.916,4.233-2.874,7.021-2.874c2.829,0,5.213,0.958,7.151,2.874
		c1.937,1.917,2.906,4.268,2.906,7.054c0,2.787-0.97,5.159-2.906,7.119c-1.938,1.959-4.322,2.939-7.151,2.939
		c-2.743,0-5.073-0.98-6.988-2.939C1679.479,17.758,1678.521,15.386,1678.521,12.599z"/>
	<path d="M1757.023,85.875c-2.656,3.44-5.747,5.977-9.273,7.609c-3.527,1.632-7.664,2.448-12.409,2.448
		c-5.616,0-10.211-1.611-13.78-4.832c-3.57-3.222-5.355-7.358-5.355-12.409c0-4.833,1.523-8.751,4.572-11.756
		c3.047-3.004,8.271-5.638,15.674-7.902c1.741-0.565,4.571-1.328,8.49-2.285c3.919-0.958,6.509-1.851,7.771-2.678
		c1.61-1.045,2.754-2.231,3.429-3.561c0.675-1.327,1.013-2.992,1.013-4.996c0-3.265-1.187-5.78-3.56-7.543
		c-2.373-1.764-5.779-2.645-10.221-2.645c-2.874,0-5.323,0.316-7.348,0.947c-2.024,0.632-3.82,1.623-5.388,2.972h0.457
		c2.612,0,4.67,0.643,6.172,1.927c1.502,1.285,2.253,3.081,2.253,5.388c0,2.57-0.86,4.637-2.579,6.205
		c-1.721,1.567-3.995,2.352-6.825,2.352c-3.135,0-5.704-0.969-7.706-2.906c-2.004-1.938-3.005-4.452-3.005-7.544
		c0-4.963,2.361-8.99,7.086-12.082c4.724-3.091,11.026-4.637,18.907-4.637c4.484,0,8.458,0.392,11.919,1.175
		c3.462,0.784,6.303,1.917,8.523,3.396c2.568,1.698,4.375,3.854,5.42,6.466s1.567,6.967,1.567,13.062v28.083
		c0,1.567,0.25,2.722,0.751,3.462c0.5,0.74,1.274,1.11,2.319,1.11c1.609,0,2.698-0.85,3.265-2.548
		c0.565-1.697,0.85-5.747,0.85-12.147h8.163v2.809c0,8.187-1.296,14.086-3.886,17.699c-2.591,3.613-6.824,5.42-12.702,5.42
		c-3.963,0-7.13-0.816-9.503-2.448C1759.712,91.852,1758.024,89.316,1757.023,85.875z M1756.763,60.471
		c-1.829,0.871-4.354,1.981-7.576,3.33c-9.927,4.311-14.891,8.73-14.891,13.258c0,2.438,0.719,4.321,2.155,5.649
		s3.482,1.992,6.139,1.992c4.354,0,7.805-1.47,10.352-4.409c2.548-2.938,3.821-6.998,3.821-12.18V60.471z"/>
</g>
</svg>
