<?xml version="1.0" encoding="utf-8"?>
<!-- Generator: Adobe Illustrator 16.0.0, SVG Export Plug-In . SVG Version: 6.00 Build 0)  -->
<!DOCTYPE svg PUBLIC "-//W3C//DTD SVG 1.1//EN" "http://www.w3.org/Graphics/SVG/1.1/DTD/svg11.dtd">
<svg version="1.1" id="Layer_1" xmlns="http://www.w3.org/2000/svg" xmlns:xlink="http://www.w3.org/1999/xlink" x="0px" y="0px"
	 width="492.275px" height="400px" viewBox="0 0 492.275 400" enable-background="new 0 0 492.275 400" xml:space="preserve">
<path d="M154.811,400c185.766,0,287.371-153.905,287.371-287.371c0-4.371,0-8.724-0.295-13.056
	c19.766-14.298,36.828-32,50.389-52.28c-18.433,8.169-37.986,13.525-58.01,15.892c21.085-12.622,36.864-32.475,44.403-55.863
	c-19.825,11.765-41.516,20.056-64.134,24.516c-38.249-40.673-102.229-42.636-142.901-4.387
	c-26.229,24.668-37.358,61.426-29.218,96.501C161.208,119.88,85.547,81.525,34.262,18.427
	C7.455,64.576,21.147,123.614,65.531,153.251c-16.073-0.476-31.795-4.812-45.841-12.642c0,0.414,0,0.848,0,1.28
	c0.014,48.077,33.904,89.487,81.028,99.007c-14.869,4.056-30.47,4.647-45.604,1.732c13.231,41.144,51.148,69.328,94.359,70.14
	c-35.764,28.108-79.945,43.367-125.433,43.32c-8.036-0.016-16.063-0.502-24.042-1.457c46.188,29.64,99.93,45.362,154.811,45.289"/>
</svg>
